<?xml version="1.0" standalone="no"?>
<!DOCTYPE svg PUBLIC "-//W3C//DTD SVG 20010904//EN"
 "http://www.w3.org/TR/2001/REC-SVG-20010904/DTD/svg10.dtd">
<svg version="1.0" xmlns="http://www.w3.org/2000/svg"
 width="400.000000pt" height="400.000000pt" viewBox="0 0 400.000000 400.000000"
 preserveAspectRatio="xMidYMid meet">
<metadata>
Created by potrace 1.16, written by Peter Selinger 2001-2019
</metadata>
<g transform="translate(0.000000,400.000000) scale(0.100000,-0.100000)"
fill="#000000" stroke="none">
<path d="M1695 3556 c-32 -14 -84 -68 -86 -89 -4 -41 2 -110 10 -126 6 -10 8
-20 6 -23 -8 -8 31 -107 50 -128 10 -11 28 -57 40 -103 20 -74 21 -86 9 -110
-13 -24 -13 -26 3 -20 14 6 14 2 -5 -21 -12 -16 -22 -36 -23 -45 0 -12 -2 -12
-6 -3 -4 10 -11 5 -24 -14 -10 -15 -16 -31 -13 -36 3 -4 1 -8 -4 -8 -12 0 -32
-69 -32 -109 0 -17 8 -39 19 -50 18 -18 17 -20 -42 -77 -80 -79 -105 -94 -150
-94 -50 0 -97 -46 -97 -95 0 -42 26 -67 45 -42 7 10 25 17 43 17 17 0 48 11
68 25 20 14 49 25 64 25 15 0 47 7 70 15 23 8 44 15 47 15 6 0 33 -67 33 -81
0 -7 -3 -9 -7 -6 -9 9 -36 -31 -28 -43 3 -5 14 -1 25 10 11 11 30 20 42 20 12
0 81 23 154 50 73 28 138 50 144 50 7 0 5 6 -4 16 -20 19 -21 44 -2 44 21 0
68 295 49 314 -3 3 -7 31 -9 62 -1 31 -7 61 -13 67 -8 8 -11 6 -11 -7 0 -37
-25 -7 -32 38 -4 26 -14 56 -24 67 -9 10 -14 19 -10 19 12 0 -28 36 -60 54
-18 11 -39 37 -52 66 -24 52 -27 64 -13 56 5 -4 19 15 31 40 19 39 22 56 17
116 -7 78 -23 110 -70 138 -37 23 -107 26 -152 6z"/>
<path d="M2372 1950 c-25 -23 -27 -35 -10 -46 8 -5 6 -10 -8 -15 -12 -5 -1 -8
34 -8 52 -1 70 -14 32 -24 -11 -3 -20 -13 -20 -22 0 -11 5 -15 15 -12 8 4 17
2 20 -3 10 -16 45 -12 63 7 12 12 13 18 4 21 -6 2 -12 10 -12 17 0 18 49 29
66 15 7 -7 19 -8 25 -4 7 4 17 0 24 -9 8 -11 36 -17 103 -22 79 -5 92 -4 92
10 0 8 -9 15 -20 15 -11 0 -20 -4 -20 -10 0 -5 -4 -10 -10 -10 -5 0 -10 8 -10
18 0 15 -2 15 -11 2 -8 -11 -9 -8 -4 14 5 22 3 27 -8 23 -11 -4 -13 0 -10 14
3 10 0 19 -6 19 -6 0 -11 -6 -11 -12 0 -8 -3 -9 -8 -3 -4 6 -19 16 -34 22 -25
11 -28 11 -28 -7 0 -10 -4 -21 -10 -25 -13 -8 -61 5 -54 16 3 5 -4 9 -15 9
-12 0 -21 -7 -21 -15 0 -25 -38 -18 -42 8 -2 14 -10 22 -23 23 -11 1 -29 4
-41 8 -13 4 -27 -1 -42 -14z"/>
<path d="M552 1819 c-18 -17 -38 -29 -45 -26 -19 7 -57 -11 -57 -28 0 -8 5
-15 10 -15 6 0 10 -7 10 -15 0 -11 11 -15 43 -15 24 0 52 -7 63 -15 35 -26
109 -15 102 16 -2 9 4 13 15 11 10 -2 26 3 35 10 12 10 14 10 8 1 -4 -7 -2
-13 3 -13 6 0 11 5 11 11 0 8 4 8 13 2 6 -5 58 -18 115 -28 57 -10 106 -23
109 -28 4 -6 -6 -8 -25 -4 -19 4 -32 2 -32 -3 0 -6 9 -11 20 -11 11 -1 26 -2
33 -3 6 -1 12 9 13 21 1 24 -36 43 -85 43 -14 0 -66 9 -116 19 -55 12 -94 16
-101 10 -6 -5 -15 -5 -19 -1 -5 4 -5 1 -1 -5 8 -15 -20 -18 -29 -3 -3 5 -12 7
-20 3 -8 -3 -15 0 -15 7 0 6 5 8 10 5 13 -8 13 26 0 59 -12 34 -28 33 -68 -5z"/>
<path d="M3703 1833 c-4 -10 -14 -23 -22 -30 -9 -6 -13 -15 -9 -19 4 -4 14 -1
23 6 8 7 15 8 15 3 0 -12 -47 -46 -88 -62 -27 -11 -33 -19 -30 -40 3 -25 6
-26 63 -27 33 -1 89 -6 125 -12 36 -6 93 -8 128 -6 42 4 68 2 77 -6 13 -10 15
-8 15 14 0 23 -3 26 -25 20 -15 -4 -34 0 -49 9 -16 11 -26 13 -34 5 -16 -16
-80 -17 -86 -1 -5 12 6 18 27 14 5 -1 6 3 2 9 -3 6 -11 8 -16 5 -5 -4 -9 -1
-9 5 0 17 -21 34 -54 45 -20 7 -32 19 -37 38 -6 23 -5 28 7 23 8 -3 14 -1 14
4 0 5 21 11 48 13 42 3 41 4 -16 5 -52 2 -64 -1 -69 -15z"/>
<path d="M2765 1766 l-30 -12 27 -18 c26 -17 28 -25 14 -58 -13 -29 0 -35 66
-31 87 4 110 8 135 21 33 18 84 14 123 -9 27 -17 45 -20 87 -17 52 5 73 -8 51
-30 -6 -6 -6 -12 1 -16 10 -6 16 13 12 37 0 4 3 7 9 7 5 0 10 7 10 15 0 9 -6
12 -16 8 -11 -4 -15 -2 -12 7 2 7 12 14 22 16 75 11 -42 25 -174 21 -52 -2
-105 1 -118 5 -13 4 -21 5 -19 0 2 -4 -4 -15 -15 -24 -15 -15 -18 -15 -18 -3
0 8 -7 15 -15 15 -8 0 -12 6 -9 14 4 12 -4 14 -43 13 -46 -2 -49 -1 -45 19 5
29 -7 35 -43 20z"/>
<path d="M1496 1756 c4 -9 -3 -16 -18 -19 -18 -3 -16 -5 9 -6 34 -1 46 -12 51
-49 3 -23 1 -23 -55 -17 -32 4 -78 11 -103 16 -25 5 -74 14 -110 20 -36 5 -86
14 -112 18 -37 6 -45 5 -41 -6 3 -7 17 -13 32 -14 14 0 35 -2 46 -5 11 -2 43
-6 72 -8 28 -2 60 -9 70 -14 10 -6 21 -10 26 -10 4 0 35 -4 70 -8 34 -4 71 -8
82 -8 11 -1 21 -9 23 -18 4 -19 -3 -18 -148 9 -152 28 -262 44 -268 38 -8 -8
20 -25 30 -19 4 3 8 0 8 -5 0 -15 -26 -14 -84 4 -63 19 -79 19 -42 0 15 -8 38
-15 50 -15 12 0 31 -7 42 -15 18 -14 16 -15 -31 -14 -101 2 -146 -1 -141 -10
4 -5 0 -12 -6 -14 -8 -3 -6 -6 5 -6 9 -1 17 4 17 9 0 6 7 10 15 10 24 0 17
-28 -7 -33 -20 -4 -19 -4 5 -6 15 0 27 -5 27 -10 0 -12 67 -34 79 -27 5 4 16
-1 24 -9 20 -19 31 -19 24 0 -5 11 -1 12 18 5 19 -7 25 -5 28 8 3 11 5 8 6 -8
1 -20 3 -22 11 -10 6 10 10 11 10 3 0 -7 7 -13 16 -13 9 0 12 5 8 13 -5 8 -2
8 9 -2 13 -10 20 -11 31 -2 9 8 16 8 20 2 4 -5 14 -10 24 -10 59 -3 65 -5 47
-16 -9 -5 -26 -18 -37 -27 -12 -10 -24 -18 -27 -19 -3 0 -14 -2 -24 -4 -9 -2
-15 1 -11 6 3 5 -6 9 -20 9 -18 0 -26 6 -27 18 -1 11 -4 8 -8 -8 -5 -18 -15
-26 -36 -28 -25 -3 -27 -2 -16 11 10 13 8 15 -21 12 -18 -1 -50 -10 -72 -19
-29 -13 -37 -21 -33 -37 4 -16 -1 -19 -36 -21 -85 -3 -110 1 -143 24 l-35 23
26 9 c27 11 32 21 13 32 -6 4 -14 2 -16 -4 -5 -16 -39 -15 -45 1 -3 9 -7 9
-20 -2 -10 -8 -24 -10 -34 -5 -23 9 -18 8 -85 23 -32 7 -72 10 -90 8 -29 -3
-27 -4 10 -5 26 -1 41 -6 37 -12 -4 -6 -11 -8 -16 -5 -5 4 -9 1 -9 -4 0 -6 -7
-11 -15 -11 -8 0 -15 3 -15 8 0 4 -11 8 -25 8 -14 1 -23 -1 -21 -5 6 -9 -71
-8 -80 2 -4 4 -2 7 4 7 7 0 12 9 12 21 0 11 -5 17 -10 14 -15 -9 -71 5 -64 16
11 19 -9 8 -32 -16 -23 -25 -45 -36 -26 -12 6 6 11 17 11 22 1 6 4 10 9 11 4
0 15 4 24 8 10 5 25 6 33 2 8 -3 15 -1 15 5 0 6 5 7 10 4 6 -4 10 10 10 34 l0
41 -60 0 -61 0 1 -37 c1 -54 -10 -103 -23 -103 -7 0 -5 -6 3 -14 8 -7 50 -21
93 -31 61 -13 81 -14 93 -5 11 10 14 9 14 -4 0 -10 9 -16 23 -16 26 -1 101
-11 105 -15 1 -1 5 -52 7 -114 4 -79 10 -119 21 -136 18 -27 4 -35 -16 -10
-13 16 -45 21 -36 6 10 -15 -5 -40 -20 -34 -19 7 -64 -5 -64 -18 0 -21 -29
-39 -64 -39 -27 0 -36 -4 -37 -17 0 -11 -3 -13 -6 -5 -6 15 -49 16 -58 2 -4
-6 4 -19 17 -30 17 -15 35 -19 71 -17 26 2 47 -1 47 -5 0 -4 -4 -8 -10 -8 -5
0 -10 -9 -10 -21 0 -12 -8 -23 -19 -26 -23 -6 -35 -29 -20 -38 23 -15 69 -24
63 -13 -5 8 -1 9 12 3 10 -4 55 -9 99 -10 91 -3 118 -8 195 -40 30 -13 70 -29
88 -36 23 -8 30 -14 20 -19 -21 -12 -156 -32 -168 -25 -5 3 -10 1 -10 -6 0 -8
-14 -10 -47 -5 -33 4 -43 3 -33 -4 12 -8 9 -10 -13 -10 -16 0 -26 -4 -22 -10
3 -6 24 -10 46 -10 24 0 38 4 34 10 -8 13 13 12 50 -4 l30 -12 -50 -13 -50
-13 50 -17 c29 -10 53 -14 56 -8 4 5 33 -2 68 -16 45 -18 61 -21 57 -11 -3 8
-1 14 5 14 6 0 7 4 4 10 -7 12 66 -14 106 -37 16 -10 27 -23 25 -30 -4 -9 7
-13 40 -13 25 0 54 -5 65 -10 26 -14 26 -60 -1 -67 -11 -3 -20 -10 -20 -15 0
-5 -4 -6 -10 -3 -6 3 -7 -1 -4 -10 9 -22 45 -39 77 -36 51 5 109 -9 103 -26
-3 -8 -1 -11 5 -8 5 4 15 3 22 -2 7 -5 32 -15 57 -22 25 -8 52 -16 60 -18 8
-3 81 -8 163 -10 141 -5 147 -4 140 13 -5 15 -4 17 8 9 8 -6 21 -10 29 -9 8 1
56 3 105 4 50 2 74 5 55 7 -51 6 -56 18 -7 20 23 0 45 -4 49 -11 6 -8 8 -7 8
2 0 6 5 12 11 12 5 0 7 -6 3 -12 -6 -10 -5 -10 7 -1 8 6 44 12 79 12 72 -1
180 6 195 11 18 7 165 -12 160 -20 -2 -4 35 -8 84 -9 60 -1 92 2 97 10 4 7 3
9 -4 5 -6 -3 -13 -2 -16 3 -7 11 29 25 43 17 5 -3 14 1 21 9 10 12 9 15 -6 16
-11 1 -1 5 21 9 37 7 94 -4 82 -16 -3 -3 -14 -1 -25 5 -31 16 -41 13 -12 -4
14 -8 33 -12 42 -9 9 3 35 -4 58 -16 l41 -21 -2 -110 c-1 -60 1 -112 3 -115 3
-2 17 0 30 5 18 7 29 6 37 -2 8 -8 11 -8 11 1 0 7 5 12 10 12 7 0 7 -6 0 -19
-5 -11 -10 -30 -10 -42 l0 -22 167 7 c92 4 169 9 172 11 2 3 -2 5 -11 5 -15 0
-48 30 -48 43 0 13 38 7 53 -8 8 -8 17 -11 21 -8 6 6 10 -12 7 -30 -1 -5 3 -6
8 -2 6 3 7 13 4 23 -5 14 -3 15 8 5 7 -7 19 -13 27 -13 8 0 3 9 -12 23 -24 22
-24 24 -6 35 12 7 21 8 25 2 4 -6 12 -7 18 -3 7 4 5 -2 -3 -12 -14 -17 -13
-18 3 -12 11 4 24 4 30 0 7 -4 3 -9 -9 -14 -17 -7 -17 -8 4 -8 12 -1 22 5 22
12 0 7 3 8 8 2 12 -17 59 -18 65 -1 5 12 21 16 61 16 64 0 86 -7 86 -26 0 -8
10 -14 22 -14 17 0 19 3 10 12 -7 7 -12 19 -12 28 0 14 -12 17 -71 17 -45 1
-74 5 -79 13 -4 7 -12 10 -18 6 -5 -3 -12 1 -16 9 -3 8 -12 12 -20 9 -8 -3
-19 3 -26 15 -6 12 -17 21 -24 21 -8 0 -19 7 -26 15 -7 8 -16 13 -20 10 -5 -3
-10 0 -12 5 -2 6 -10 12 -18 14 -28 5 -105 45 -130 67 l-25 21 26 -15 c14 -9
44 -19 65 -23 38 -7 39 -6 21 13 -9 11 -23 20 -31 20 -8 0 -29 7 -47 15 -19 9
-47 18 -64 22 l-30 6 27 -17 c29 -18 43 -50 22 -50 -7 0 -11 4 -8 9 3 4 -3 11
-12 15 -33 13 -55 36 -41 45 9 5 7 8 -4 8 -9 0 -22 7 -30 16 -11 14 -8 15 30
11 24 -2 46 -8 50 -13 3 -5 11 -9 16 -10 28 -1 85 -17 85 -24 0 -8 58 -24 75
-21 6 2 7 -1 3 -5 -11 -10 40 -34 57 -27 9 3 15 -1 16 -8 0 -8 4 -4 9 9 5 12
18 22 28 22 10 0 24 6 31 12 11 10 13 10 7 1 -4 -8 -1 -13 8 -13 19 0 22 -20
4 -21 -7 -1 -26 0 -41 1 -26 2 -28 0 -17 -19 12 -23 40 -29 40 -8 0 9 2 9 8 0
8 -12 72 -20 101 -12 7 2 16 -2 18 -9 3 -9 -3 -11 -19 -9 -12 3 -32 1 -43 -3
-19 -7 -18 -9 7 -18 15 -6 69 -29 122 -51 52 -23 97 -41 100 -41 4 0 6 9 6 21
0 16 4 19 18 14 9 -4 26 -10 37 -13 29 -8 35 -21 29 -72 -3 -34 -2 -41 6 -30
8 10 13 11 16 4 3 -6 15 -9 28 -7 18 4 22 10 18 29 -2 13 -2 31 2 39 5 14 10
14 40 1 l34 -14 -1 35 c-1 31 -2 33 -11 14 -5 -11 -13 -21 -18 -21 -5 0 -7 4
-4 8 3 5 -15 8 -40 7 -31 -2 -47 2 -53 13 -5 9 -17 13 -29 10 -12 -3 -22 -2
-24 2 -5 14 -58 24 -58 11 0 -6 -5 -11 -10 -11 -6 0 -10 6 -9 12 3 29 -2 34
-30 30 -16 -2 -32 1 -35 7 -4 6 0 11 9 11 9 0 13 5 10 10 -3 6 -17 10 -30 10
-29 0 -55 9 -55 20 0 4 6 8 13 7 30 -1 45 4 50 16 6 17 -44 21 -55 5 -6 -10
-8 -10 -8 0 0 6 -9 12 -19 12 -14 0 -18 -5 -14 -20 4 -17 0 -20 -25 -20 -18 0
-32 6 -36 16 -10 27 -7 34 20 34 14 0 23 3 21 8 -6 8 138 15 171 7 14 -4 22
-13 23 -28 0 -21 1 -21 8 -2 5 11 6 24 4 28 -3 5 3 7 13 5 11 -2 18 -11 18
-21 -2 -21 12 -22 20 -2 3 8 17 15 31 15 15 0 24 4 20 10 -3 6 -1 10 5 10 6 0
8 5 5 10 -3 6 -2 10 4 10 5 0 13 -4 16 -10 3 -5 15 -10 27 -10 17 0 20 -5 16
-35 -2 -19 0 -35 4 -35 4 0 8 4 8 9 0 4 12 6 26 3 23 -4 25 -2 22 24 -2 16 -8
28 -15 27 -7 -2 -10 4 -7 12 4 10 0 13 -16 10 -12 -2 -45 2 -73 10 l-52 15 83
-6 82 -7 0 51 c0 40 -4 52 -17 55 -17 4 -17 5 0 6 32 2 17 20 -20 24 l-38 4
38 1 c36 2 37 3 37 41 0 37 -1 39 -40 45 -23 4 -39 11 -37 18 1 7 -9 14 -22
16 -17 3 -21 0 -17 -10 4 -7 -1 -3 -10 9 -9 13 -25 23 -36 23 -15 0 -17 3 -9
19 8 14 22 19 60 19 28 1 53 -3 56 -8 3 -6 -1 -10 -11 -10 -13 0 -14 -3 -4
-15 7 -8 18 -15 24 -15 6 0 4 5 -4 10 -12 7 -8 11 17 16 l32 6 0 73 0 72 -42
8 c-23 4 -60 8 -82 9 -22 1 -45 5 -50 8 -10 6 -58 11 -85 9 -13 -1 -13 -3 1
-11 11 -7 15 -18 11 -37 -5 -26 -5 -26 -13 -5 -5 14 -17 22 -32 22 -13 0 -27
4 -33 10 -14 14 -104 30 -104 19 0 -5 -12 -7 -27 -4 -26 5 -26 5 -5 -4 22 -10
31 -31 12 -31 -5 0 -10 -6 -10 -14 0 -8 -4 -18 -10 -21 -7 -4 -7 3 0 19 11 29
3 34 -14 11 -15 -19 -56 -8 -56 15 0 10 -9 19 -23 22 -36 7 -48 -1 -37 -22 10
-19 -1 -35 -30 -42 -8 -2 -18 -10 -22 -18 -5 -12 -7 -12 -7 3 -1 9 -4 17 -8
17 -5 0 -19 9 -33 20 l-25 19 38 -10 c21 -6 50 -9 64 -7 25 3 25 3 7 26 -19
22 -40 29 -114 37 -19 2 -38 4 -42 4 -4 1 -12 16 -17 34 -6 23 -9 26 -10 11
-1 -19 -10 -23 -78 -31 -50 -7 -64 -11 -40 -12 23 0 36 -5 32 -11 -3 -5 -2
-10 4 -10 5 0 12 6 14 13 3 7 6 5 6 -5 1 -21 -12 -23 -41 -7 -15 8 -19 8 -14
0 4 -6 0 -11 -9 -11 -9 0 -14 -4 -10 -9 3 -6 -3 -10 -12 -10 -33 0 -58 -6 -65
-16 -5 -6 -8 -5 -8 2 0 7 -7 10 -15 7 -8 -4 -15 -1 -15 5 0 15 -27 14 -32 -1
-4 -10 -14 -9 -46 1 -34 12 -50 12 -84 2 -28 -9 -48 -10 -62 -3 -38 18 -190
61 -198 56 -4 -3 -8 -14 -8 -25 0 -14 -7 -19 -26 -19 -16 0 -23 4 -18 11 5 8
1 8 -14 0 -32 -17 -42 -13 -42 14 0 14 3 25 8 25 4 0 5 25 4 55 -4 51 9 74 21
43 3 -8 6 -6 6 5 1 9 -3 17 -9 17 -5 0 -10 9 -10 20 0 16 8 19 63 22 l62 3 -1
42 c-1 34 -7 48 -30 70 -27 25 -41 30 -85 32 -9 1 -39 43 -72 104 -69 126 -83
135 -214 139 -75 3 -89 1 -80 -10 9 -11 5 -13 -21 -9 -18 3 -32 1 -32 -5 0 -6
6 -8 14 -5 8 3 17 3 21 -1 4 -4 12 -7 18 -7 17 0 21 -63 5 -79 -15 -14 -88
-42 -101 -38 -5 1 -6 -2 -2 -8 9 -15 -38 -13 -54 3 -11 10 -13 9 -9 -3 5 -13
-1 -15 -31 -12 -20 3 -40 11 -44 18 -4 8 -17 14 -28 14 -11 0 -18 3 -15 8 2 4
-13 6 -34 4 -21 -2 -41 1 -44 7 -4 7 1 11 13 11 27 0 51 10 51 22 0 6 -16 8
-36 6 -35 -4 -36 -3 -30 25 3 16 6 33 6 38 0 5 10 9 23 9 21 -1 22 -1 3 -15
-19 -14 -18 -15 15 -15 26 0 30 3 19 10 -13 9 -13 11 0 20 12 8 9 10 -12 10
-15 0 -30 5 -34 12 -5 8 -2 9 9 5 9 -3 19 -2 22 3 4 6 -1 10 -9 10 -12 0 -13
5 -4 31 9 26 7 37 -12 72 -28 53 -46 67 -82 67 -30 0 -96 30 -137 61 -28 23
-42 24 -35 5z m270 -422 c-3 -8 -9 -20 -12 -28 -4 -10 1 -12 19 -9 22 4 35 33
15 33 -5 0 -7 4 -4 9 9 14 45 1 40 -14 -3 -7 0 -16 7 -21 8 -4 10 -3 5 5 -6 8
-1 8 18 0 14 -7 23 -16 20 -20 -7 -12 -2 -11 40 6 28 12 36 13 36 2 0 -7 10
-13 23 -14 12 0 16 1 9 4 -10 4 -10 8 -1 19 16 19 29 18 30 -3 0 -16 1 -16 8
1 5 12 10 15 14 9 4 -6 28 -9 57 -7 46 3 72 -7 51 -20 -5 -4 -13 -1 -17 5 -4
8 -9 7 -15 -2 -16 -26 -9 -39 21 -39 17 0 30 -4 30 -10 0 -5 15 -10 33 -10 20
0 34 -5 34 -12 1 -7 8 -34 16 -60 l15 -48 -24 0 c-20 0 -24 5 -24 30 0 40 -29
42 -31 3 l-1 -28 -7 29 c-5 27 -31 50 -31 29 0 -5 6 -15 13 -22 10 -11 9 -12
-3 -6 -13 8 -13 6 -2 -8 12 -14 11 -16 -7 -14 -16 1 -21 8 -22 32 l-1 30 -8
-30 c-7 -28 -8 -27 -9 13 -1 46 -20 59 -22 15 l-2 -28 -5 30 -5 30 -7 -25 c-7
-22 -8 -20 -9 13 -1 28 -5 37 -18 37 -15 0 -18 -9 -18 -47 0 -44 2 -47 35 -58
24 -8 36 -19 38 -35 4 -22 6 -22 93 -18 90 4 101 0 78 -32 -9 -13 -10 -12 -5
3 4 12 0 17 -16 17 -12 0 -18 -3 -15 -7 4 -3 1 -13 -6 -21 -9 -13 -9 -14 1 -8
7 4 12 1 12 -8 0 -11 9 -16 29 -16 32 0 41 -17 41 -86 0 -33 -4 -43 -20 -47
-15 -4 -20 0 -20 14 0 10 -4 19 -10 19 -5 0 -7 -7 -3 -16 5 -14 1 -16 -25 -12
-23 3 -29 1 -22 -7 5 -7 6 -16 2 -21 -4 -4 1 -2 11 5 16 12 17 9 17 -43 0 -46
3 -56 18 -57 13 0 14 -2 2 -6 -8 -3 -18 -11 -22 -16 -3 -6 -20 -11 -37 -12
-24 -1 -31 3 -31 17 0 13 -7 18 -27 17 -16 0 -22 -3 -15 -6 6 -2 12 -10 12
-17 0 -9 -19 -13 -60 -14 l-59 -1 -7 35 c-3 19 -11 31 -16 28 -6 -4 -32 4 -59
17 -43 20 -47 24 -32 33 10 6 22 11 27 11 5 0 11 5 13 11 2 7 -6 10 -19 8 -13
-2 -45 -6 -72 -9 l-48 -7 27 -14 c35 -18 36 -18 28 4 -8 22 7 9 21 -20 7 -14
26 -26 49 -31 26 -6 42 -18 52 -36 12 -24 12 -28 -1 -28 -8 0 -14 4 -14 9 0 4
-9 8 -20 8 -11 0 -20 -4 -20 -10 0 -15 -47 -12 -53 3 -4 8 -8 8 -14 2 -4 -5
-34 -12 -65 -13 -44 -3 -58 -1 -58 10 0 10 -3 9 -10 -2 -8 -11 -10 -7 -8 17 1
17 6 29 10 27 4 -3 8 0 8 5 0 6 -9 11 -20 11 -21 0 -24 8 -14 33 3 9 14 13 27
11 14 -3 12 0 -6 7 -26 10 -28 15 -23 49 10 74 28 130 42 130 8 0 14 7 14 16
0 8 5 12 10 9 6 -4 8 -10 5 -15 -3 -4 9 -10 26 -12 21 -3 33 0 36 9 5 12 7 12
14 2 5 -8 0 -20 -13 -31 -14 -12 -17 -18 -7 -18 11 0 11 -2 -1 -10 -11 -7 -5
-8 19 -3 20 3 32 2 28 -3 -3 -5 9 -9 26 -9 20 0 31 -5 29 -12 -1 -8 8 -13 20
-13 19 0 20 2 8 10 -11 7 -6 8 18 4 28 -6 32 -4 32 15 0 17 5 22 23 21 36 -3
47 -1 47 11 0 6 -6 9 -13 6 -7 -3 -19 4 -25 14 -10 15 -9 19 2 19 8 0 21 3 30
6 11 4 16 1 16 -10 0 -11 9 -16 30 -16 22 0 30 5 30 18 1 16 1 16 11 0 6 -12
22 -18 42 -18 29 1 30 2 12 12 -11 6 -22 14 -25 18 -3 3 -23 7 -45 7 -22 1
-49 3 -60 6 -11 3 -31 6 -45 8 -21 1 -19 3 10 9 l35 7 -30 3 c-16 1 -36 2 -42
1 -7 -1 -13 3 -13 9 0 5 5 10 11 10 5 0 8 4 5 9 -5 8 -44 18 -84 23 -7 1 -11
7 -8 15 3 7 -1 13 -8 13 -9 0 -17 16 -21 39 -4 22 -13 42 -21 45 -8 3 -14 2
-14 -3 0 -8 -83 3 -101 14 -5 4 -9 17 -9 31 0 14 -4 33 -10 43 -8 16 -5 19 16
19 17 0 23 -5 20 -14z m-428 -238 c28 -10 52 -20 52 -23 0 -3 -7 -2 -16 1 -8
3 -12 2 -9 -4 3 -5 18 -7 34 -4 17 4 41 -1 60 -10 28 -15 35 -14 32 7 -2 12 9
8 27 -10 16 -16 16 -16 -1 -10 -11 4 -16 3 -12 -3 3 -6 12 -10 20 -10 8 0 17
-15 21 -34 7 -38 -1 -59 -19 -50 -7 3 -5 0 3 -8 18 -15 27 -64 11 -53 -6 3 -9
10 -6 15 4 7 -53 40 -70 40 -4 0 -14 8 -22 18 -13 16 -14 15 -8 -5 6 -23 -10
-33 -17 -12 -2 7 -15 12 -28 13 -14 1 -31 5 -37 9 -8 5 -13 3 -13 -4 0 -6 -8
-9 -20 -6 -11 3 -20 2 -20 -2 0 -3 -19 -15 -42 -25 -33 -14 -39 -20 -26 -25
16 -6 16 -9 -6 -32 -14 -15 -21 -30 -16 -35 5 -5 -12 -10 -39 -12 -38 -2 -50
1 -55 14 -7 19 10 35 31 27 15 -6 17 15 4 36 -6 9 -5 21 2 33 10 16 8 22 -10
38 -24 19 -32 60 -12 60 6 0 8 -7 5 -16 -5 -14 -4 -15 9 -4 8 7 24 10 35 7 10
-3 36 1 56 8 44 15 27 25 -44 25 l-47 1 30 13 c17 7 35 10 40 6 18 -13 53 -18
66 -9 10 6 7 9 -10 9 -24 0 -24 0 -5 15 17 13 17 16 4 26 -17 13 -18 13 68
-15z m1521 -431 c91 -3 119 -1 114 8 -5 9 -3 9 8 1 8 -7 40 -10 82 -8 44 3 67
0 67 -7 0 -7 14 -8 43 -3 23 4 50 7 59 6 10 0 20 3 23 8 3 5 12 7 20 4 8 -4
13 -9 11 -13 -2 -3 9 -6 26 -7 18 -1 25 2 17 7 -7 4 27 7 74 6 52 -1 87 2 88
8 0 6 3 5 5 -2 4 -8 14 -9 35 -3 18 5 27 5 24 -1 -6 -8 8 -13 28 -10 4 0 7
-13 7 -29 l0 -31 -89 7 c-63 5 -90 3 -95 -5 -6 -9 -11 -9 -22 0 -10 8 -14 8
-14 0 0 -6 5 -11 11 -11 6 0 9 -10 7 -22 -2 -18 -11 -24 -35 -26 -18 -2 -33
-6 -33 -10 0 -9 -121 -9 -135 -1 -5 4 -43 5 -83 3 -44 -1 -70 1 -66 7 3 5 15
9 27 8 12 -1 38 -1 57 1 l35 2 -45 10 c-25 5 -49 14 -55 20 -13 13 81 1 105
-14 10 -6 29 -8 45 -4 l29 7 -25 13 c-17 8 -26 9 -32 2 -5 -7 -7 -5 -4 4 2 8
17 18 33 21 29 5 28 5 -8 10 -20 3 -35 2 -33 -1 2 -3 0 -12 -6 -20 -7 -13 -9
-13 -10 0 -1 8 -1 18 0 22 0 4 -19 5 -44 1 -29 -3 -45 -2 -45 5 0 6 6 13 13
16 6 3 -10 3 -38 0 -94 -11 -170 -12 -182 -2 -9 7 -17 5 -28 -6 -20 -20 -26
-20 -19 -1 4 8 1 15 -5 15 -6 0 -11 -7 -11 -15 0 -9 -9 -15 -22 -14 -17 1 -19
2 -5 6 20 5 23 23 3 23 -8 0 -20 2 -28 3 -7 2 -10 2 -6 0 9 -6 -2 -33 -13 -33
-5 0 -7 10 -5 23 3 12 5 29 5 37 1 12 3 12 10 2 5 -9 44 -14 130 -17z"/>
<path d="M186 1628 c13 -20 14 -38 2 -38 -6 0 -8 6 -5 13 3 8 -4 14 -16 15
-18 1 -19 -1 -7 -9 11 -8 6 -9 -20 -6 -19 3 -43 8 -52 12 -14 5 -18 2 -18 -13
0 -11 8 -23 18 -25 9 -3 -7 -5 -35 -6 -77 -2 -65 -21 12 -21 42 0 65 -4 65
-11 0 -8 -20 -10 -67 -6 -41 3 -60 2 -48 -3 11 -5 33 -9 48 -9 16 -1 26 -5 22
-11 -3 -5 -1 -10 4 -10 6 0 11 4 11 9 0 5 13 11 30 13 17 3 30 1 30 -3 0 -14
53 -20 61 -7 7 11 9 11 9 0 0 -7 4 -11 9 -7 5 3 12 1 16 -4 9 -15 32 -2 38 20
3 12 -2 28 -12 38 -9 9 -15 23 -13 29 2 7 -1 12 -7 12 -6 0 -10 -5 -8 -11 1
-6 -4 -14 -12 -16 -9 -4 -11 0 -6 16 7 22 -9 30 -19 9 -3 -7 -4 -2 -3 12 1 17
-4 26 -17 28 -13 3 -16 0 -10 -10z"/>
<path d="M2780 1593 c-32 -22 -41 -35 -35 -51 2 -7 -7 -18 -20 -24 -14 -6 -25
-18 -25 -26 0 -8 -6 -12 -15 -9 -8 4 -17 2 -20 -3 -8 -12 -26 -13 -43 -1 -12
7 -17 25 -24 76 -2 12 -42 14 -54 3 -4 -5 -2 -8 4 -8 7 0 12 -11 12 -24 0 -14
5 -28 11 -32 8 -4 8 -8 0 -13 -12 -7 -3 -51 10 -51 5 0 6 7 2 16 -5 15 1 16
58 9 35 -3 81 -7 101 -8 20 -1 34 -5 32 -9 -3 -4 -1 -8 5 -8 5 0 12 -8 14 -17
4 -17 5 -17 6 0 1 10 9 17 21 17 10 0 23 7 28 16 7 13 11 10 22 -15 9 -23 9
-35 2 -44 -9 -10 -7 -20 6 -38 19 -27 28 -74 13 -65 -5 4 -12 2 -16 -4 -3 -5
-2 -10 3 -10 5 0 12 -9 15 -21 4 -16 3 -18 -9 -8 -17 14 -17 9 -4 -25 8 -22
16 -26 47 -26 21 -1 91 -11 156 -24 97 -20 130 -32 188 -66 38 -24 72 -46 75
-51 3 -5 -12 -10 -33 -10 l-38 -2 35 -6 c27 -5 34 -10 32 -25 -2 -10 2 -23 10
-27 11 -7 10 -11 -2 -19 -8 -5 -11 -10 -6 -10 5 0 19 8 30 18 16 13 18 13 8 1
-6 -9 -9 -19 -5 -22 3 -4 1 -7 -6 -7 -7 0 -9 -5 -5 -11 5 -8 10 -6 16 5 5 9
14 16 21 16 7 0 6 -4 -3 -10 -19 -12 -4 -12 40 0 42 11 130 19 130 11 0 -8
126 -16 196 -13 36 2 54 36 25 47 -32 13 -63 16 -56 5 3 -5 -1 -10 -10 -10 -8
0 -18 6 -21 14 -3 8 -13 12 -22 9 -15 -4 -15 -3 -2 6 13 9 13 11 -2 11 -10 0
-18 -8 -19 -17 0 -11 -3 -13 -6 -5 -2 6 -13 12 -24 12 -10 0 -19 4 -19 9 0 5
21 8 48 6 26 -1 53 3 61 9 11 8 13 8 8 -1 -10 -17 7 -24 34 -15 19 7 20 10 6
15 -10 4 -17 2 -17 -3 0 -6 -4 -10 -9 -10 -5 0 -7 8 -4 19 2 10 -3 25 -12 34
-15 16 -13 16 32 11 26 -4 55 -13 64 -20 8 -8 21 -14 27 -14 7 0 12 -4 12 -10
0 -5 7 -7 15 -4 11 5 15 -1 15 -25 0 -31 0 -31 55 -31 l55 0 0 125 c0 69 -3
124 -7 124 -19 -3 -47 3 -35 8 17 7 15 23 -3 23 -8 0 -15 -5 -15 -11 0 -5 -5
-7 -11 -3 -8 5 -8 8 0 14 20 12 2 38 -21 32 -12 -3 -19 -1 -15 4 3 6 -14 8
-40 7 -26 -2 -51 1 -57 6 -6 5 -28 8 -49 6 -31 -2 -40 2 -47 19 -7 17 -9 18
-9 4 -1 -10 -8 -18 -16 -18 -14 0 -20 12 -16 33 1 5 -3 6 -9 2 -5 -3 -10 1
-10 9 0 9 5 16 12 16 6 0 8 3 5 6 -4 4 -13 1 -22 -6 -18 -15 -20 1 -2 19 6 7
8 12 2 11 -28 -6 -88 1 -79 9 15 14 64 23 64 11 0 -5 10 -10 23 -10 18 0 19 2
7 10 -8 5 -11 10 -5 10 5 0 5 4 -1 10 -5 5 -34 12 -64 14 -30 3 -89 8 -130 12
-95 9 -122 7 -131 -8 -5 -7 -7 -14 -5 -15 2 -2 82 -10 120 -13 5 0 3 -7 -4
-15 -9 -11 -22 -14 -48 -9 -28 6 -33 4 -27 -7 7 -11 6 -12 -6 -3 -24 19 -78
27 -94 14 -10 -8 -15 -9 -15 -2 0 6 -10 16 -22 22 -22 11 -22 10 -4 -4 19 -16
19 -16 -6 -16 -14 0 -31 7 -38 15 -7 8 -20 15 -29 16 -9 1 -5 4 9 8 14 4 35 4
48 -1 13 -4 33 -7 45 -7 16 1 18 3 5 6 -10 3 -15 10 -11 19 5 13 7 13 14 2 7
-10 9 -10 9 3 0 26 -12 29 -29 8 -16 -20 -16 -20 -16 5 0 21 5 26 24 26 40 0
20 7 -40 14 l-56 7 4 -28 c4 -24 3 -26 -9 -12 -12 15 -15 15 -28 0 -13 -14
-15 -14 -18 4 -2 11 -8 24 -13 30 -6 6 -7 -3 -3 -23 6 -32 6 -32 -20 -22 -17
6 -26 6 -26 0 0 -6 -8 -5 -19 2 -11 7 -17 16 -15 20 3 4 0 8 -5 8 -6 0 -11 6
-11 13 0 9 21 12 75 11 41 -1 75 1 75 5 0 4 11 6 25 6 13 -1 47 1 74 5 38 5
51 3 55 -7 2 -7 3 -5 2 4 -1 13 -10 18 -36 19 -18 0 -35 5 -38 12 -4 14 -39
16 -44 2 -2 -8 -64 -15 -198 -22 -3 0 -14 0 -25 2 l-20 1 20 9 c23 10 21 11
-25 15 -19 1 -53 5 -75 9 -30 5 -46 2 -65 -11z"/>
<path d="M3813 1562 c-13 -11 -20 -27 -18 -44 2 -16 -3 -29 -11 -32 -8 -3 -14
-15 -14 -26 0 -17 6 -20 41 -20 22 0 49 5 60 10 13 7 19 7 19 0 0 -5 8 -10 17
-10 14 0 13 -3 -5 -16 -20 -14 -33 -72 -13 -60 13 9 32 -19 25 -38 -7 -17 11
-22 21 -6 4 6 11 8 16 5 5 -4 9 -1 9 5 0 8 6 8 21 0 20 -11 20 -9 18 61 -2 63
-6 76 -27 96 -16 15 -23 29 -19 43 3 12 0 20 -8 20 -7 0 -15 7 -19 15 -8 22
-87 20 -113 -3z"/>
<path d="M2374 1378 c17 -24 64 -50 77 -42 5 3 35 2 68 -2 42 -4 58 -10 57
-20 -2 -15 -35 -43 -51 -44 -5 0 -3 5 5 10 12 8 9 10 -12 10 -34 0 -59 10 -53
20 3 5 -3 8 -13 7 -10 0 -18 -9 -18 -18 0 -10 4 -15 8 -13 13 8 69 -6 63 -16
-3 -4 41 -11 98 -14 189 -12 210 -15 230 -42 15 -21 16 -24 2 -24 -8 0 -15 -7
-15 -15 0 -20 10 -19 40 5 14 11 19 20 11 20 -7 0 -11 6 -8 14 3 8 -8 29 -26
47 -27 29 -38 33 -82 34 -45 0 -51 3 -62 28 -12 27 -14 28 -64 21 -36 -5 -50
-4 -45 4 4 7 -2 8 -21 3 -16 -5 -48 -5 -73 -1 -40 7 -42 9 -11 14 5 0 13 5 18
10 4 5 -6 7 -24 4 -18 -2 -34 -1 -35 2 -2 4 -20 10 -41 13 -36 6 -37 5 -23
-15z"/>
<path d="M2670 1175 c-5 -14 -14 -25 -20 -25 -5 0 -12 -11 -16 -25 -3 -14 -12
-25 -20 -25 -8 0 -14 -4 -14 -8 0 -5 46 -17 103 -27 81 -15 106 -23 120 -42
21 -27 47 -30 47 -7 0 16 13 16 73 -2 17 -5 21 4 18 39 -1 9 3 17 8 17 19 0
12 17 -9 23 -10 3 -21 0 -24 -7 -3 -8 -7 -8 -13 0 -8 13 -113 30 -149 26 -16
-2 -23 4 -28 23 -4 14 -13 25 -21 25 -8 0 -15 9 -15 20 0 28 -29 25 -40 -5z"/>
<path d="M0 984 l0 -95 45 2 c25 2 45 6 45 10 0 4 17 5 38 3 l37 -4 -28 15
c-22 13 -31 14 -43 4 -11 -9 -14 -8 -14 5 0 9 7 16 16 16 17 0 45 24 39 34 -3
3 1 1 7 -4 10 -9 10 -13 -2 -20 -13 -8 -12 -10 1 -15 8 -3 26 -2 38 3 23 8 23
9 -13 30 -45 27 -45 27 -54 3 -6 -16 -9 -17 -20 -5 -11 12 -10 14 3 14 9 0 13
5 10 11 -5 7 9 10 41 9 71 -3 78 2 14 9 -43 5 -55 10 -54 22 2 19 -20 19 -38
1 -7 -7 -17 -12 -23 -12 -5 0 -2 6 7 14 16 11 14 14 -17 29 l-35 17 0 -96z"/>
<path d="M111 648 c-1 -22 -41 -35 -52 -17 -5 8 -9 11 -9 7 0 -4 -11 -3 -24 2
l-25 9 -1 -289 c0 -224 2 -289 12 -293 10 -4 10 -6 1 -6 -7 -1 -13 -10 -13
-21 0 -13 5 -18 15 -14 11 5 13 2 9 -10 -6 -14 17 -16 226 -16 l232 0 -6 26
c-5 17 -3 23 4 19 5 -3 10 -15 10 -25 0 -19 13 -20 410 -19 271 0 410 3 410
10 0 6 -4 8 -8 5 -5 -3 -9 1 -9 9 0 11 4 12 14 4 13 -12 19 2 6 15 -18 18 -10
36 15 35 18 0 22 -3 12 -7 -9 -4 -15 -19 -15 -36 l1 -28 129 1 c72 1 134 6
140 12 13 13 28 11 19 -3 -5 -8 -2 -9 10 -5 10 4 20 7 22 7 2 0 4 7 4 16 0 8
-4 12 -10 9 -5 -3 -10 -1 -10 6 0 6 -10 20 -22 30 -24 22 -97 26 -116 7 -9 -9
-12 -9 -12 0 0 7 -13 12 -30 12 -16 0 -30 -4 -30 -9 0 -5 -10 -7 -22 -4 -19 4
-20 3 -8 -6 13 -9 13 -11 0 -11 -9 0 -20 4 -25 9 -6 6 -30 11 -55 13 -44 3
-45 3 -48 42 -2 24 2 42 10 47 10 7 10 11 0 21 -6 6 -12 34 -12 60 0 59 -20
64 -21 6 -1 -24 -1 -47 0 -52 1 -5 -5 -6 -13 -3 -9 4 -16 -1 -18 -11 -3 -13
-5 -12 -10 5 -4 14 -2 22 6 20 7 -1 11 13 11 38 0 22 4 43 10 47 9 7 -61 77
-79 78 -4 0 -6 -9 -3 -21 5 -17 3 -18 -10 -7 -14 11 -15 10 -8 -11 4 -15 3
-21 -3 -17 -17 10 -21 56 -5 56 8 0 11 5 8 10 -4 6 -10 8 -15 5 -4 -3 -11 1
-13 7 -3 7 -4 -7 -1 -31 3 -25 10 -51 16 -58 7 -9 7 -13 -1 -13 -6 0 -11 4
-11 10 0 5 -10 14 -22 21 -18 10 -20 9 -15 -5 4 -9 1 -16 -5 -16 -9 0 -9 -3 0
-12 18 -18 15 -25 -14 -32 -19 -5 -24 -12 -20 -24 3 -10 -1 -8 -10 5 -9 13
-22 23 -30 23 -17 0 -27 17 -15 25 6 3 18 -3 28 -13 15 -16 22 -17 42 -6 23
12 23 12 2 19 -12 3 -21 10 -21 15 0 5 -7 6 -17 3 -11 -4 -14 -3 -9 5 4 7 2
12 -3 12 -6 0 -11 -5 -11 -11 0 -5 -5 -7 -10 -4 -6 4 -9 1 -8 -6 2 -8 -11 -16
-32 -20 -19 -3 -47 -11 -62 -17 -20 -8 -29 -8 -34 0 -5 7 -2 8 7 3 11 -6 11
-5 2 5 -8 8 -16 9 -29 2 -29 -16 -54 6 -43 37 8 24 8 25 -5 7 -9 -11 -22 -16
-31 -13 -8 4 -15 2 -15 -3 0 -6 7 -10 15 -10 8 0 15 -7 15 -15 0 -14 -3 -13
-24 2 -34 25 -40 52 -13 57 54 11 240 15 258 5 29 -15 24 7 -6 27 -13 8 -30
12 -36 8 -8 -4 -9 -3 -5 4 7 12 -3 15 -78 27 -29 5 -36 9 -25 16 11 7 10 10
-8 15 -13 4 -23 14 -23 24 0 12 -9 20 -22 22 -16 2 -22 9 -20 22 4 19 3 19
-22 2 -15 -9 -32 -14 -38 -10 -6 4 -8 3 -4 -4 3 -6 2 -13 -4 -17 -5 -3 -10 1
-10 10 0 11 -7 14 -29 10 -23 -4 -31 -1 -35 13 -3 10 -16 18 -28 19 -13 1 -28
10 -35 19 -8 10 -13 13 -13 6 0 -9 -5 -10 -19 -2 -11 5 -29 10 -40 10 -12 0
-18 5 -16 13 3 8 -6 13 -26 14 l-31 2 23 -21 24 -20 -25 7 c-14 4 -31 13 -39
19 -12 9 -13 8 -7 -3 7 -10 0 -12 -33 -7 -23 3 -46 8 -51 11 -5 3 -11 1 -15
-5 -9 -14 -26 -12 -24 3 4 31 -1 37 -27 31 -18 -5 -25 -3 -20 4 14 22 -30 16
-52 -8 -21 -22 -22 -23 -13 -3 15 29 14 36 -3 30 -8 -3 -17 -1 -20 6 -2 7 -5
5 -5 -5z"/>
</g>
</svg>
