<?xml version="1.0" standalone="no"?>
<!DOCTYPE svg PUBLIC "-//W3C//DTD SVG 20010904//EN"
 "http://www.w3.org/TR/2001/REC-SVG-20010904/DTD/svg10.dtd">
<svg version="1.0" xmlns="http://www.w3.org/2000/svg"
 width="960.000000pt" height="640.000000pt" viewBox="0 0 960.000000 640.000000"
 preserveAspectRatio="xMidYMid meet">
<metadata>
Created by potrace 1.16, written by Peter Selinger 2001-2019
</metadata>
<g transform="translate(0.000000,640.000000) scale(0.100000,-0.100000)"
fill="#000000" stroke="none">
<path d="M7640 6365 c0 -41 20 -48 21 -7 0 27 0 27 10 3 9 -23 10 -23 153 -20
111 3 147 1 159 -10 11 -9 17 -10 17 -2 0 6 5 11 11 11 19 0 39 -28 39 -54 0
-14 5 -26 11 -26 8 0 10 16 6 50 -4 29 -2 50 3 50 6 0 10 -4 10 -10 0 -5 18
-10 40 -10 37 0 40 -2 40 -27 0 -24 1 -25 18 -11 25 23 70 29 68 9 -1 -21 35
-27 46 -7 5 9 22 16 38 16 23 0 30 -5 30 -20 0 -13 -7 -20 -19 -20 -26 0 -32
-12 -25 -49 6 -28 10 -31 45 -31 22 0 39 -4 39 -10 0 -18 29 -11 40 10 6 11
17 20 25 20 8 0 15 5 15 10 0 6 -27 10 -60 10 -53 0 -60 2 -60 20 0 16 7 20
34 20 26 0 36 5 41 21 6 19 8 19 24 5 22 -20 61 -21 61 -1 0 8 6 15 13 16 113
5 113 5 109 -18 -4 -21 0 -23 37 -23 22 0 41 5 41 10 0 6 18 10 40 10 33 0 40
-3 40 -20 0 -11 7 -20 15 -20 8 0 19 9 25 20 6 11 17 20 25 20 8 0 15 5 15 10
0 6 18 10 40 10 29 0 40 -4 40 -15 0 -11 11 -15 40 -15 29 0 40 -4 40 -15 0
-11 -11 -15 -40 -15 -22 0 -40 -4 -40 -10 0 -17 77 -12 84 5 3 8 12 15 20 15
24 0 29 20 10 35 -17 13 -11 14 53 15 46 0 73 4 75 12 3 8 11 9 24 3 18 -8 18
-9 -4 -13 -13 -2 -21 -9 -19 -15 6 -19 39 -21 49 -3 18 31 31 17 25 -26 -3
-24 -3 -35 1 -25 7 17 9 17 21 3 7 -9 24 -16 37 -16 18 0 24 -5 24 -23 0 -23
27 -57 45 -57 4 0 14 -8 21 -17 13 -17 13 -17 14 0 0 10 8 17 20 17 17 0 20
-7 20 -40 0 -28 4 -40 14 -40 8 0 17 -6 19 -12 4 -10 6 -10 6 0 1 14 65 -45
74 -69 3 -8 6 79 6 194 l1 207 -980 0 -980 0 0 -35z"/>
<path d="M5836 5742 c-6 -18 2 -37 34 -87 34 -53 43 -75 47 -127 3 -35 2 -60
-2 -56 -18 17 -35 -16 -35 -68 l0 -54 45 -12 45 -12 0 -51 c0 -27 -3 -73 -6
-100 -6 -47 -10 -53 -47 -75 -23 -13 -64 -45 -92 -70 -54 -52 -185 -122 -330
-177 -95 -36 -279 -130 -330 -168 -16 -12 -51 -34 -78 -49 l-47 -28 -23 28
c-12 16 -26 37 -32 48 -54 104 -309 84 -436 -35 -90 -86 -149 -217 -149 -335
0 -97 9 -136 32 -142 10 -2 17 -7 16 -11 -110 -221 -124 -259 -142 -385 -8
-54 -19 -102 -24 -105 -6 -3 -115 -37 -244 -74 -244 -72 -308 -95 -308 -108 0
-9 59 0 75 11 19 14 466 142 472 136 4 -4 -2 -49 -12 -102 -18 -92 -18 -97 -1
-148 10 -30 17 -58 15 -63 -2 -4 -44 -46 -94 -93 -49 -46 -96 -93 -104 -104
-8 -12 -31 -44 -53 -72 -21 -28 -38 -55 -38 -59 0 -5 -13 -29 -29 -54 -50 -79
-63 -145 -60 -304 1 -80 -3 -177 -10 -222 -7 -44 -19 -117 -26 -162 -7 -45
-20 -97 -30 -115 -22 -45 -38 -170 -30 -239 7 -56 6 -58 -32 -101 -41 -45 -87
-103 -148 -183 -45 -58 -95 -164 -125 -265 -13 -41 -37 -122 -55 -180 -18 -58
-40 -131 -49 -162 -10 -34 -35 -81 -62 -115 -24 -32 -52 -68 -61 -81 -22 -32
-33 -112 -24 -172 5 -32 4 -53 -3 -60 -6 -6 -16 -30 -21 -53 l-11 -42 -109
-10 -110 -10 -5 -125 c-3 -69 -10 -134 -16 -144 -9 -15 -55 -29 -200 -62 -220
-50 -204 -48 -204 -29 0 22 -21 18 -27 -4 -5 -19 -47 -31 -240 -72 -29 -6 -53
-15 -53 -20 0 -12 196 -12 240 1 23 6 36 6 40 0 8 -13 160 -11 160 1 0 5 5 9
11 9 5 0 7 -4 4 -10 -4 -6 6 -10 21 -10 27 0 27 1 8 15 -21 16 -24 15 44 19
11 0 16 -6 14 -18 -3 -16 1 -18 35 -11 21 4 43 7 48 8 6 1 13 9 17 17 6 13 7
13 7 0 1 -17 33 -18 160 -4 49 6 70 13 87 31 23 25 44 32 24 8 -19 -23 -8 -25
14 -4 11 11 14 19 8 19 -7 0 -12 6 -12 14 0 9 12 13 40 12 25 0 36 -4 30 -10
-13 -13 -13 -29 -1 -21 5 3 13 0 17 -6 4 -8 3 -9 -4 -5 -7 4 -12 3 -12 -2 0
-5 10 -12 22 -15 29 -8 15 -21 -25 -23 -98 -5 -212 -15 -216 -19 -2 -3 60 -5
138 -4 102 0 140 3 135 11 -5 8 -1 9 12 3 27 -12 174 -16 174 -5 0 5 -7 7 -15
4 -8 -4 -15 -1 -15 5 0 6 15 10 35 8 31 -2 33 -4 18 -14 -14 -11 -11 -13 23
-13 22 0 46 6 53 13 11 10 13 9 7 -1 -4 -6 -2 -12 3 -12 6 0 11 5 11 10 0 6 5
10 11 10 5 0 7 -4 4 -10 -4 -6 64 -9 187 -9 199 0 242 4 217 20 -10 6 -8 10
11 18 19 7 21 10 7 10 -16 1 -17 6 -12 33 l7 32 -23 -26 c-23 -24 -58 -34 -60
-16 -1 4 -2 12 -3 17 -2 17 -11 19 -24 5 -10 -10 -10 -14 -1 -14 7 0 9 -3 6
-6 -4 -4 -13 -1 -22 6 -10 8 -15 9 -15 1 0 -6 -13 -11 -30 -11 -22 0 -30 5
-30 18 -1 15 -2 15 -16 -3 -11 -14 -18 -16 -21 -7 -7 18 -23 4 -23 -21 0 -18
-2 -19 -11 -7 -7 10 -12 11 -15 4 -4 -9 -14 -9 -39 -1 -33 10 -48 27 -24 27 5
0 8 4 5 9 -8 12 27 8 36 -4 4 -5 8 0 8 12 0 16 -7 23 -27 26 -16 2 2 5 40 6
48 1 67 -3 67 -11 0 -10 3 -9 9 1 12 19 218 24 225 5 5 -14 36 -12 141 6 33 5
98 10 145 10 79 0 122 6 176 24 18 5 23 2 28 -19 9 -34 23 -32 21 4 -2 27 1
29 32 26 18 -1 33 1 33 5 0 4 12 5 28 2 26 -4 26 -4 7 12 -11 8 -15 16 -8 16
6 0 18 -7 27 -15 15 -16 41 -21 32 -7 -11 17 13 29 107 52 62 16 97 29 97 38
0 7 5 10 10 7 6 -4 8 -11 5 -16 -4 -5 -2 -9 4 -9 5 0 11 5 13 11 3 8 10 6 20
-5 9 -9 23 -16 30 -16 9 1 7 5 -4 14 -27 20 -21 29 15 22 l32 -6 -30 20 -30
20 33 0 c39 0 40 4 5 34 -23 20 -27 30 -24 67 1 24 9 51 17 59 12 12 14 9 14
-28 0 -24 7 -56 15 -71 8 -16 15 -44 17 -63 1 -19 7 -35 13 -35 20 0 4 140
-20 187 -8 16 -12 30 -7 30 10 0 32 -44 32 -64 0 -8 7 -19 15 -26 10 -8 15
-26 13 -49 -3 -35 -3 -36 32 -33 54 5 75 13 60 22 -7 4 -13 21 -14 37 -1 23
-25 55 -113 147 -107 113 -112 117 -116 89 -3 -23 -4 -21 -6 11 -1 37 -2 38
-33 33 -18 -3 -64 -9 -103 -12 -38 -3 -82 -9 -97 -11 -26 -5 -28 -3 -28 28 0
18 -5 49 -10 68 -7 24 -7 66 1 134 9 82 16 106 41 142 16 24 33 44 37 44 4 0
8 -25 9 -55 1 -39 -3 -59 -16 -71 -12 -13 -13 -19 -4 -22 6 -2 12 -18 12 -35
0 -50 17 -19 29 53 6 37 18 89 26 118 14 47 19 52 44 52 17 0 47 14 75 35 45
35 46 37 40 78 -8 52 -14 60 -14 21 0 -20 -10 -40 -30 -59 -16 -16 -28 -31
-25 -33 7 -7 -15 -32 -27 -32 -11 0 -7 26 14 81 7 19 18 34 25 32 6 -2 14 1
18 6 3 7 -3 11 -15 11 -19 0 -20 5 -17 52 2 35 8 53 17 56 13 3 13 2 1 -6 -11
-8 -9 -15 14 -38 19 -20 26 -23 21 -11 -3 10 -6 30 -6 44 0 16 -7 27 -20 30
-11 3 -20 6 -20 7 0 1 5 17 10 36 6 19 13 58 16 85 3 28 9 64 15 80 10 35 0
129 -31 275 -11 52 -20 111 -20 130 0 19 -4 50 -9 68 -6 18 -13 63 -17 100 -3
37 -10 75 -15 84 -5 9 -9 37 -9 61 0 24 -13 82 -29 128 -36 106 -45 159 -26
159 27 0 35 73 10 106 -8 10 -15 26 -15 35 0 9 -7 19 -15 23 -9 3 -15 19 -15
41 0 36 -15 48 -23 18 -2 -10 -3 -5 -1 11 3 24 2 27 -11 16 -21 -17 -20 -13
21 69 20 40 34 74 32 77 -2 2 -21 -27 -43 -64 -21 -37 -61 -88 -89 -115 -28
-26 -44 -47 -36 -47 9 0 2 -12 -17 -30 -18 -16 -33 -34 -33 -40 0 -13 -70 -90
-81 -90 -19 0 22 59 72 104 53 48 62 71 15 41 -48 -32 -27 -8 44 49 53 43 78
72 101 118 17 33 28 62 26 64 -2 3 -16 -11 -31 -31 -15 -19 -32 -35 -37 -35
-6 0 7 21 27 48 51 64 58 71 51 49 -4 -11 -3 -16 3 -12 6 3 10 13 10 21 0 17
30 78 35 72 2 -2 0 -20 -4 -41 -12 -49 -5 -47 16 4 11 30 25 45 49 55 41 17
43 21 49 83 4 51 28 107 74 169 15 20 19 32 11 32 -8 0 -10 3 -6 7 4 4 76 -62
160 -146 123 -123 152 -157 149 -175 -4 -17 9 -38 47 -79 29 -31 56 -57 60
-57 5 0 10 10 12 22 2 14 11 22 25 23 13 1 26 4 29 8 4 3 -20 33 -51 67 -45
46 -63 59 -78 54 -16 -5 -50 24 -168 142 l-148 148 38 45 c21 25 44 65 51 88
13 44 13 44 -35 173 -9 25 -19 61 -21 80 -5 38 -14 57 -68 144 -20 33 -36 70
-36 82 0 12 -7 27 -15 34 -24 20 -18 42 38 126 42 62 63 84 103 105 45 24 49
28 49 63 0 33 6 43 47 75 106 85 678 441 710 441 4 0 3 -13 -2 -30 -10 -36 8
-60 45 -60 19 0 27 10 44 55 12 31 21 60 21 65 0 6 15 10 34 10 32 0 66 23 53
37 -4 3 -2 15 4 25 6 11 13 50 15 85 4 56 2 64 -11 59 -9 -3 -13 -2 -10 3 3 5
-3 12 -14 16 -16 5 -18 11 -10 43 5 20 8 57 7 82 -1 44 -1 43 -9 -15 -5 -33
-13 -72 -18 -87 -8 -23 -6 -27 13 -30 17 -3 18 -4 5 -10 -29 -12 -37 4 -28 62
4 30 8 76 8 101 l1 45 62 15 c34 8 63 19 65 25 2 6 -14 19 -37 28 -32 13 -40
21 -40 42 0 14 4 23 10 19 15 -10 12 2 -6 20 -21 20 -16 25 19 18 25 -5 28 -9
25 -34 -3 -18 1 -30 9 -33 10 -4 12 1 7 19 -4 16 -2 25 6 25 6 0 8 5 3 13 -4
6 -8 23 -9 37 -1 41 -15 104 -26 117 -5 7 -6 18 -2 24 5 9 2 10 -10 6 -14 -5
-17 -3 -13 8 7 15 -36 55 -59 55 -8 0 -14 4 -14 8 0 5 -6 9 -12 10 -7 1 -42 8
-78 16 -35 8 -66 13 -68 11 -2 -2 17 -15 43 -30 25 -15 44 -29 42 -32 -9 -8
-96 42 -100 57 -2 10 -6 8 -11 -8z m-781 -2102 c-4 -17 -11 -28 -16 -24 -5 3
-9 -3 -9 -13 -1 -10 -7 -29 -15 -43 -14 -24 -14 -24 -10 15 2 22 2 32 -1 22
-3 -9 -9 -15 -14 -12 -5 3 -23 -13 -41 -35 -19 -23 -49 -46 -75 -56 -41 -16
-73 -50 -36 -38 10 4 7 -2 -8 -15 -14 -11 -36 -21 -50 -23 -17 -2 -25 -9 -24
-20 1 -10 -2 -15 -7 -13 -4 3 -17 -3 -29 -15 -23 -23 -34 -26 -27 -6 3 8 0 17
-7 19 -22 9 -7 55 18 59 11 2 20 9 19 15 -1 6 11 16 27 22 17 6 45 16 63 23
17 7 53 32 79 56 26 24 53 45 60 46 33 7 50 22 70 59 17 35 22 38 30 23 5 -9
6 -30 3 -46z m-462 -427 c15 -7 27 -18 27 -24 0 -17 -70 -87 -101 -99 -38 -16
-32 -24 7 -10 l29 10 -24 -20 c-25 -22 -13 -27 22 -8 25 13 61 51 85 91 9 15
20 27 24 27 14 0 9 -13 -13 -37 -19 -20 -20 -25 -8 -40 9 -11 10 -14 1 -9 -7
4 -15 1 -18 -8 -3 -9 -14 -16 -23 -16 -10 0 -26 -7 -37 -16 -18 -15 -18 -15
11 -10 29 5 30 5 5 -6 -14 -6 -63 -30 -110 -53 -75 -37 -170 -65 -170 -50 0 9
89 45 110 45 19 0 130 47 130 55 0 3 -16 -2 -36 -10 -20 -8 -61 -21 -91 -29
-50 -13 -54 -13 -49 2 3 10 -1 8 -10 -5 -17 -24 -52 -33 -38 -11 5 7 9 21 9
32 2 21 39 56 61 56 8 0 14 4 14 9 0 5 -9 7 -20 4 -25 -7 -26 12 -2 26 12 7
13 10 3 11 -16 0 31 40 48 40 6 0 11 5 11 12 0 6 3 9 6 5 5 -5 42 22 68 50 12
13 34 9 79 -14z m-118 -258 c-77 -67 -86 -78 -73 -87 10 -6 10 -8 -2 -9 -8 -1
-19 -1 -23 0 -5 1 -5 -3 -2 -9 4 -6 14 -9 24 -5 9 3 -4 -13 -29 -36 -25 -23
-37 -36 -27 -28 18 12 18 10 12 -32 -3 -24 -8 -56 -9 -70 -2 -14 -6 -31 -10
-37 -11 -18 29 -15 44 3 7 8 18 15 24 15 6 0 -1 -12 -17 -25 -33 -30 -94 -48
-116 -35 -9 5 -11 10 -4 10 6 0 9 9 6 20 -3 11 2 31 11 45 18 27 21 65 6 65
-6 0 -2 12 7 27 10 15 18 30 18 33 0 3 5 4 12 2 14 -3 17 7 5 23 -9 14 -21 13
-52 -4 -25 -14 -25 -14 -7 7 10 11 14 22 9 23 -16 6 6 49 25 49 27 0 103 31
152 62 60 37 65 35 16 -7z m224 -766 c-5 -30 -14 -79 -20 -109 -7 -30 -18 -98
-25 -150 -25 -180 -25 -179 -74 -219 l-45 -36 33 38 c17 21 32 45 31 55 0 10
-3 12 -6 5 -2 -7 -11 -13 -18 -13 -17 0 -14 78 6 160 11 46 14 50 17 26 2 -15
0 -40 -4 -55 -12 -40 -10 -90 3 -95 13 -6 27 21 24 47 -1 10 5 48 14 84 9 37
14 79 11 94 -3 14 -2 29 1 33 11 10 18 76 22 204 l2 67 19 -41 c15 -33 16 -51
9 -95z m176 -306 c-7 -76 17 -165 51 -190 17 -13 17 -16 4 -41 -9 -15 -28 -33
-43 -40 -15 -7 -27 -18 -27 -25 0 -8 3 -8 12 1 24 24 29 11 9 -20 -11 -18 -26
-32 -32 -30 -6 1 -8 -2 -4 -8 6 -9 -45 -83 -52 -76 -7 7 50 105 58 100 5 -3 9
2 9 11 0 10 -5 13 -12 9 -6 -4 -8 -3 -4 4 11 19 24 102 16 107 -11 7 -23 -22
-35 -80 -3 -16 -10 -31 -16 -33 -5 -2 -9 -13 -9 -25 0 -12 -23 -56 -50 -96
-28 -41 -50 -68 -50 -59 0 8 9 27 20 41 11 14 20 30 20 35 0 5 6 15 14 21 7 6
14 23 14 37 0 14 6 30 15 37 19 15 35 63 17 52 -9 -5 -11 -4 -6 4 4 6 12 8 18
5 8 -5 9 -1 5 10 -4 9 0 31 9 48 13 25 13 35 4 59 -7 16 -9 41 -6 56 5 21 4
24 -4 13 -8 -12 -10 -10 -7 10 5 35 17 60 39 82 10 10 18 25 18 33 0 8 3 15 6
15 3 0 2 -30 -1 -67z m11 -369 c-14 -38 -17 -62 -7 -69 6 -3 9 -11 6 -16 -4
-5 -4 -9 -1 -9 3 0 12 12 21 28 10 17 14 20 11 7 -3 -11 -8 -32 -12 -47 -3
-16 -10 -28 -14 -28 -4 0 -10 -10 -13 -22 -3 -13 -15 -48 -26 -78 l-20 -55 -1
40 -2 40 -20 -62 c-12 -35 -24 -63 -28 -63 -9 0 -24 87 -24 145 -1 28 3 39 12
37 8 -1 11 2 7 8 -3 5 0 21 8 36 l14 27 6 -32 c4 -19 11 -30 17 -26 6 4 8 21
4 40 -4 26 0 42 21 74 27 40 53 56 41 25z m-456 -585 c-18 -214 -28 -310 -33
-316 -9 -8 -29 78 -24 98 3 11 1 17 -4 13 -15 -9 -10 33 6 46 8 7 15 19 15 27
0 13 -3 13 -15 3 -12 -10 -15 -9 -15 4 0 9 6 29 14 44 7 15 21 63 31 107 28
133 28 131 32 114 2 -9 -1 -72 -7 -140z m-276 56 c-7 -53 -20 -88 -32 -82 -4
2 -16 -5 -26 -16 -16 -17 -17 -19 -3 -14 28 11 20 -17 -23 -74 -22 -30 -40
-60 -40 -69 0 -9 -7 -25 -15 -37 -11 -16 -12 -22 -2 -26 9 -3 6 -16 -11 -51
-25 -54 -49 -68 -68 -41 -12 16 -14 17 -20 2 -11 -31 -21 -18 -15 20 4 24 14
41 28 48 15 8 19 15 12 26 -6 12 0 22 22 38 16 12 27 26 24 31 -3 5 4 26 15
47 11 21 20 45 20 53 1 13 3 13 13 -1 10 -13 16 -14 29 -5 13 9 13 13 2 24
-15 14 -19 33 -6 31 4 -1 14 -1 22 1 12 1 11 3 -2 8 -17 7 -16 9 2 40 11 18
24 31 29 28 11 -7 27 12 35 44 l7 25 -21 -25 c-12 -14 -19 -20 -16 -14 3 6 10
24 16 40 17 43 32 11 24 -51z"/>
<path d="M8760 1156 c0 -9 -6 -13 -14 -10 -23 9 -27 -35 -4 -47 20 -11 20 -11
-1 -30 -23 -22 -32 -24 -28 -8 1 6 -3 13 -9 16 -16 5 -27 -29 -13 -38 13 -8 4
-29 -13 -29 -5 0 -8 7 -4 15 3 8 1 15 -4 15 -5 0 -6 9 -1 22 7 18 2 25 -38 45
-56 28 -53 28 -49 1 2 -17 9 -23 26 -22 14 0 19 -3 13 -9 -6 -6 -1 -22 12 -44
l20 -35 -29 6 c-23 5 -32 2 -42 -14 -10 -16 -10 -20 2 -20 8 0 16 -7 20 -15 3
-8 15 -15 26 -15 17 0 20 -4 15 -22 -6 -17 -4 -20 9 -15 9 4 16 1 16 -5 0 -6
5 -7 13 -2 7 5 5 2 -5 -8 -11 -10 -16 -24 -12 -35 5 -17 4 -16 -10 1 -9 11
-16 26 -16 34 0 7 -5 10 -11 6 -8 -4 -9 1 -5 17 3 13 3 18 0 12 -4 -10 -12 -9
-34 2 -22 11 -30 12 -33 2 -4 -8 -8 -8 -14 -2 -4 6 -15 10 -23 10 -17 0 -41
-26 -34 -37 3 -5 0 -8 -5 -8 -6 0 -11 -4 -11 -10 0 -5 6 -10 14 -10 8 0 14 -8
14 -17 0 -10 0 -22 2 -28 7 -29 0 -35 -27 -22 -16 6 -31 16 -35 22 -5 6 -8 6
-8 -1 0 -7 -12 -14 -27 -17 -60 -12 -67 -14 -71 -25 -2 -7 3 -12 12 -12 18 0
40 -36 31 -50 -4 -6 -12 -7 -18 -3 -7 4 -6 0 2 -10 12 -15 11 -17 -4 -17 -11
0 -15 -5 -11 -15 6 -18 6 -18 -48 -4 -32 8 -47 18 -56 37 -9 21 -9 24 0 15 7
-6 19 -9 26 -6 8 3 14 0 14 -6 0 -6 7 -11 15 -11 8 0 15 7 15 15 0 8 5 15 11
15 5 0 7 5 3 11 -4 8 -9 7 -14 -2 -7 -10 -14 -10 -38 0 -17 7 -39 11 -49 9
-10 -2 -23 3 -29 11 -6 8 -16 11 -23 7 -9 -6 -8 -14 4 -33 9 -14 14 -27 12
-30 -3 -2 -10 5 -17 16 -7 14 -21 21 -41 21 -25 0 -30 -5 -36 -30 -4 -22 -9
-28 -18 -20 -6 5 -15 7 -18 3 -4 -3 -7 0 -7 9 0 15 -37 55 -44 47 -7 -9 7 -78
15 -73 5 3 9 -2 9 -11 0 -15 -3 -15 -32 2 -39 23 -49 44 -16 35 20 -5 21 -3
11 10 -7 8 -10 18 -6 21 3 4 1 7 -5 7 -7 0 -12 -4 -12 -10 0 -5 -7 -10 -15
-10 -8 0 -15 -6 -15 -14 0 -27 -20 -27 -30 -1 -6 15 -15 23 -21 19 -7 -4 -7
-10 -1 -16 6 -6 8 -16 6 -22 -2 -6 5 -17 17 -24 12 -8 18 -9 14 -3 -3 6 -2 11
3 11 6 0 12 -7 16 -15 3 -9 0 -15 -10 -15 -14 0 -44 -22 -44 -33 0 -14 35 -15
50 -2 16 14 19 13 34 -11 10 -14 20 -38 22 -52 4 -26 3 -26 -11 -8 -8 11 -15
25 -15 32 0 6 -7 17 -15 24 -18 15 -19 7 -4 -22 9 -17 9 -20 -3 -16 -11 5 -13
-1 -10 -23 4 -25 2 -28 -13 -22 -15 5 -17 2 -13 -15 4 -12 2 -24 -2 -27 -5 -3
-7 17 -5 45 4 47 3 50 -15 40 -10 -5 -21 -20 -23 -32 -2 -13 -3 -6 -1 14 4 36
-12 61 -25 40 -4 -7 -15 -3 -31 10 -16 13 -19 18 -7 14 11 -3 17 0 17 10 0 11
-6 13 -22 8 -13 -4 -30 -7 -38 -7 -8 0 -18 -5 -22 -11 -5 -6 -8 -2 -8 10 0 28
-10 36 -27 22 -7 -6 -17 -8 -21 -4 -4 4 1 13 11 20 24 18 21 41 -8 60 -29 19
-31 15 -9 -18 11 -18 12 -26 3 -32 -8 -4 -9 -3 -5 4 12 19 -30 14 -66 -8 -18
-11 -27 -20 -19 -20 10 0 11 -3 2 -13 -6 -8 -9 -16 -6 -19 11 -11 -32 -4 -50
8 -18 13 -18 14 -2 14 24 0 87 51 87 69 0 12 3 12 12 3 18 -18 33 -15 18 3
-11 13 -10 18 5 29 10 7 15 18 11 24 -4 7 -1 12 8 12 9 0 16 7 16 15 0 19 -4
19 -40 0 -16 -8 -33 -15 -37 -14 -20 3 -34 -2 -29 -10 4 -5 0 -12 -6 -15 -10
-5 -10 -7 0 -12 16 -8 15 -24 -2 -24 -8 0 -17 -6 -20 -12 -5 -10 -7 -10 -12 0
-5 10 -12 6 -25 -15 -15 -22 -19 -24 -19 -9 0 15 -3 16 -15 6 -8 -7 -15 -19
-15 -27 0 -9 -6 -13 -13 -10 -10 4 -13 -3 -12 -21 3 -40 4 -42 22 -42 13 0 14
-3 5 -12 -9 -9 -17 -5 -36 15 -14 15 -31 27 -38 27 -8 0 -14 9 -14 19 0 11 3
18 6 16 3 -1 11 4 19 13 13 13 12 14 -10 10 -22 -4 -25 -2 -21 19 5 26 12 29
30 11 9 -9 12 -8 12 6 0 10 -9 20 -20 23 -11 3 -17 9 -14 15 3 5 -5 6 -20 2
-17 -4 -26 -2 -26 6 0 10 -3 10 -14 1 -11 -9 -18 -6 -35 16 -17 24 -22 26 -31
13 -15 -23 -12 -30 15 -30 36 0 31 -12 -15 -40 -39 -25 -54 -45 -25 -34 8 4
15 2 15 -4 0 -6 -6 -13 -12 -15 -8 -3 -5 -6 5 -6 10 -1 15 -6 11 -12 -3 -6
-18 -8 -33 -5 l-26 5 25 -12 c31 -15 37 -37 11 -37 -15 0 -19 -5 -15 -24 6
-34 -14 -42 -28 -12 -13 29 -23 33 -32 11 -3 -8 -1 -15 4 -15 5 0 7 -14 5 -31
-4 -25 -1 -30 12 -25 12 5 14 1 10 -14 -4 -15 0 -20 14 -20 28 0 24 -34 -6
-54 -15 -10 -23 -22 -18 -28 5 -9 8 -9 11 1 3 9 9 8 24 -5 18 -17 20 -17 42 9
25 29 59 37 50 12 -4 -8 -15 -15 -26 -15 -13 0 -17 -4 -12 -12 5 -7 8 -24 8
-38 1 -20 6 -25 31 -27 62 -5 70 -12 38 -33 -13 -8 -14 -13 -5 -16 11 -5 18
-34 7 -34 -18 0 -42 26 -37 42 6 24 -15 23 -28 -2 -10 -18 -13 -19 -26 -5 -9
8 -19 15 -24 15 -11 0 -20 -29 -17 -52 4 -21 45 -58 65 -58 11 0 12 -3 3 -13
-8 -11 -6 -18 9 -32 11 -10 20 -23 20 -28 0 -6 8 -19 17 -30 17 -18 17 -19 -7
-16 -16 3 -26 12 -30 29 -4 14 -12 24 -18 22 -7 -1 -12 5 -12 14 0 10 -6 14
-15 10 -8 -3 -15 0 -15 7 0 8 -3 7 -9 -2 -8 -12 -15 -13 -34 -4 -25 12 -37 8
-37 -11 0 -23 74 -91 102 -94 17 -2 28 2 28 9 0 10 3 10 12 1 18 -18 38 -15
59 11 l20 22 -6 -22 -6 -22 415 0 c400 -1 414 0 409 18 -4 15 0 18 20 14 17
-3 24 -10 20 -19 -4 -11 12 -14 85 -14 63 0 92 4 95 13 4 9 6 9 6 0 1 -17 371
-19 371 -3 0 7 6 7 18 1 9 -5 151 -9 315 -9 248 -1 298 1 293 13 -2 7 2 16 11
19 10 4 12 10 6 19 -6 6 -13 25 -17 41 -7 27 -6 28 10 15 10 -8 15 -9 11 -3
-8 13 30 51 40 40 4 -4 2 -16 -5 -26 -10 -17 -9 -20 5 -21 10 -1 22 -1 26 0 4
1 10 -6 13 -14 4 -10 13 -13 24 -10 10 3 21 1 25 -5 4 -6 -4 -10 -18 -10 -18
0 -24 -5 -23 -20 1 -26 22 -40 59 -40 l28 0 -3 123 c-2 74 -7 121 -13 120 -5
0 -18 3 -27 8 -14 7 -16 6 -12 -6 4 -8 1 -15 -5 -15 -6 0 -11 -7 -11 -16 0 -8
5 -12 10 -9 13 8 13 2 -2 -30 -6 -14 -15 -25 -19 -25 -5 0 -6 -7 -3 -15 4 -8
2 -15 -4 -15 -14 0 -24 32 -14 42 12 12 -9 58 -25 58 -7 0 -13 7 -13 16 0 12
3 14 13 6 8 -7 16 -6 24 3 9 10 8 18 -6 34 -23 27 -46 19 -60 -20 -8 -23 -7
-29 5 -29 7 0 14 -4 14 -10 0 -5 -8 -7 -17 -4 -15 5 -15 3 1 -10 19 -15 19
-16 -12 -16 -25 0 -32 4 -32 19 0 11 3 21 8 23 16 7 52 97 66 167 9 41 20 77
24 80 9 6 13 19 31 104 10 44 23 62 19 26 -2 -18 2 -25 19 -27 12 -2 23 3 26
10 2 7 2 1 0 -15 -3 -15 0 -27 6 -27 7 0 11 23 11 57 0 55 0 56 -20 38 -16
-14 -22 -15 -35 -5 -13 10 -15 49 -14 252 1 132 -3 244 -7 248 -5 5 -10 -110
-11 -266 -1 -271 -2 -276 -30 -364 -20 -65 -33 -91 -48 -96 -18 -5 -18 -7 -2
-11 30 -8 16 -29 -40 -61 -14 -7 -23 -8 -23 -2 0 5 5 10 11 10 6 0 8 9 3 22
-6 20 -5 21 10 9 35 -29 27 12 -13 62 -8 9 -10 17 -6 17 4 0 0 9 -10 20 -25
28 -36 25 -25 -6 6 -14 6 -23 1 -19 -5 3 -25 -11 -43 -30 -42 -45 -69 -40 -61
10 3 19 0 55 -6 80 -11 44 -10 47 26 98 41 56 47 98 29 195 -13 68 -22 40 -19
-53 l3 -87 -26 17 c-33 22 -42 13 -13 -14 20 -18 21 -23 9 -52 -8 -17 -23 -43
-35 -58 -12 -14 -26 -36 -30 -49 -4 -14 -12 -21 -20 -18 -10 3 -12 0 -8 -11 5
-12 3 -14 -7 -8 -10 6 -12 4 -7 -9 6 -14 3 -17 -9 -12 -8 3 -18 6 -20 6 -3 0
-2 5 1 10 3 6 1 10 -5 10 -6 0 -13 -7 -16 -15 -4 -8 -10 -15 -14 -15 -12 0
-22 32 -12 42 14 14 1 60 -19 65 -11 3 -23 20 -29 42 -13 48 -13 51 5 45 9 -4
13 -14 11 -23 -3 -9 -1 -23 4 -31 8 -13 10 -12 15 1 9 23 3 41 -22 65 l-22 22
22 6 c16 4 19 8 10 17 -9 9 -9 16 0 30 16 25 2 35 -19 14 -15 -14 -15 -21 -5
-39 11 -20 11 -20 -8 2 -23 26 -33 28 -29 6 2 -10 -3 -19 -10 -21 -8 -3 -10 1
-5 13 4 11 3 15 -4 11 -21 -13 -21 32 -1 50 20 18 20 17 14 -4 -6 -18 -4 -21
14 -16 17 4 20 11 16 29 -7 28 -3 30 19 8 15 -15 16 -13 14 24 -2 22 3 47 9
55 7 7 9 17 5 21 -4 4 -6 45 -5 91 1 49 -2 86 -8 90 -6 4 -10 -5 -10 -19 0
-14 -5 -26 -11 -26 -8 0 -8 -4 -2 -12 14 -18 23 -58 13 -58 -5 0 -11 6 -13 13
-3 6 -6 3 -6 -9 -1 -12 -13 -27 -28 -35 -16 -8 -32 -20 -36 -26 -23 -37 -54
10 -41 62 8 32 18 32 32 0 14 -30 32 -34 25 -5 -3 11 0 27 7 35 8 10 9 15 2
15 -6 0 -19 8 -29 18 -10 11 -26 22 -35 25 -14 5 -16 1 -11 -29 4 -21 2 -34
-5 -34 -6 0 -9 7 -6 14 5 13 1 13 -24 4 -18 -7 -28 -17 -25 -25 3 -7 0 -13 -7
-13 -6 0 -8 -5 -4 -12 4 -7 3 -8 -5 -4 -6 4 -9 12 -6 17 4 5 -1 9 -10 9 -11 0
-15 5 -11 15 3 8 -1 18 -8 22 -20 12 -26 41 -11 47 8 3 12 12 9 21 -3 8 -2 15
4 15 5 0 12 -9 15 -20 3 -14 14 -20 31 -20 14 0 26 -5 26 -12 0 -9 3 -8 13 1
10 11 9 14 -1 18 -6 3 -10 9 -7 13 3 5 12 7 19 4 8 -3 17 -1 21 5 3 6 0 11 -7
11 -8 0 -14 10 -15 21 -1 12 -7 27 -12 32 -7 7 -10 1 -8 -18 2 -22 -3 -28 -21
-31 -13 -2 -21 0 -18 5 4 5 -5 8 -18 7 -22 -3 -24 0 -19 24 3 15 0 31 -6 34
-6 4 -11 0 -11 -8z m-35 -182 c6 -11 17 -19 25 -17 12 3 12 2 -1 -9 -15 -12
-15 -15 6 -24 15 -7 29 -8 40 -1 12 7 16 6 11 -1 -3 -6 8 -25 25 -43 25 -25
33 -29 40 -18 5 8 9 18 9 22 0 5 4 6 8 3 4 -3 6 -21 4 -41 -3 -28 -10 -39 -29
-46 -14 -5 -34 -7 -44 -4 -15 5 -16 11 -9 31 5 13 7 25 5 25 -3 1 -13 2 -22 3
-10 1 -27 7 -39 13 -11 7 -26 8 -33 3 -10 -6 -8 -9 8 -15 12 -3 21 -15 21 -26
0 -25 -3 -24 -39 12 -28 28 -30 31 -12 36 36 9 36 77 0 86 -24 6 -26 40 -2 35
10 -2 22 -13 28 -24z"/>
<path d="M4264 95 c-4 -8 -3 -27 0 -41 6 -22 9 -24 22 -13 12 10 18 9 32 -6 9
-10 11 -15 5 -11 -8 4 -13 2 -13 -6 0 -9 16 -14 50 -16 33 -1 50 2 50 10 0 9
3 9 12 0 17 -17 55 -15 62 4 4 9 11 12 18 7 17 -10 40 -10 56 1 8 6 12 3 12
-8 0 -16 2 -16 15 -2 21 21 19 25 -12 23 -14 -1 -28 4 -30 11 -3 7 1 10 11 6
9 -4 16 -1 16 6 0 9 4 9 13 2 10 -8 13 -6 14 9 2 18 -15 25 -42 19 -5 -1 -16
-3 -22 -3 -7 0 -13 -4 -13 -9 0 -4 -6 -8 -14 -8 -8 0 -16 -7 -20 -15 -3 -8
-12 -15 -21 -15 -21 0 -19 17 3 23 16 4 16 5 0 6 -19 1 -26 21 -7 21 5 0 8 4
4 10 -10 16 -34 0 -30 -21 3 -13 -2 -19 -13 -19 -25 0 -47 16 -33 24 6 4 15 4
21 1 5 -3 7 0 4 8 -6 17 -60 16 -89 -1 l-20 -11 20 -1 c17 -1 17 -2 -4 -11
-19 -7 -28 -6 -40 7 -9 9 -10 14 -4 10 9 -5 11 -2 7 8 -8 20 -13 20 -20 1z"/>
</g>
</svg>
