<?xml version="1.0" standalone="no"?>
<!DOCTYPE svg PUBLIC "-//W3C//DTD SVG 20010904//EN"
 "http://www.w3.org/TR/2001/REC-SVG-20010904/DTD/svg10.dtd">
<svg version="1.0" xmlns="http://www.w3.org/2000/svg"
 width="1024.000000pt" height="683.000000pt" viewBox="0 0 1024.000000 683.000000"
 preserveAspectRatio="xMidYMid meet">
<metadata>
Created by potrace 1.16, written by Peter Selinger 2001-2019
</metadata>
<g transform="translate(0.000000,683.000000) scale(0.100000,-0.100000)"
fill="#000000" stroke="none">
<path d="M5275 5572 c-90 -47 -247 -202 -261 -258 -3 -13 -12 -24 -20 -24 -8
0 -20 -15 -28 -34 -8 -19 -33 -51 -55 -71 -41 -37 -100 -140 -102 -179 -3 -43
-22 122 -23 202 -1 76 -6 96 -20 73 -3 -5 -8 -39 -12 -77 -3 -38 -9 -75 -13
-84 -5 -8 -11 -67 -15 -130 -11 -199 -15 -219 -45 -226 -60 -13 -80 -26 -91
-60 -12 -37 -6 -104 12 -142 10 -18 8 -29 -5 -51 -13 -22 -17 -54 -18 -123 0
-51 -1 -113 -1 -138 -3 -105 9 -287 20 -308 38 -69 140 -125 164 -90 6 9 8 3
4 -17 -3 -16 -11 -56 -17 -87 -6 -32 -14 -58 -18 -58 -3 0 -14 14 -23 30 -10
17 -24 33 -33 36 -27 11 -65 -6 -76 -33 -9 -25 4 -75 46 -177 8 -18 5 -19 -51
-12 -32 3 -99 14 -148 24 -62 11 -91 13 -93 6 -3 -8 -42 -10 -122 -6 -201 8
-334 -12 -628 -92 -29 -8 -123 -20 -210 -26 -322 -22 -427 -56 -543 -173 -88
-88 -180 -283 -194 -409 -13 -123 -94 -313 -198 -469 -49 -73 -65 -90 -110
-112 -29 -14 -61 -28 -71 -31 -27 -8 -20 -24 14 -31 16 -4 29 -11 27 -15 -2
-5 -34 -41 -73 -81 -78 -80 -167 -143 -229 -161 -50 -14 -92 -44 -74 -52 9 -3
8 -8 -5 -16 -12 -8 -16 -18 -12 -31 5 -14 -1 -27 -19 -44 -18 -17 -27 -36 -28
-59 -3 -70 38 -81 172 -46 135 36 224 69 293 110 81 47 111 53 244 53 102 0
102 0 81 19 -12 10 -28 16 -36 13 -7 -3 -16 -5 -18 -5 -3 0 -3 -4 1 -10 3 -5
-7 -8 -25 -7 -27 2 -28 3 -13 15 15 11 14 12 -10 12 -15 0 -27 2 -27 5 0 12
69 67 107 86 24 12 55 37 70 56 16 18 51 58 80 88 104 108 141 185 204 420 52
193 55 201 102 315 38 92 118 221 159 255 16 14 40 25 54 25 13 0 24 -1 24 -2
0 -2 -9 -27 -20 -55 -53 -139 -73 -454 -46 -706 17 -159 13 -192 -34 -274 -11
-18 -35 -70 -55 -115 -20 -46 -43 -90 -51 -98 -8 -8 -24 -27 -35 -42 -17 -23
-24 -26 -44 -18 -15 6 -27 6 -30 0 -4 -6 3 -10 14 -10 50 0 1 -42 -63 -54 -21
-4 -35 -10 -32 -13 3 -3 -6 -19 -19 -35 -15 -18 -25 -42 -25 -61 -1 -175 -27
-327 -55 -327 -8 0 -19 -9 -25 -20 -6 -11 -18 -20 -26 -20 -14 0 -13 -2 1 -16
9 -9 14 -23 11 -31 -3 -8 -6 -18 -6 -21 0 -4 -4 -1 -9 7 -7 11 -11 10 -20 -7
-7 -14 -8 -23 -1 -27 5 -3 10 -2 10 2 0 5 12 10 28 11 17 1 22 -1 14 -7 -7 -4
-12 -12 -11 -17 8 -28 -17 -56 -76 -84 -34 -16 -69 -30 -76 -30 -19 0 -98 -29
-81 -30 22 0 13 -30 -9 -30 -18 0 -19 -2 -9 -15 10 -13 9 -15 -9 -15 -11 0
-21 -5 -21 -11 0 -6 -8 -8 -19 -4 -14 4 -21 0 -26 -15 -6 -19 -14 -20 -118
-20 -126 0 -161 -6 -153 -26 3 -8 1 -14 -4 -14 -6 0 -10 7 -10 15 0 15 -6 16
-120 15 -45 0 -90 -10 -90 -19 0 -10 22 -31 33 -31 5 0 7 7 4 14 -4 10 -1 13
8 10 7 -3 15 -15 18 -26 3 -11 10 -17 16 -13 6 3 9 11 6 16 -3 5 1 6 9 3 12
-5 11 -9 -7 -27 -13 -13 -22 -17 -25 -9 -2 7 -10 12 -19 12 -8 0 -28 9 -44 21
-16 11 -34 19 -41 17 -6 -2 4 -12 23 -21 l34 -17 -30 -1 c-16 -1 -38 -1 -48
-1 -10 1 -15 -3 -12 -8 3 -6 1 -10 -4 -10 -6 0 -11 5 -11 10 0 6 -4 10 -10 10
-5 0 -10 -7 -10 -15 0 -8 -7 -15 -16 -15 -10 0 -14 6 -11 14 5 11 0 11 -23 -2
-35 -20 -22 -32 38 -32 23 0 42 -4 42 -10 0 -6 9 -6 23 -1 27 10 105 12 89 2
-13 -8 1 -36 14 -29 5 3 18 2 29 -3 16 -6 12 -8 -17 -8 -25 -1 -38 -6 -40 -17
-3 -14 -6 -13 -29 5 -29 22 -74 19 -65 -6 3 -8 1 -11 -4 -8 -6 3 -10 1 -10 -4
0 -6 5 -11 10 -11 6 0 10 -5 10 -11 0 -5 -5 -7 -10 -4 -11 7 -40 -11 -40 -24
0 -8 210 -6 349 4 68 4 87 9 98 25 8 11 20 17 29 13 12 -4 13 -8 4 -13 -9 -5
-6 -10 10 -15 12 -4 31 -16 41 -26 28 -28 41 -24 28 7 -5 15 -7 29 -4 32 3 3
5 0 5 -7 0 -7 9 -9 24 -5 17 4 28 0 39 -16 11 -16 21 -20 36 -15 12 3 19 10
16 15 -6 9 51 19 62 11 18 -13 13 -40 -9 -47 -36 -11 -88 -48 -88 -62 0 -9 9
-7 30 8 26 18 30 19 30 5 0 -9 -4 -14 -9 -11 -5 3 -11 -1 -15 -9 -3 -8 -12
-15 -19 -15 -19 0 -50 36 -43 49 8 13 -25 31 -56 31 -18 0 -20 -2 -8 -10 8 -5
11 -10 5 -11 -5 -1 -14 -2 -20 -3 -5 -1 -27 -7 -49 -15 -32 -11 -40 -11 -47 0
-6 11 -11 10 -27 -4 -24 -22 -32 -21 -32 3 0 22 -28 26 -65 10 -17 -7 -15 -9
13 -9 17 -1 32 -5 32 -10 0 -12 -37 -24 -50 -16 -6 3 -10 -4 -10 -17 0 -31
-15 -52 -29 -43 -13 8 -61 -20 -61 -36 0 -6 9 -8 23 -4 17 6 19 5 10 -5 -6 -7
-9 -18 -7 -25 3 -7 -5 -20 -17 -28 -19 -14 -20 -18 -8 -30 9 -8 22 -11 34 -7
10 4 38 5 62 2 28 -2 43 0 43 7 0 8 6 9 19 1 25 -13 31 -13 31 3 0 17 45 57
64 57 9 0 16 -7 16 -15 0 -8 -7 -15 -15 -15 -8 0 -15 -4 -15 -10 0 -5 11 -10
25 -10 14 0 25 -4 25 -9 0 -13 41 -21 59 -12 9 5 31 11 49 14 32 7 32 6 29
-29 -3 -19 -7 -37 -10 -40 -11 -12 -27 8 -27 34 0 20 -3 23 -12 14 -7 -7 -20
-12 -30 -12 -10 0 -18 -7 -18 -16 0 -8 5 -12 10 -9 6 3 10 1 10 -4 0 -6 6 -11
13 -11 6 0 18 -4 26 -9 25 -16 -26 -61 -60 -54 -21 4 -33 -1 -50 -21 -13 -15
-29 -24 -37 -21 -7 2 -11 1 -8 -4 3 -5 -1 -12 -10 -15 -24 -9 -31 -7 -14 4 12
8 11 10 -7 10 -12 0 -25 -4 -28 -10 -3 -5 -1 -10 5 -10 6 0 8 -4 5 -10 -3 -5
-17 -10 -30 -10 -13 0 -27 -5 -30 -10 -4 -6 -11 -8 -16 -4 -5 3 -17 0 -26 -8
-12 -9 -15 -9 -9 -1 10 18 -9 16 -24 -2 -10 -12 -10 -15 3 -15 9 0 19 -4 22
-10 4 -7 -2 -7 -19 0 -20 7 -29 5 -42 -7 -15 -16 -15 -17 2 -23 22 -8 9 -16
-44 -29 -33 -7 -42 -6 -42 4 0 9 -8 11 -22 7 -17 -4 -20 -2 -15 11 4 10 2 17
-4 17 -5 0 -8 10 -7 23 5 37 -16 31 -25 -7 -6 -22 -15 -36 -24 -36 -10 0 -14
-6 -10 -20 3 -11 2 -20 -3 -20 -4 0 -10 -11 -12 -24 l-5 -24 117 -1 c103 -2
119 1 142 19 30 23 54 25 95 8 15 -6 33 -12 38 -13 6 0 18 -5 28 -9 29 -13
340 -2 345 12 5 17 22 15 22 -3 0 -13 278 -15 2351 -15 l2351 0 -4 45 c-2 31
1 45 9 45 7 0 13 -11 13 -24 0 -33 10 -57 21 -50 5 3 9 0 9 -5 0 -6 5 -11 11
-11 5 0 8 4 4 9 -3 5 -1 12 4 15 4 3 6 31 4 62 l-5 57 28 -7 c16 -4 31 -12 32
-17 2 -5 21 -9 43 -9 30 0 37 -3 33 -15 -4 -8 -1 -15 5 -15 6 0 11 6 11 13 1
7 6 4 15 -7 7 -10 19 -15 25 -11 6 4 22 0 35 -9 13 -9 32 -16 42 -16 14 0 15
2 4 9 -8 5 -9 11 -3 15 6 3 17 -2 24 -12 7 -11 32 -29 54 -40 41 -21 53 -21
570 -22 l529 0 -80 36 c-44 19 -87 38 -95 41 -8 4 -104 46 -213 95 -108 48
-200 88 -203 88 -3 0 -76 34 -162 76 -86 42 -179 85 -207 95 -27 11 -81 35
-120 53 -218 105 -313 140 -277 104 19 -19 14 -29 -12 -22 -18 4 -25 1 -28
-14 -4 -14 -13 -19 -34 -18 -16 1 -34 5 -41 9 -6 4 -22 2 -35 -3 -17 -8 -23
-19 -23 -44 0 -34 19 -66 39 -66 6 0 5 4 -3 9 -7 5 -11 14 -7 20 9 13 46 -8
46 -26 0 -7 9 -13 20 -13 12 0 20 7 20 16 0 14 2 14 16 3 10 -8 12 -15 5 -17
-6 -2 -9 -7 -6 -11 2 -5 -8 -14 -23 -22 -15 -8 -30 -18 -33 -22 -3 -5 -71 -9
-150 -10 -232 -3 -2636 16 -3109 24 -112 2 -119 3 -65 10 121 17 524 28 1068
30 306 2 557 7 557 11 0 4 -11 8 -24 8 -32 0 -126 22 -126 29 0 8 -536 6 -820
-3 -113 -3 -512 -7 -887 -8 l-681 -3 -27 25 c-15 14 -34 40 -42 58 -7 18 -20
35 -28 38 -8 4 -12 10 -9 15 3 6 -7 26 -22 46 -23 30 -25 39 -15 55 10 16 8
22 -13 39 -36 29 -48 77 -43 178 4 92 22 141 52 141 21 0 26 -28 23 -134 -3
-87 -1 -99 16 -112 23 -16 60 -19 51 -4 -9 15 7 12 31 -5 12 -8 24 -11 28 -8
3 3 6 1 6 -5 0 -7 -8 -12 -17 -12 -16 -1 -15 -2 2 -12 11 -6 22 -14 25 -18 7
-10 90 -19 90 -10 0 16 -31 32 -55 28 -14 -3 -28 -2 -30 2 -3 4 21 11 53 14
31 4 65 9 75 12 9 3 17 1 17 -5 0 -5 -10 -11 -22 -13 -25 -3 -32 -17 -19 -37
8 -13 12 -13 26 -1 14 11 18 11 25 1 4 -8 13 -10 20 -6 9 6 9 9 -1 16 -10 6
-11 9 -1 9 6 0 12 9 12 19 0 11 -6 21 -12 24 -7 3 11 4 39 3 29 0 53 -5 53 -9
0 -5 5 -5 11 -1 8 5 8 9 -1 14 -27 17 0 27 47 18 68 -12 66 -12 96 -4 20 5 27
3 27 -9 0 -9 9 -15 24 -15 28 0 43 16 24 23 -10 4 -10 6 0 6 14 1 17 31 2 31
-5 0 -10 14 -10 30 0 17 5 30 10 30 6 0 10 7 10 16 0 8 5 12 10 9 6 -3 10 -33
10 -67 l0 -60 58 4 c32 2 69 11 82 21 l23 16 -25 10 c-32 12 -42 37 -20 51 15
9 15 10 -6 16 -24 7 -25 23 -1 34 8 4 24 12 37 19 25 13 62 6 62 -10 0 -6 -4
-7 -10 -4 -5 3 -10 1 -10 -4 0 -6 7 -11 15 -11 8 0 19 -17 25 -42 23 -84 61
-106 133 -79 42 16 57 -9 64 -107 l5 -62 -144 -1 c-79 0 -208 -4 -288 -7 -80
-4 -203 -5 -275 -2 -172 8 -279 1 -265 -15 5 -6 7 -15 3 -18 -3 -4 106 -7 243
-7 137 0 308 -3 379 -8 l130 -7 -145 -5 c-80 -3 -197 -2 -260 2 -142 9 -310 0
-310 -17 0 -19 77 -76 94 -69 9 3 13 11 9 17 -4 7 14 8 55 4 34 -3 64 -2 67 3
3 4 54 8 115 8 60 0 114 4 120 7 13 8 92 -4 86 -14 -2 -3 13 -5 35 -3 21 2 42
8 45 13 7 12 64 12 64 0 0 -10 -34 -21 -67 -21 -13 0 -23 -4 -23 -10 0 -5 9
-10 19 -10 11 0 23 -5 26 -10 3 -6 18 -10 33 -10 20 0 23 3 13 9 -12 8 -12 13
3 35 l16 26 208 0 c359 0 837 24 827 41 -12 19 -89 29 -232 30 -96 0 -156 4
-170 12 -86 50 -113 60 -170 65 -45 3 -63 9 -63 19 0 8 -7 28 -16 45 -15 28
-14 31 5 52 27 29 26 36 -5 36 -16 0 -37 13 -58 35 -18 19 -31 36 -29 38 2 2
-18 22 -44 43 -27 21 -49 42 -51 45 -2 4 -26 38 -55 75 -47 61 -68 96 -114
184 -36 68 -76 169 -80 202 -4 26 2 52 20 92 14 31 30 56 34 56 5 0 17 16 27
35 10 19 27 37 37 40 11 4 19 12 19 18 0 17 48 60 59 53 5 -3 16 -3 25 0 13 5
14 9 5 21 -9 11 -9 17 1 26 10 9 13 9 17 0 3 -7 9 -13 15 -13 6 0 6 6 -2 15
-10 12 -3 24 41 69 61 62 61 62 124 172 26 45 68 103 95 129 46 45 54 49 97
49 27 -1 88 -14 138 -32 117 -40 424 -101 545 -109 57 -3 139 0 205 8 105 13
266 16 311 4 12 -2 24 -14 27 -25 4 -16 13 -20 52 -20 l47 0 -7 32 c-7 30 -6
31 9 15 14 -13 36 -17 105 -17 81 0 90 2 114 26 l26 25 6 -48 c4 -26 17 -99
31 -162 26 -125 29 -158 15 -211 -5 -19 -12 -132 -15 -250 -5 -204 -9 -259
-22 -323 -8 -39 -24 -33 -26 11 l-1 37 -4 -33 c-3 -23 -9 -32 -18 -28 -22 8
-16 -56 7 -72 22 -16 23 -40 1 -109 -17 -53 -18 -54 -53 -53 -79 4 -93 1 -80
-15 10 -12 10 -15 -3 -15 -9 0 -19 4 -22 10 -3 5 -14 10 -23 10 -19 0 -122 61
-122 72 0 4 6 8 13 8 18 0 20 53 3 86 -11 20 -15 22 -20 9 -3 -9 0 -25 7 -36
10 -17 9 -22 -5 -30 -10 -6 -18 -17 -18 -24 0 -8 -7 -15 -15 -15 -24 0 -17 25
10 40 30 16 33 34 5 25 -17 -5 -19 -3 -11 17 5 14 4 32 -2 46 -14 31 -29 28
-16 -5 8 -20 6 -30 -5 -42 -17 -16 -16 -18 -35 49 l-11 35 6 -38 c5 -35 -9
-53 -19 -24 -4 9 -7 9 -17 0 -11 -10 -10 -14 3 -19 10 -3 17 -17 17 -32 0 -23
-1 -24 -17 -10 -10 9 -23 14 -29 11 -12 -4 -32 16 -32 32 0 5 -5 11 -10 13
-11 3 -23 -36 -13 -42 4 -3 5 -73 3 -155 -3 -121 -1 -151 10 -152 7 -1 18 -2
23 -4 6 -1 137 -3 293 -3 l282 -2 11 -24 c8 -17 9 -44 3 -83 l-9 -58 -45 -1
c-28 0 -58 -9 -80 -22 -27 -17 -51 -22 -101 -22 -122 0 -284 -13 -264 -21 11
-4 32 -8 48 -8 17 -1 27 -6 27 -16 0 -8 5 -15 10 -15 6 0 10 7 10 15 0 13 11
15 68 9 37 -4 82 -13 101 -20 18 -8 52 -14 75 -14 52 0 87 -10 80 -21 -3 -5 4
-9 15 -9 12 0 21 -4 21 -10 0 -5 5 -10 10 -10 20 0 9 29 -12 33 -20 4 -20 4 4
6 15 0 30 -3 33 -9 10 -16 28 -12 21 5 -5 13 16 15 155 14 89 0 163 2 166 4 6
7 -25 55 -64 97 -45 48 -59 84 -45 115 11 23 9 25 -13 25 -14 0 -25 5 -25 11
0 5 -5 7 -12 3 -7 -4 -8 -3 -4 5 10 15 -13 43 -28 34 -8 -4 -8 -3 0 6 9 10 6
18 -12 36 -20 20 -22 28 -14 57 12 41 13 38 -5 38 -9 0 -14 -8 -12 -22 1 -15
-3 -23 -13 -23 -8 0 -14 6 -12 14 2 8 5 60 8 115 3 76 8 104 20 113 9 6 13 16
10 21 -3 6 0 13 6 15 10 4 10 6 1 6 -8 1 -13 15 -13 37 0 21 -4 33 -10 29 -5
-3 -10 1 -10 9 0 8 4 17 9 20 5 3 12 22 16 43 5 26 9 33 15 23 5 -8 6 -19 3
-25 -3 -5 0 -5 7 2 7 6 14 24 15 40 2 15 4 35 6 43 2 8 -2 14 -10 15 -8 0 -16
7 -19 15 -3 8 -1 12 3 8 4 -4 16 2 26 13 13 15 16 30 12 57 -3 20 -10 39 -14
42 -13 9 4 26 31 33 21 5 26 13 28 42 3 38 0 40 -28 25 -16 -9 -18 -8 -13 6 3
9 0 20 -7 24 -11 7 -11 22 -1 80 6 40 16 81 22 91 12 24 32 25 25 2 -7 -24 7
-76 22 -81 7 -2 12 7 12 25 0 16 5 34 12 41 6 6 17 26 24 44 6 18 29 78 49
133 21 55 39 111 40 125 1 14 3 32 4 41 0 9 10 19 21 22 11 3 20 11 20 17 0
10 -3 10 -15 0 -12 -10 -15 -9 -15 6 0 11 4 26 10 34 6 9 5 17 -3 22 -8 5 -5
8 9 8 17 0 20 5 16 32 -2 18 -9 38 -14 45 -5 7 -5 14 1 17 6 4 5 21 -5 48 -17
49 -17 48 -2 48 6 0 22 10 35 22 12 12 34 22 48 24 22 2 25 -1 25 -27 0 -17 5
-29 13 -29 26 0 116 61 151 102 35 41 36 43 16 52 -11 5 -20 15 -20 23 0 8 -4
12 -8 9 -5 -3 -7 28 -4 68 4 64 1 79 -22 122 -14 27 -26 57 -26 68 0 15 5 17
35 12 28 -6 34 -4 29 8 -3 9 5 25 20 39 22 20 24 26 12 36 -7 6 -16 30 -20 54
-3 23 -11 65 -17 92 -6 28 -12 71 -14 98 -2 26 -11 54 -20 63 -21 22 -110 154
-118 178 -7 16 -4 18 30 11 79 -15 203 -99 219 -148 4 -12 17 -44 30 -71 13
-28 24 -58 24 -68 0 -10 4 -18 9 -18 20 0 21 40 1 91 -38 103 -161 214 -314
285 -42 19 -76 39 -76 44 0 6 -7 10 -15 10 -7 0 -18 6 -22 14 -4 7 -15 16 -23
20 -8 3 2 4 23 1 24 -4 37 -2 37 5 0 15 31 6 103 -31 87 -44 60 -18 -39 37
-76 43 -83 49 -62 57 18 6 27 3 41 -14 15 -19 20 -20 28 -8 5 7 9 17 9 22 0 4
7 7 15 7 18 0 18 8 0 40 -9 15 -14 54 -15 101 0 92 10 104 94 117 l59 9 16
-39 c16 -38 17 -39 56 -33 51 8 56 14 62 67 6 49 10 52 120 87 34 11 73 26 85
32 13 7 30 13 40 14 22 2 71 35 64 43 -4 3 12 14 35 25 l41 18 47 -44 c53 -50
98 -65 133 -46 13 7 39 15 58 18 49 9 52 39 6 79 -40 35 -47 48 -17 32 22 -11
90 -14 115 -4 28 11 17 40 -24 68 -22 14 -43 26 -48 26 -13 0 -42 34 -42 50 0
9 10 11 36 7 27 -5 40 -1 56 15 17 17 20 29 15 75 -3 30 -13 63 -21 72 -19 21
-84 43 -91 30 -10 -15 -56 33 -49 53 6 21 1 22 -26 6 -16 -10 -28 -8 -71 10
-29 12 -54 20 -56 18 -2 -2 7 -15 21 -29 14 -15 26 -31 26 -36 0 -20 -20 -21
-40 -1 -11 11 -32 25 -47 31 -24 9 -25 8 -19 -18 4 -16 14 -33 21 -39 8 -6 12
-14 8 -17 -3 -4 0 -13 7 -22 7 -9 11 -18 8 -21 -8 -7 -228 188 -228 202 0 6
50 -27 91 -60 14 -12 -12 15 -58 59 -46 44 -83 86 -83 93 0 19 11 14 39 -17
14 -16 39 -32 56 -36 29 -6 29 -6 12 13 -17 19 -17 20 3 25 17 4 20 10 14 34
-4 15 -8 38 -8 50 0 12 -4 21 -9 20 -6 -1 -14 12 -18 29 -8 29 -14 32 -60 38
-38 5 -57 3 -75 -9 -22 -14 -23 -14 -17 2 3 10 12 27 20 38 7 11 13 26 13 35
0 13 -1 13 -10 0 -7 -11 -9 -7 -7 15 1 17 8 36 15 43 7 8 9 18 6 24 -4 6 -13
0 -21 -16 -14 -26 -33 -35 -33 -16 0 27 39 48 105 59 93 16 215 49 190 51 -11
1 -27 1 -35 0 -8 -1 -12 1 -9 5 4 3 58 19 120 35 290 72 375 105 458 175 36
29 89 105 75 105 -2 0 -63 -22 -136 -49 -200 -74 -365 -125 -553 -171 -93 -23
-177 -43 -186 -46 -13 -3 -18 5 -22 37 -5 38 -30 79 -48 79 -4 0 -10 -12 -14
-27 -3 -16 -19 -49 -34 -74 -26 -40 -35 -47 -71 -52 -24 -3 -54 -1 -67 4 -35
13 -112 10 -156 -5 -20 -8 -40 -10 -43 -5 -11 19 -45 9 -54 -16 -9 -23 -15
-25 -70 -25 -34 0 -71 5 -82 11 -17 9 -24 8 -32 -3 -6 -8 -32 -18 -58 -22 -27
-4 -48 -11 -48 -17 0 -5 -5 -9 -10 -9 -6 0 -8 11 -6 23 4 24 3 24 -72 19 -43
-2 -86 -10 -97 -16 -30 -19 -77 -26 -229 -36 -114 -7 -146 -5 -183 7 -38 13
-53 14 -98 3 -29 -7 -62 -9 -72 -5 -10 4 -31 9 -48 12 -16 3 -35 9 -42 15 -21
17 -117 38 -146 32 -19 -4 -29 -1 -33 10 -3 9 -15 16 -25 16 -18 0 -99 37
-109 50 -3 4 -14 10 -25 15 -41 17 19 17 66 0 61 -23 90 -29 88 -19 -3 20 2
23 29 13 15 -6 52 -13 83 -15 53 -3 57 -2 68 24 11 24 10 28 -8 41 -12 7 -21
20 -21 27 0 8 -4 14 -8 14 -16 0 -47 84 -48 130 0 25 -4 63 -9 85 -7 35 -6 38
7 28 8 -7 18 -10 21 -6 4 3 10 -8 13 -25 3 -17 13 -33 21 -36 11 -4 11 -10 3
-26 -6 -11 -8 -25 -5 -30 3 -5 1 -11 -4 -14 -12 -8 -2 -46 16 -68 9 -10 12
-22 7 -30 -6 -10 -4 -10 9 1 17 13 17 15 0 34 -17 19 -17 20 0 14 9 -4 17 -3
17 2 0 5 -9 11 -20 14 -21 5 -28 27 -9 27 5 0 7 5 3 12 -5 8 -2 9 9 5 24 -9
47 2 47 24 0 23 -21 69 -32 69 -4 0 -8 11 -8 24 0 31 -26 55 -33 29 -3 -15 -6
-13 -15 9 -15 36 -22 39 -57 20z m745 -857 c0 -18 -53 -105 -64 -105 -7 0 -30
-16 -52 -35 -35 -31 -37 -36 -21 -46 17 -10 17 -12 -1 -37 -29 -41 -35 -68
-18 -85 9 -9 12 -23 9 -37 -4 -15 0 -27 11 -35 36 -27 27 -245 -10 -245 -14 0
-39 23 -60 55 -12 18 -27 23 -85 28 -59 5 -73 10 -89 30 -12 15 -35 27 -57 31
-87 15 -90 19 -98 111 -4 47 -6 119 -5 162 1 43 1 87 0 98 -1 18 -2 18 -11 -4
-14 -35 -21 -20 -8 18 6 18 9 35 5 38 -3 4 -6 1 -6 -5 0 -7 -4 -12 -10 -12 -5
0 -10 9 -10 20 0 18 7 20 82 20 45 0 118 5 162 10 158 21 336 34 336 25z
m1105 -470 c28 -14 57 -25 65 -25 19 0 60 -28 60 -40 0 -20 -264 -170 -277
-157 -8 9 -21 79 -28 158 l-7 76 30 -5 c17 -2 38 1 49 7 28 16 53 13 108 -14z
m-1575 -272 c56 -10 226 -98 223 -115 -8 -50 -43 -113 -43 -78 0 5 -9 14 -21
20 -16 9 -25 8 -40 -6 -24 -22 -24 -36 1 -59 11 -10 17 -22 13 -28 -3 -5 -1
-7 4 -4 6 4 17 -1 24 -10 8 -9 50 -46 94 -83 81 -67 126 -130 139 -196 7 -31
-25 -209 -43 -241 -7 -14 -10 -14 -20 5 -8 16 -21 22 -45 22 -29 0 -36 5 -45
32 -10 29 -9 34 16 55 16 12 33 22 39 23 11 0 24 31 24 58 0 6 -10 12 -22 12
-17 0 -19 3 -10 12 26 26 1 91 -51 131 -18 13 -39 37 -47 53 -8 16 -26 40 -40
54 -14 14 -26 29 -27 33 -1 5 -17 18 -35 31 -18 12 -33 28 -33 36 0 20 -43 68
-75 85 -14 7 -38 24 -53 38 l-29 24 42 7 41 6 -20 29 c-27 37 -29 76 -3 66 9
-4 28 -10 42 -12z m288 -814 c23 -7 42 -18 42 -25 0 -7 -12 -66 -26 -131 -64
-290 -73 -340 -79 -421 -8 -106 -13 -134 -24 -127 -12 7 -41 -5 -41 -17 0 -6
7 -8 15 -4 10 3 15 -1 15 -13 0 -20 -38 -41 -75 -41 -30 0 -33 16 -4 25 24 8
37 39 40 97 1 24 11 61 22 83 22 45 57 192 57 241 0 18 4 34 10 36 5 2 13 24
16 51 6 40 4 47 -10 47 -14 0 -17 -8 -15 -32 2 -38 -9 -78 -22 -78 -5 0 -9 -7
-9 -15 0 -10 -10 -15 -26 -15 -26 0 -26 -2 -22 -47 3 -27 3 -42 0 -34 -4 11
-6 11 -13 0 -6 -9 -8 6 -5 39 2 29 8 58 14 65 10 12 22 93 22 150 1 20 7 30
25 37 14 5 25 12 25 15 0 4 -4 4 -9 0 -5 -3 -12 4 -16 15 -8 27 4 100 16 100
6 0 7 5 3 11 -4 7 0 9 12 6 11 -3 38 -11 62 -18z m-2253 -1439 c-4 -6 -1 -18
6 -26 16 -20 19 -62 7 -96 -7 -20 -7 -36 1 -56 9 -22 9 -34 -4 -60 -9 -17 -21
-34 -26 -38 -6 -4 -4 -13 7 -25 9 -10 14 -24 11 -32 -3 -8 1 -14 9 -14 8 0 14
4 14 8 0 13 34 2 44 -15 8 -12 7 -19 -4 -26 -12 -7 -12 -12 -3 -21 10 -10 14
-6 19 19 8 40 34 42 72 7 20 -19 24 -27 14 -37 -15 -15 3 -39 24 -31 8 3 14 0
14 -6 0 -6 -7 -11 -15 -11 -9 0 -15 -9 -15 -25 0 -27 10 -31 42 -14 22 12 40
3 19 -10 -16 -10 -7 -61 10 -61 6 0 7 5 3 11 -4 8 0 7 15 -1 16 -8 20 -17 16
-33 -4 -15 -3 -18 3 -9 7 11 10 11 15 -2 4 -10 -1 -20 -13 -26 -17 -9 -20 -7
-26 15 -3 14 -10 25 -14 25 -14 0 -7 -39 8 -45 10 -4 12 -13 7 -32 -5 -21 -4
-24 7 -16 10 8 18 8 31 -2 10 -7 14 -16 8 -19 -5 -3 -11 0 -14 6 -4 10 -7 11
-18 1 -27 -26 -45 -16 -42 25 3 36 2 36 -8 10 -11 -30 -29 -38 -29 -13 0 17
-16 20 -25 5 -10 -17 -25 -11 -25 10 0 14 -6 19 -22 17 -14 -1 -23 4 -26 14
-4 23 30 34 44 15 19 -26 40 -18 51 19 12 39 5 46 -15 15 -15 -24 -36 -16 -29
11 3 12 -3 25 -16 34 -13 9 -18 18 -12 23 6 4 9 14 9 22 -1 8 -2 26 -3 40 -1
21 -3 22 -12 10 -8 -11 -12 -12 -16 -2 -8 19 -23 14 -23 -9 0 -16 4 -19 20
-14 12 4 20 2 20 -5 0 -6 -8 -13 -17 -16 -10 -3 -29 -11 -43 -18 -14 -8 -30
-11 -37 -9 -13 5 -6 33 11 46 8 6 7 10 -1 13 -7 3 -9 12 -6 21 4 10 2 14 -4
10 -6 -4 -13 -1 -16 5 -2 7 -8 10 -12 6 -4 -4 0 -15 9 -24 21 -21 16 -38 -12
-42 -15 -2 -22 2 -22 13 0 8 -7 18 -15 22 -9 3 -15 15 -13 27 2 13 -2 20 -11
18 -7 -1 -19 3 -27 9 -21 17 -29 3 -10 -16 9 -9 16 -22 16 -30 0 -7 9 -15 19
-18 14 -3 18 -13 17 -38 -1 -32 -6 -35 -36 -30 -6 0 -8 12 -4 26 5 21 3 25
-14 25 -24 0 -37 16 -22 25 12 7 4 25 -11 25 -6 0 -10 -10 -9 -22 4 -44 0 -57
-14 -52 -7 3 -17 -3 -20 -13 -4 -10 -2 -19 4 -21 7 -3 1 -10 -12 -16 -18 -9
-22 -18 -20 -45 3 -24 0 -32 -10 -29 -7 3 -13 13 -13 24 0 10 -6 24 -13 30 -8
5 -12 17 -10 26 1 9 -6 24 -17 32 -11 9 -14 16 -7 16 6 0 20 -8 30 -18 20 -20
42 -18 42 4 0 8 4 14 10 14 6 0 6 9 0 24 -5 13 -6 27 -3 30 3 3 0 12 -7 21 -7
8 -8 15 -3 15 5 0 10 7 10 15 0 18 -14 20 -19 3 -2 -6 -11 -9 -20 -6 -11 4
-14 15 -11 32 5 27 17 34 28 16 10 -17 29 -11 44 13 10 14 15 53 15 111 1 77
-1 90 -16 94 -10 2 -18 9 -18 14 0 5 -4 6 -10 3 -5 -3 -10 -3 -10 2 0 9 198
111 218 112 7 1 10 -4 7 -9z m5 -709 c0 -14 44 -21 52 -8 4 6 10 8 15 4 4 -4
2 -16 -5 -27 -7 -12 -8 -21 -2 -25 15 -9 13 -95 -2 -95 -9 0 -8 -4 2 -10 11
-7 6 -10 -20 -9 -27 0 -30 2 -15 8 17 7 17 8 -8 15 -29 7 -74 -1 -93 -16 -8
-6 -13 3 -16 32 -2 23 0 44 4 46 4 3 8 11 8 19 0 8 5 26 11 42 7 19 12 24 18
14 6 -10 10 -9 14 3 7 17 37 23 37 7z m-880 -220 c12 -1 13 -3 1 -10 -10 -7
-10 -10 -1 -16 7 -4 16 -2 21 6 6 11 13 9 31 -7 22 -20 43 -31 62 -32 15 0 28
-31 22 -50 -6 -19 -56 -46 -56 -31 0 5 9 13 21 17 18 7 19 10 5 21 -9 7 -21 9
-28 5 -7 -5 -22 -8 -33 -7 -16 1 -16 1 -2 -3 26 -8 20 -46 -13 -77 -17 -16
-33 -40 -36 -53 -7 -28 -19 -31 -28 -6 -3 9 -9 23 -12 30 -4 9 0 12 11 10 10
-2 20 3 22 10 3 8 -6 12 -25 12 -29 0 -73 35 -53 41 6 2 14 23 17 46 5 38 4
41 -15 36 -12 -3 -21 -1 -21 5 0 5 19 9 43 8 47 -1 68 17 25 22 -16 2 -28 9
-28 16 0 11 16 12 70 7z"/>
<path d="M6671 2330 c-1 -3 -15 -45 -31 -94 -17 -49 -30 -101 -30 -116 0 -24
5 -29 38 -34 20 -4 46 -10 56 -13 18 -5 18 -6 -5 -19 -18 -10 -20 -13 -6 -14
9 0 17 -4 17 -10 0 -5 6 -7 14 -4 8 3 12 12 9 20 -7 18 34 18 102 0 63 -16 91
-33 104 -63 13 -29 9 -42 -54 -138 -67 -103 -134 -174 -160 -172 -12 1 -19 -3
-17 -12 1 -7 -5 -19 -15 -26 -16 -12 -19 -10 -24 23 -5 28 -7 19 -8 -35 -1
-94 -9 -116 -27 -73 -11 26 -17 30 -36 25 -13 -4 -27 -11 -32 -15 -12 -12 18
-40 42 -40 28 0 34 -12 13 -26 -29 -21 -73 -4 -85 33 -14 41 -26 52 -26 25 0
-13 -6 -22 -16 -22 -8 0 -12 -5 -9 -10 3 -6 -6 -15 -21 -20 -21 -8 -24 -14
-16 -22 15 -15 16 -42 2 -33 -6 4 -8 11 -5 16 10 15 -12 10 -30 -7 -12 -12
-14 -27 -9 -65 6 -42 4 -50 -12 -56 -23 -10 -32 -38 -9 -30 18 7 19 3 5 -24
-6 -10 -17 -19 -25 -19 -8 0 -15 -5 -15 -11 0 -6 7 -9 15 -5 9 3 15 0 15 -10
0 -9 -9 -18 -20 -21 -11 -3 -20 -10 -20 -15 0 -5 9 -6 21 -3 18 6 20 4 14 -14
-5 -18 -2 -21 22 -21 40 1 107 17 156 39 23 10 55 23 71 30 25 10 28 15 23 49
-3 20 -8 47 -12 60 -9 28 9 29 32 2 25 -29 44 -25 128 28 69 43 77 51 91 97 9
28 34 71 56 95 21 25 51 66 65 93 24 44 50 66 36 32 -5 -14 0 -13 30 2 26 13
31 20 21 26 -8 4 -19 5 -24 2 -6 -3 -10 -4 -10 -1 0 11 46 84 77 121 42 50 49
75 29 113 -14 26 -14 31 -1 42 19 16 19 31 -2 92 -15 43 -25 54 -65 74 -26 13
-49 28 -52 33 -8 13 -65 41 -83 41 -7 0 -13 5 -13 11 0 6 -7 9 -15 6 -8 -4
-17 -2 -20 2 -4 8 -45 23 -45 17 0 -2 8 -12 18 -23 23 -27 60 -45 74 -37 7 4
8 3 4 -4 -4 -6 5 -17 21 -26 34 -17 79 -64 70 -72 -3 -3 -32 5 -64 19 -32 13
-85 34 -118 47 -33 12 -67 31 -76 41 -19 20 -30 16 -22 -9 3 -12 -2 -10 -15 6
-11 12 -25 22 -32 22 -7 0 -9 8 -5 20 7 23 -20 70 -28 48 -3 -8 -9 -4 -15 12
-6 14 -11 23 -11 20z"/>
<path d="M8080 1866 c0 -99 -3 -106 -52 -106 -43 0 -10 -9 52 -15 73 -6 210
-21 315 -35 39 -5 105 -12 148 -15 62 -6 77 -10 77 -23 0 -13 2 -14 9 -3 10
16 96 11 401 -23 74 -9 162 -18 195 -21 33 -3 76 -8 95 -10 19 -3 100 -12 180
-20 272 -29 325 -35 475 -55 83 -11 176 -20 208 -20 l57 0 0 129 0 130 -27 4
-28 4 28 2 c19 1 27 6 27 20 0 21 -40 28 -195 33 l-70 3 3 -45 c11 -182 10
-202 -6 -221 -9 -10 -22 -19 -28 -19 -11 0 -14 23 -30 213 -8 90 3 83 -148 92
l-98 6 6 -91 c7 -83 6 -90 -11 -90 -16 -1 -17 -2 -2 -13 14 -10 17 -34 10 -68
0 -4 -10 -9 -20 -12 -21 -5 -31 24 -31 89 0 26 -5 33 -22 37 -22 4 -22 4 -2 6
20 1 21 5 16 69 -2 37 -5 68 -6 69 -7 8 -210 23 -216 16 -4 -4 -4 -35 0 -68
11 -83 12 -167 1 -161 -5 3 -11 -4 -14 -15 -3 -12 -10 -18 -16 -15 -6 4 -31 7
-56 8 -25 0 -45 4 -45 8 0 5 -8 6 -19 3 -10 -3 -22 0 -26 7 -5 8 -10 8 -20 0
-8 -7 -20 -8 -26 -4 -7 4 -35 9 -63 11 -28 2 -54 7 -58 11 -3 4 -9 59 -13 122
-4 63 -8 116 -9 116 0 1 -39 3 -85 5 l-83 4 -2 -107 c-1 -70 -5 -111 -13 -119
-20 -20 -27 -2 -31 79 -3 53 -8 81 -18 89 -10 7 -12 13 -5 18 6 3 11 15 11 26
0 14 -7 19 -27 19 -16 0 -52 3 -81 7 l-53 6 5 -91 c3 -70 1 -94 -10 -103 -8
-6 -14 -19 -14 -27 0 -10 -3 -12 -9 -7 -5 6 -13 57 -16 115 -4 58 -9 107 -10
108 -2 2 -36 6 -77 9 l-73 5 3 -90 c3 -85 -6 -132 -26 -132 -5 0 -9 19 -11 43
-6 127 -10 179 -13 182 -2 2 -32 5 -68 7 l-65 3 0 -60 c1 -33 -4 -63 -10 -67
-6 -5 -5 -8 3 -8 8 0 10 -5 6 -12 -5 -7 -8 -23 -8 -37 -1 -13 -7 -26 -13 -28
-9 -3 -13 9 -13 39 0 25 -3 48 -7 52 -4 4 -6 25 -4 46 2 28 -1 40 -11 40 -10
0 -10 2 1 9 26 17 -1 31 -60 31 l-59 0 0 -94z"/>
<path d="M8089 1709 c-5 -13 -11 -55 -18 -129 -4 -47 -9 -75 -9 -63 -3 29 -22
40 -28 16 -4 -15 -12 -19 -30 -15 -19 3 -23 1 -18 -12 4 -10 18 -16 35 -16 16
0 29 -5 29 -11 0 -7 7 -17 16 -24 14 -10 15 -19 7 -51 -9 -37 -11 -39 -44 -36
-42 4 -75 33 -83 73 -3 18 -12 29 -23 30 -16 0 -15 2 2 9 19 8 19 9 -2 9 -12
1 -28 -6 -37 -14 -8 -8 -21 -15 -30 -15 -26 0 -66 -22 -59 -33 3 -6 1 -7 -6
-3 -7 4 -41 -2 -76 -15 -71 -25 -89 -49 -83 -110 l3 -34 97 -21 c54 -12 118
-25 143 -28 44 -7 46 -6 43 16 -2 13 -7 28 -10 34 -11 17 -3 20 46 16 43 -4
57 -22 17 -22 -29 0 -34 -49 -7 -61 23 -10 399 -97 458 -106 l37 -6 -3 38 c-3
42 5 48 54 36 l35 -8 -32 -13 c-26 -9 -33 -17 -32 -38 l1 -27 8 25 c7 23 8 23
9 3 1 -12 5 -24 10 -28 13 -7 229 -55 253 -55 13 0 18 7 18 29 0 17 -4 33 -10
36 -29 18 24 26 100 15 8 -1 -34 -24 -45 -25 -16 0 -19 -64 -3 -69 7 -2 72
-16 143 -31 72 -15 138 -29 148 -32 26 -7 24 61 -3 80 -27 19 -10 25 53 19 54
-5 60 -25 9 -30 -29 -3 -32 -6 -32 -37 0 -32 3 -35 38 -40 92 -16 241 -49 277
-62 22 -9 54 -17 70 -18 17 -2 75 -16 130 -31 99 -26 116 -30 228 -55 31 -7
57 -17 57 -21 0 -4 6 -8 14 -8 18 0 26 -64 26 -211 0 -73 -4 -119 -10 -119
-17 0 -25 5 -22 12 4 15 -11 8 -31 -14 l-19 -23 7 25 c7 23 6 24 -9 11 -11 -9
-15 -23 -12 -37 4 -13 2 -26 -4 -29 -5 -3 -10 3 -10 14 0 23 -15 28 -26 9 -10
-16 -22 17 -23 65 -2 66 -13 77 -83 77 l-60 0 4 -80 5 -80 -34 0 c-19 0 -51 9
-73 20 -45 23 -43 15 -60 225 -7 77 -14 142 -16 144 -2 3 -2 -75 2 -172 4 -99
3 -177 -2 -177 -5 0 -41 10 -81 22 l-72 23 -5 70 c-19 243 -24 287 -34 297 -7
7 -13 10 -16 7 -2 -2 -1 -84 3 -181 l6 -177 -25 6 c-55 13 -115 36 -122 47 -4
6 -8 24 -8 39 0 18 -4 26 -11 21 -6 -3 -8 -17 -5 -29 3 -13 3 -26 -2 -28 -4
-3 -34 6 -67 19 -33 14 -88 31 -122 39 -106 25 -131 39 -135 76 -2 18 -9 34
-17 37 -10 3 -12 -3 -6 -26 7 -35 -6 -48 -35 -32 -16 9 -83 30 -211 67 -14 4
-16 -4 -11 -63 7 -95 -14 -75 -23 22 -4 41 -10 72 -13 70 -8 -9 -33 15 -26 25
6 10 -26 68 -38 70 -20 3 -24 5 -37 13 -7 5 -42 11 -77 14 l-64 5 0 -32 c0
-26 -3 -31 -17 -27 -10 3 -54 15 -98 26 -44 12 -114 35 -155 50 -41 15 -93 31
-115 35 -22 4 -53 12 -70 19 -16 7 -43 18 -59 25 -21 9 -27 17 -23 31 3 11 1
17 -4 14 -6 -3 -15 8 -22 25 -12 32 -31 46 -50 34 -7 -4 -24 -6 -39 -4 -19 2
-28 -2 -28 -12 0 -21 -30 -44 -38 -30 -4 6 -18 11 -32 11 -14 0 -47 5 -74 11
-57 14 -70 9 -26 -9 35 -14 38 -25 10 -33 -11 -3 -20 -1 -20 3 0 10 -56 30
-86 30 -13 0 -24 4 -24 9 0 6 -12 12 -27 14 -16 2 3 2 42 0 68 -4 69 -4 48 14
-20 17 -22 30 -24 146 -1 70 0 129 2 131 2 3 68 -10 147 -28 l142 -33 0 38 c0
21 -5 41 -11 44 -19 12 -69 -16 -70 -39 -1 -20 -2 -20 -6 -1 -8 30 -21 43 -54
50 -19 4 -31 14 -35 30 -8 32 -35 41 -54 17 -8 -11 -26 -22 -40 -25 -14 -4
-47 -27 -75 -53 -27 -25 -69 -59 -93 -76 -47 -32 -47 -43 -2 -53 17 -4 30 -13
30 -20 0 -7 5 -15 11 -17 5 -2 7 -11 4 -20 -7 -17 -45 -14 -45 4 0 6 -12 8
-27 4 -16 -4 -56 -6 -90 -6 l-63 1 0 -36 c0 -29 5 -37 28 -46 15 -6 46 -11 70
-11 28 0 45 -5 49 -14 3 -8 9 -14 15 -14 5 0 7 4 4 9 -6 10 35 2 44 -8 14 -16
55 -32 98 -37 76 -9 92 -14 92 -28 0 -8 7 -16 15 -20 8 -3 15 -9 14 -13 -3
-20 2 -27 11 -13 6 10 8 3 3 -23 -3 -21 -2 -37 3 -36 15 3 74 -13 79 -22 3 -4
1 -10 -5 -14 -5 -3 -10 -11 -10 -16 0 -6 4 -8 9 -4 5 3 12 1 16 -5 4 -6 11 -8
16 -4 6 3 16 -1 22 -8 7 -8 38 -23 70 -32 31 -10 57 -22 57 -27 0 -5 11 -9 25
-9 14 0 33 -4 43 -10 9 -5 33 -15 52 -23 86 -35 96 -40 78 -44 -19 -5 -25 -23
-8 -23 6 0 10 -4 10 -9 0 -13 -53 -21 -70 -10 -12 8 -12 9 4 7 10 -2 21 3 23
9 6 18 -27 29 -37 13 -9 -15 -30 -5 -30 15 0 21 -19 28 -36 14 -13 -11 -13
-14 8 -26 22 -13 20 -14 -17 -8 -38 5 -39 5 -20 -10 13 -11 30 -14 49 -11 20
4 27 2 23 -7 -3 -8 11 -13 47 -15 28 -2 64 -9 80 -17 15 -8 32 -12 37 -9 5 3
9 0 9 -6 0 -6 5 -8 11 -4 12 7 31 -15 23 -28 -3 -4 -11 -8 -17 -8 -7 0 -6 4 3
10 21 13 3 13 -22 -1 -15 -8 -23 -8 -32 1 -8 8 -6 9 9 4 l20 -7 -20 21 c-21
22 -95 41 -95 25 0 -6 15 -15 33 -21 l32 -12 -32 5 c-18 2 -33 0 -33 -5 0 -6
9 -10 19 -10 11 0 23 -9 26 -20 3 -11 11 -20 17 -20 6 0 5 7 -3 17 -12 15 -12
16 4 10 10 -4 35 -8 55 -8 l37 -2 -40 -7 c-35 -7 -32 -8 25 -8 71 1 125 -18
235 -82 l60 -35 -65 -6 -65 -6 86 -1 c85 -2 86 -2 238 -78 83 -41 149 -79 146
-85 -4 -5 41 -9 114 -9 l119 0 69 -46 c37 -26 106 -62 153 -81 47 -19 89 -39
95 -44 5 -5 226 -9 542 -9 l533 0 0 84 0 84 -36 7 c-40 7 -124 45 -124 56 0 8
74 -5 113 -20 16 -6 33 -11 38 -11 10 0 13 638 3 664 -3 9 -14 16 -23 16 -22
0 -41 19 -35 35 3 7 -8 17 -27 24 -23 8 -30 15 -25 27 5 13 2 15 -17 10 -13
-3 -27 -2 -31 2 -10 9 -116 10 -110 0 3 -4 1 -8 -5 -8 -11 0 -16 17 -25 84 -3
21 -6 40 -8 41 -2 1 -22 5 -46 9 l-43 6 3 -57 c3 -52 5 -58 26 -61 13 -2 32
-12 42 -22 9 -9 24 -20 31 -23 12 -5 12 -7 -1 -16 -8 -5 -17 -6 -20 -1 -3 5
-19 11 -35 14 -16 3 -33 13 -38 22 -8 14 -11 14 -19 3 -7 -11 -11 -11 -15 -1
-2 7 -14 17 -25 23 -15 8 -19 8 -14 0 4 -6 1 -11 -6 -11 -9 0 -9 -3 2 -10 23
-15 -10 -13 -62 4 -24 8 -66 20 -95 27 -29 7 -49 17 -46 22 4 6 -3 8 -16 4
-13 -3 -44 1 -69 8 -26 8 -60 17 -75 20 -15 3 -25 9 -22 14 2 5 -2 11 -10 15
-24 9 -20 111 5 136 11 11 28 20 38 21 11 1 9 4 -8 9 l-25 8 28 1 c15 1 27 -3
27 -8 0 -11 121 -32 165 -29 17 1 50 0 75 -2 43 -3 42 -4 -20 -10 -57 -6 -50
-7 52 -8 104 -2 117 -4 111 -18 -5 -14 -3 -15 17 -4 13 7 38 10 59 6 20 -3 50
-8 66 -11 17 -3 45 -7 63 -10 17 -3 32 -10 32 -14 0 -5 26 -8 58 -7 31 0 72
-2 90 -6 l32 -7 0 169 0 170 -36 0 c-19 0 -67 5 -105 11 -98 15 -129 5 -108
-36 5 -10 5 -59 -1 -177 -2 -51 -7 -68 -17 -68 -8 0 -12 3 -10 8 3 4 -2 52 -9
107 -7 55 -13 118 -14 141 l0 41 -100 12 c-134 15 -157 14 -164 -5 -9 -24 -7
-36 5 -28 8 4 8 1 1 -12 -10 -20 -5 -77 7 -70 3 2 6 -6 6 -19 0 -13 -3 -21 -7
-19 -4 3 -6 -8 -4 -23 1 -15 0 -40 -3 -55 -10 -46 -28 -18 -34 52 -4 36 -9 97
-12 136 l-7 71 -101 11 c-156 18 -141 32 -132 -113 4 -79 3 -125 -3 -125 -5 0
-12 23 -16 50 -9 68 -16 86 -27 68 -6 -9 -9 -5 -9 13 0 32 -24 67 -34 50 -5
-8 -13 -8 -27 -1 -18 10 -19 8 -13 -27 10 -63 8 -73 -12 -73 -13 0 -14 3 -4
15 16 19 6 43 -22 54 -30 11 -84 -12 -80 -33 2 -9 -4 -16 -11 -16 -9 0 -18 15
-22 38 -4 21 -10 31 -13 22 -5 -15 -21 -30 -34 -30 -3 0 -6 34 -6 75 1 42 -3
80 -8 84 -5 5 -52 12 -105 16 l-96 7 1 -121 c1 -66 -2 -121 -6 -121 -5 0 -19
139 -22 219 -1 29 -25 37 -123 44 -64 4 -71 0 -63 -38 8 -41 8 -50 -1 -61 -7
-8 -7 -19 -1 -31 13 -25 2 -117 -12 -102 -5 5 -15 127 -16 191 0 52 10 47
-128 64 l-53 6 6 -43 c4 -24 11 -45 16 -47 19 -7 8 -22 -16 -22 -21 0 -25 5
-26 33 -1 17 -1 40 0 50 3 22 -30 34 -100 39 l-53 3 0 -62 c1 -35 -3 -63 -7
-63 -5 0 -7 -6 -5 -12 3 -7 7 -26 11 -42 5 -25 4 -27 -9 -14 -10 10 -17 45
-20 104 -4 54 -11 91 -19 96 -6 4 -29 8 -49 8 -20 0 -43 3 -52 6 -9 3 -17 5
-17 3z m355 -192 c3 -17 7 -57 7 -89 2 -61 19 -107 19 -50 0 17 3 32 8 32 4 0
7 -21 7 -47 0 -42 3 -48 23 -51 25 -4 25 -2 13 51 -9 37 -8 37 20 35 22 -2 26
-5 17 -16 -9 -10 -9 -15 -1 -20 6 -4 13 -21 15 -37 2 -22 9 -31 26 -33 21 -3
32 -22 12 -22 -6 0 -28 -11 -50 -25 -31 -20 -40 -22 -40 -10 0 10 -10 15 -35
15 -33 0 -34 -1 -33 -35 2 -52 -6 -51 -34 4 -14 30 -19 47 -11 44 7 -3 13 1
13 8 0 11 3 11 11 -1 7 -11 8 -1 3 35 -4 28 -8 51 -9 53 -1 1 -19 3 -39 4 -20
1 -36 4 -36 7 0 4 -13 8 -30 9 -29 2 -30 1 -31 -40 -1 -28 -3 -34 -6 -18 -3
14 -10 31 -15 38 -7 8 -7 12 1 12 7 0 11 6 10 13 -1 6 -1 26 0 42 2 27 3 28
12 10 16 -32 43 -45 75 -35 28 8 29 8 4 10 -14 1 -34 6 -45 11 -14 7 -2 8 42
5 60 -4 63 -3 59 17 -15 74 -16 107 -2 107 8 0 16 -14 20 -33z m-256 -975 c2
-7 13 -12 24 -12 11 0 33 -9 49 -21 16 -11 36 -18 44 -15 7 2 25 -4 38 -15 14
-10 34 -19 44 -19 10 0 29 -7 41 -16 12 -8 32 -17 43 -19 33 -7 33 -12 -2 -29
-43 -21 -48 -20 -59 9 -9 23 -13 25 -51 19 -40 -7 -42 -6 -36 16 5 21 3 22
-29 17 -42 -7 -65 0 -58 18 6 16 -31 26 -44 13 -15 -15 -45 -1 -39 16 8 20
-20 28 -43 14 -23 -15 -44 0 -35 25 5 12 19 15 58 13 29 -1 52 -7 55 -14z"/>
<path d="M25 1670 c-8 -12 1486 -12 1506 1 8 5 -308 9 -743 9 -484 0 -759 -4
-763 -10z"/>
<path d="M7002 1537 c-1 -36 -6 -56 -12 -52 -6 3 -13 -2 -17 -12 -4 -10 -11
-21 -17 -25 -10 -7 6 -12 77 -23 21 -3 46 -9 54 -12 12 -5 15 -2 10 10 -4 11
-1 17 8 17 14 0 18 -34 19 -177 0 -13 2 -23 4 -23 2 0 31 21 65 47 67 50 117
99 117 114 0 5 7 9 15 9 8 0 19 9 25 20 10 18 8 20 -25 20 -22 0 -34 4 -30 10
3 6 1 10 -4 10 -6 0 -11 7 -11 15 0 22 -17 18 -23 -5 -3 -12 -14 -20 -26 -20
-19 0 -21 6 -21 54 0 30 -5 58 -11 62 -8 5 -9 -18 -4 -83 l7 -90 -26 -5 c-23
-5 -26 -2 -26 21 0 14 -5 33 -10 41 -9 13 -11 13 -19 1 -8 -12 -12 -13 -25 -2
-12 11 -14 17 -5 27 6 8 7 14 2 14 -5 0 -10 17 -11 37 -4 47 -12 57 -12 15 0
-22 -5 -32 -15 -32 -8 0 -15 -7 -15 -16 0 -9 -6 -14 -12 -12 -7 3 -16 27 -19
54 l-6 49 -1 -58z"/>
<path d="M549 1575 c0 0 -2 -13 -5 -30 -3 -28 -3 -29 8 -7 14 27 24 28 40 2
11 -18 24 -20 110 -20 84 0 97 2 101 18 4 16 5 16 6 -1 1 -16 15 -18 169 -17
92 1 172 1 177 0 33 -7 205 1 200 9 -3 5 -1 12 5 16 6 3 13 0 16 -9 4 -11 11
-12 35 -4 28 9 29 11 12 23 -13 9 -117 12 -393 14 -206 1 -399 3 -427 5 -29 1
-53 2 -54 1z"/>
<path d="M4221 1434 c-1 -26 -17 -40 -54 -49 -23 -6 -27 -4 -27 15 0 12 -4 18
-11 15 -6 -4 -8 -13 -5 -21 7 -20 -14 -76 -28 -71 -6 2 -10 12 -10 21 1 9 -4
16 -12 16 -20 0 -17 -17 6 -40 11 -11 20 -31 20 -45 0 -16 6 -25 16 -25 8 0
13 -4 10 -9 -17 -26 84 -157 112 -146 8 3 19 0 24 -7 6 -10 10 -10 16 -1 10
16 238 31 229 16 -4 -6 -28 -8 -55 -5 -38 3 -52 0 -67 -14 -14 -14 -34 -19
-79 -20 -54 -1 -61 -3 -58 -20 10 -52 92 -148 142 -165 16 -6 33 -22 40 -38 6
-15 32 -50 58 -79 l47 -51 188 -2 c103 -1 190 -5 193 -10 3 -5 11 -9 18 -9 11
0 14 26 15 108 2 96 0 110 -19 130 -20 21 -14 32 7 11 7 -7 9 -2 8 18 -3 49
-5 52 -20 47 -8 -4 -15 -1 -15 5 0 6 -7 11 -16 11 -8 0 -12 5 -9 11 4 6 9 8
11 6 3 -2 18 7 34 21 22 19 30 35 30 59 0 21 -5 33 -14 33 -23 0 -126 49 -132
63 -2 6 -24 13 -49 14 -36 2 -121 26 -274 79 -8 2 -11 7 -8 10 8 8 169 -17
181 -28 14 -11 104 -10 111 2 6 9 -16 15 -39 11 -24 -5 -172 32 -179 44 -8 14
-73 15 -95 1 -7 -4 -12 -3 -12 2 0 5 -25 12 -56 15 -30 3 -61 10 -67 16 -7 5
-30 11 -52 13 -35 3 -41 7 -46 33 -5 21 -7 24 -8 9z"/>
<path d="M60 1368 c-11 -12 -20 -17 -20 -11 0 6 -9 13 -20 16 -18 5 -20 0 -20
-39 0 -26 5 -44 11 -44 8 0 8 -5 -1 -15 -15 -18 -5 -89 11 -79 6 3 8 13 5 21
-4 11 -1 13 14 8 11 -4 20 -2 20 4 0 6 -9 11 -19 11 -28 0 -35 17 -12 30 12 6
18 16 15 25 -6 16 4 19 30 9 8 -3 13 -11 10 -17 -2 -7 1 -19 6 -27 9 -13 11
-13 20 0 8 12 10 11 10 -7 0 -13 -4 -23 -10 -23 -5 0 -10 -6 -10 -14 0 -8 -6
-17 -12 -20 -7 -3 11 -4 41 -3 36 1 56 -2 58 -10 3 -7 -2 -13 -11 -13 -20 0
-20 -17 -1 -37 19 -18 22 -16 29 21 7 40 45 62 61 36 3 -5 11 -10 16 -10 6 0
7 5 3 12 -5 8 0 9 17 5 13 -4 31 -7 39 -7 13 0 13 -1 0 -10 -13 -9 -13 -12 3
-21 20 -12 23 -29 3 -29 -7 0 -16 -9 -19 -19 -3 -14 -1 -18 9 -14 8 3 14 0 14
-5 0 -7 14 -9 35 -5 30 5 35 3 35 -15 0 -11 6 -23 13 -25 7 -3 5 -6 -5 -6 -10
-1 -18 4 -18 9 0 6 -4 10 -10 10 -6 0 -6 -9 0 -26 12 -30 4 -48 -16 -40 -8 3
-14 -1 -14 -9 0 -8 5 -15 10 -15 6 0 10 -7 10 -15 0 -19 10 -19 38 1 12 8 19
20 16 26 -4 6 -9 5 -15 -3 -7 -11 -11 -11 -21 -1 -10 10 -8 14 10 18 12 4 20
10 17 14 -7 11 18 29 35 27 8 -2 21 -6 28 -11 7 -4 27 -6 45 -4 33 3 33 3 36
-52 0 -16 6 -30 12 -30 5 0 7 5 4 10 -3 6 1 10 9 10 10 0 16 9 16 25 0 14 5
25 10 25 6 0 10 -5 10 -11 0 -5 5 -7 12 -3 8 5 6 11 -5 19 -12 9 -14 14 -5 23
9 9 8 12 -4 12 -9 0 -19 -4 -23 -10 -8 -13 -35 -1 -35 15 0 7 -5 15 -12 17 -7
3 -9 12 -4 23 6 18 9 17 30 -10 19 -24 26 -27 38 -17 19 15 28 6 28 -29 0 -15
5 -31 10 -34 7 -4 6 -13 -1 -27 -8 -15 -8 -19 0 -14 16 10 14 -1 -6 -31 -17
-26 -17 -26 5 -14 19 10 22 9 22 -5 0 -10 -5 -14 -15 -10 -17 6 -21 -9 -4 -19
20 -13 59 5 65 30 3 14 10 22 15 19 14 -8 11 -62 -4 -67 -6 -3 -2 -6 11 -6 12
-1 22 5 22 12 1 7 6 5 14 -5 14 -19 36 -24 36 -9 0 6 -5 13 -10 16 -7 4 -7 12
0 25 13 25 13 33 -3 27 -7 -2 -18 6 -23 18 -10 20 -8 24 10 30 11 4 24 7 28 6
3 0 11 13 17 30 9 26 8 30 -4 25 -9 -3 -15 1 -15 10 0 8 -4 12 -10 9 -5 -3
-10 -15 -10 -26 0 -11 -7 -19 -16 -19 -12 0 -15 6 -10 24 5 22 3 23 -27 21
-17 -2 -35 -3 -39 -4 -12 -2 -9 -51 2 -51 6 0 10 -7 10 -15 0 -8 5 -15 10 -15
6 0 10 -5 10 -12 0 -6 -8 -4 -19 6 -10 9 -24 14 -32 11 -11 -4 -15 4 -16 32
-4 64 -7 78 -23 85 -13 5 -12 7 2 7 23 1 20 41 -3 41 -10 0 -19 -6 -22 -12 -4
-10 -7 -10 -18 0 -11 10 -11 12 2 12 12 0 12 2 -1 11 -11 8 -12 12 -3 16 15 6
17 33 3 33 -5 0 -16 -15 -24 -32 -8 -18 -15 -26 -15 -18 -2 30 -21 39 -49 24
-22 -11 -30 -11 -48 1 -23 14 -64 10 -76 -9 -5 -7 -8 -4 -8 7 0 14 -5 17 -20
12 -16 -5 -20 -2 -20 19 0 25 15 36 22 16 2 -6 9 -1 16 10 7 12 8 20 2 20 -5
0 -10 -6 -10 -12 0 -9 -3 -8 -10 2 -7 11 -3 18 13 27 19 10 20 12 5 18 -9 4
-25 2 -36 -4 -16 -8 -21 -7 -26 5 -5 13 -2 15 14 11 12 -3 20 0 20 7 0 14 -68
12 -83 -3 -11 -11 -39 -3 -31 10 3 5 -6 9 -20 9 -32 0 -45 -20 -14 -21 15 0
18 -3 8 -6 -8 -3 -17 -9 -20 -13 -9 -13 -53 -23 -46 -11 4 6 0 11 -9 11 -9 0
-13 5 -9 11 4 8 -1 9 -16 4 -15 -5 -20 -4 -16 4 4 6 14 11 22 11 8 0 14 7 14
16 0 11 6 14 23 9 21 -6 21 -6 -3 14 -14 11 -20 21 -15 22 13 1 -35 17 -57 18
-10 1 -26 -9 -38 -21z"/>
<path d="M1036 1353 c-4 -4 -14 -8 -22 -9 -32 -5 -44 -14 -44 -34 0 -21 14
-27 25 -10 4 6 11 8 16 4 5 -3 7 -9 4 -14 -3 -4 2 -7 12 -6 17 3 34 35 26 49
-2 4 1 7 7 7 8 0 10 -9 6 -24 -4 -18 -1 -28 11 -35 17 -10 17 -10 1 -11 -14 0
-18 -9 -18 -41 0 -24 4 -38 10 -34 6 3 10 1 10 -4 0 -6 -7 -11 -15 -11 -11 0
-15 -11 -15 -41 l0 -41 45 4 44 3 -5 -33 c-3 -19 -3 -39 -1 -46 7 -17 77 -8
77 10 0 8 -5 14 -12 14 -7 0 -5 5 4 13 12 9 18 39 23 117 4 57 8 108 11 111 6
10 -17 25 -48 33 -17 4 -28 2 -28 -4 0 -5 -9 -1 -20 10 -11 11 -28 20 -37 21
-10 0 -27 2 -39 4 -12 3 -24 1 -28 -2z"/>
<path d="M5132 1333 c2 -9 14 -20 28 -24 l25 -6 -27 -13 c-16 -7 -28 -19 -28
-26 0 -18 -41 -45 -54 -35 -6 5 -23 11 -38 13 -22 4 -28 1 -28 -13 0 -11 5
-19 10 -19 18 0 10 -29 -10 -35 -13 -4 -20 -15 -20 -31 0 -21 5 -24 35 -24 40
0 46 -16 11 -30 -36 -13 -44 -51 -51 -242 -3 -105 -1 -138 8 -138 7 0 97 -1
200 -3 l188 -2 -2 135 c-1 74 -5 161 -8 193 -4 32 -4 60 -1 62 3 2 5 30 4 62
-2 32 -3 88 -3 124 l-1 67 -40 -10 -39 -10 -3 -83 -3 -83 -37 15 -38 15 0 79
0 79 -41 0 c-33 0 -40 -3 -37 -17z m158 -279 c0 -39 -2 -43 -17 -35 -10 5 -39
17 -65 26 -27 9 -48 21 -48 26 0 6 -4 8 -9 5 -13 -9 -47 37 -45 62 1 12 2 28
3 36 1 10 26 1 91 -31 l90 -44 0 -45z"/>
<path d="M300 1035 c0 -9 -10 -15 -26 -15 -14 0 -23 4 -19 10 3 6 1 10 -4 10
-6 0 -11 -6 -11 -12 0 -7 -11 -21 -24 -30 -23 -16 -24 -16 -29 1 -2 11 -14 24
-26 30 -17 9 -20 9 -15 -3 3 -9 -3 -17 -15 -21 -25 -8 -27 -21 -4 -29 10 -4
14 -4 10 0 -7 7 10 34 23 34 17 0 1 -44 -18 -51 -12 -5 -22 -14 -22 -20 0 -9
-4 -8 -14 0 -12 10 -16 8 -22 -11 -4 -13 -7 -27 -6 -31 2 -5 -7 -11 -18 -14
-11 -3 -20 -12 -20 -19 0 -8 -10 -14 -22 -15 -13 0 -17 -3 -10 -6 6 -2 9 -10
5 -16 -4 -6 0 -8 10 -4 11 4 17 1 17 -7 0 -8 -9 -16 -20 -19 -20 -5 -20 -12
-18 -128 l3 -123 65 -14 c46 -10 65 -11 68 -3 2 6 19 18 37 27 19 9 36 23 38
32 3 12 5 11 6 -5 0 -12 -7 -27 -16 -32 -10 -6 -13 -11 -8 -11 6 0 16 5 22 11
9 9 16 8 28 -5 18 -18 31 -20 39 -8 3 5 28 10 57 11 28 1 59 6 68 11 10 5 21
4 31 -3 22 -18 205 -11 191 7 -9 10 7 15 76 21 49 4 118 8 156 8 37 0 67 4 67
9 0 5 -10 9 -22 8 -40 -4 -54 2 -28 10 25 8 24 8 -5 9 -20 1 -26 4 -17 10 10
6 8 10 -10 15 -19 5 -20 8 -8 15 8 6 11 13 7 17 -4 4 -15 0 -25 -9 -24 -22
-31 -21 -25 3 4 14 0 20 -11 20 -10 0 -13 -5 -9 -16 5 -13 3 -15 -13 -7 -10 6
-25 8 -31 6 -24 -9 -13 12 13 24 24 11 53 8 64 -8 3 -4 14 -1 25 8 14 10 15
14 5 12 -8 -1 -30 2 -48 6 -41 10 -57 30 -16 22 16 -3 24 -4 17 -1 -7 3 -9 12
-6 19 3 8 -2 22 -12 31 -15 15 -17 15 -30 -2 -8 -11 -15 -25 -15 -32 0 -7 -4
-10 -10 -7 -5 3 -7 0 -4 -8 3 -8 -2 -17 -12 -21 -12 -4 -15 -2 -11 9 4 8 1 17
-5 21 -7 4 -6 9 3 15 10 6 11 9 2 9 -7 0 -13 5 -13 11 0 7 10 9 25 5 15 -4 25
-2 25 4 0 6 -4 9 -9 5 -5 -3 -12 -1 -15 4 -3 5 -15 7 -26 4 -14 -4 -20 -1 -18
8 2 8 -5 14 -17 14 -11 0 -25 3 -32 8 -18 12 -44 -3 -38 -23 4 -14 1 -16 -20
-13 -15 3 -22 10 -18 17 3 6 -2 4 -13 -5 -23 -20 -54 -21 -47 -2 3 7 2 13 -2
13 -9 0 -36 -27 -36 -37 -2 -22 -9 -13 -9 11 0 20 7 29 28 38 15 6 35 10 45 9
9 -1 17 3 17 9 0 6 8 9 18 6 16 -6 19 0 18 44 -1 30 -7 56 -17 65 -13 14 -15
10 -13 -34 3 -52 -13 -78 -40 -68 -7 3 -24 -2 -37 -11 -16 -11 -24 -12 -27 -4
-2 7 -9 12 -16 12 -15 0 -42 -47 -33 -56 11 -11 -21 -34 -38 -28 -9 4 -12 10
-7 13 5 3 12 16 16 28 5 16 2 23 -11 26 -14 4 -13 5 5 6 12 0 22 6 22 11 0 6
11 10 25 10 14 0 25 3 25 8 0 6 -61 9 -97 4 -7 -1 -19 -14 -26 -28 -8 -16 -17
-22 -21 -16 -3 6 -2 13 4 17 13 8 13 25 -1 25 -5 0 -8 -3 -5 -8 2 -4 -3 -16
-11 -27 -15 -19 -15 -18 -8 10 14 60 14 65 -2 65 -13 0 -13 3 -3 15 11 13 10
18 -5 29 -13 9 -15 15 -6 20 14 9 41 -11 41 -29 0 -7 14 -15 30 -17 17 -3 30
-1 30 4 0 4 -10 8 -22 8 -20 0 -21 1 -3 20 10 11 15 20 10 20 -4 0 -2 7 5 15
12 15 6 35 -11 35 -5 0 -9 -7 -9 -15z"/>
<path d="M1277 984 c-1 -1 -68 -4 -147 -5 -83 -2 -151 -7 -159 -13 -12 -9 -13
-8 -6 3 7 12 1 13 -36 6 -24 -4 -61 -8 -81 -7 -42 0 -47 -7 -19 -27 15 -11 17
-20 11 -42 -9 -32 9 -55 36 -45 18 7 13 32 -6 28 -8 -2 -11 5 -8 22 3 14 0 27
-6 29 -6 2 -8 8 -4 12 4 4 18 -6 32 -21 24 -28 25 -28 43 -10 17 18 17 18 -4
12 -18 -6 -20 -4 -16 14 3 11 11 20 18 20 17 0 36 -25 33 -41 -2 -8 3 -14 10
-13 6 1 34 2 60 3 43 1 49 4 59 29 l11 27 1 -27 c1 -23 6 -28 26 -28 16 0 25
6 25 15 0 8 5 15 10 15 6 0 10 -6 10 -14 0 -20 164 -20 202 0 25 13 40 53 21
55 -30 3 -113 5 -116 3z"/>
<path d="M263 456 c0 -36 -23 -60 -24 -25 0 13 -3 18 -6 12 -2 -7 -13 -13 -24
-13 -20 0 -26 -24 -9 -35 6 -3 10 1 10 9 0 9 5 16 11 16 6 0 9 -14 7 -32 -2
-27 -7 -33 -28 -35 -14 0 -31 -1 -37 -2 -7 -1 -13 -12 -13 -26 0 -20 -5 -25
-25 -25 -18 0 -25 5 -25 20 0 12 7 20 18 20 10 0 13 3 6 8 -6 4 -13 15 -17 24
-4 11 -12 15 -23 11 -13 -5 -15 0 -12 23 2 20 -1 29 -11 29 -33 0 -53 -93 -58
-272 l-4 -153 23 -1 c13 0 64 -2 114 -5 88 -4 92 -4 99 18 6 18 8 20 12 7 2
-10 14 -20 26 -23 12 -3 165 -6 340 -6 l317 0 0 58 c0 39 -3 52 -10 42 -10
-17 -12 -16 -33 28 -15 30 -15 32 4 32 22 0 26 15 6 23 -28 11 -67 -5 -73 -30
-4 -13 -12 -22 -19 -20 -6 3 -57 8 -113 12 -99 7 -101 8 -113 37 -22 52 -76
64 -103 23 -13 -20 -22 -24 -39 -19 -27 8 -23 4 -31 32 -6 17 -3 22 9 22 12 0
16 6 12 20 -3 11 -1 23 4 26 5 3 8 13 7 22 -4 22 -30 52 -40 46 -4 -3 -8 -1
-8 4 0 5 9 12 20 15 23 6 27 42 6 50 -8 3 -17 -3 -21 -16 l-8 -22 -4 23 c-3
13 -2 30 1 38 5 14 8 13 22 -1 13 -13 19 -14 25 -4 12 21 3 25 -53 28 -51 2
-52 1 -30 -14 12 -9 21 -26 21 -38 -1 -18 -2 -19 -6 -4 -4 17 -6 16 -24 -4
-10 -12 -19 -25 -19 -29 0 -4 -13 -5 -30 -2 -30 4 -43 22 -16 22 22 0 25 35 6
60 l-17 23 0 -27z"/>
<path d="M605 328 c-42 -50 -41 -51 128 -72 37 -4 47 -3 47 9 0 8 9 15 20 15
55 0 -3 57 -67 65 -26 3 -60 8 -75 10 -21 3 -33 -3 -53 -27z"/>
<path d="M1205 269 c-6 -17 -9 -19 -16 -8 -12 20 -12 -6 0 -30 11 -21 4 -32
-29 -49 l-25 -13 25 5 25 5 -25 -19 c-31 -24 -112 -50 -157 -50 -25 0 -33 -4
-33 -18 0 -17 15 -20 128 -30 180 -16 387 -39 462 -51 36 -6 113 -11 171 -11
106 0 107 0 111 25 3 13 3 27 0 30 -7 7 -10 57 -5 68 3 4 11 3 18 -3 8 -7 19
-9 25 -5 13 8 13 55 0 55 -6 0 -9 6 -8 13 2 7 -9 13 -24 15 -30 4 -31 2 -32
-58 -1 -24 -6 -35 -16 -35 -16 0 -20 55 -6 88 7 14 3 17 -27 17 -19 0 -40 -7
-47 -15 -14 -17 -36 -20 -42 -6 -1 5 -26 11 -55 13 -29 3 -50 1 -47 -4 3 -4 1
-8 -5 -8 -7 0 -7 -8 -1 -25 8 -21 7 -25 -8 -25 -10 0 -27 7 -38 15 -19 14 -18
15 6 35 14 11 23 20 20 20 -49 7 -100 4 -101 -7 -1 -7 -3 -17 -4 -23 -1 -5 -3
-13 -4 -17 -1 -9 -51 38 -51 49 0 4 5 8 10 8 6 0 10 -7 10 -15 0 -8 5 -15 10
-15 6 0 10 9 10 20 0 14 -7 20 -22 21 -112 6 -178 18 -178 35 0 23 -18 25 -25
3z"/>
</g>
</svg>
