<?xml version="1.0" standalone="no"?>
<!DOCTYPE svg PUBLIC "-//W3C//DTD SVG 20010904//EN"
 "http://www.w3.org/TR/2001/REC-SVG-20010904/DTD/svg10.dtd">
<svg version="1.0" xmlns="http://www.w3.org/2000/svg"
 width="640.000000pt" height="640.000000pt" viewBox="0 0 640.000000 640.000000"
 preserveAspectRatio="xMidYMid meet">
<metadata>
Created by potrace 1.16, written by Peter Selinger 2001-2019
</metadata>
<g transform="translate(0.000000,640.000000) scale(0.100000,-0.100000)"
fill="#000000" stroke="none">
<path d="M3406 5335 c-10 -8 -23 -12 -27 -9 -5 3 -6 -3 -2 -12 4 -12 2 -15 -8
-12 -8 3 -25 -3 -38 -13 -17 -14 -28 -16 -42 -8 -20 10 -28 -4 -9 -16 6 -3 10
-16 10 -28 0 -18 2 -19 10 -7 6 9 10 10 10 3 0 -6 -5 -15 -10 -18 -6 -4 -8
-10 -5 -15 3 -4 -2 -11 -10 -14 -8 -3 -15 -9 -14 -13 1 -4 0 -10 -1 -13 -12
-31 -8 -67 9 -91 23 -30 27 -49 11 -49 -5 0 -6 8 -3 18 6 15 5 15 -10 4 -18
-16 -18 -32 1 -47 9 -7 2 -11 -24 -12 -29 -2 -33 1 -24 12 7 9 8 15 0 20 -15
9 -30 -3 -23 -20 6 -16 8 -16 -162 -20 -44 -1 -89 -5 -100 -8 -42 -13 -217
-18 -231 -6 -11 9 -14 8 -14 -2 0 -9 -11 -14 -32 -13 -43 1 -69 -6 -62 -17 3
-5 -11 -9 -31 -9 -22 0 -34 4 -30 10 6 10 -10 15 -30 10 -19 -5 -80 -9 -138
-9 -36 -1 -56 -5 -52 -11 3 -6 -4 -10 -17 -10 -19 0 -20 2 -8 11 12 8 10 9
-10 5 -14 -3 -29 -6 -35 -6 -5 0 -3 -5 5 -10 11 -7 5 -10 -22 -10 -22 0 -38 5
-38 12 0 8 -36 9 -137 4 -76 -4 -190 -10 -253 -12 -63 -2 -131 -6 -150 -9 -34
-6 -35 -6 -12 10 14 10 30 14 45 9 19 -6 20 -5 8 10 -11 13 -11 19 -1 31 10
12 10 15 0 15 -7 0 -10 6 -7 14 4 9 0 12 -13 9 -11 -3 -16 -11 -13 -23 3 -10
0 -21 -6 -24 -6 -4 -11 1 -11 11 0 21 -29 65 -30 46 0 -7 -6 -13 -14 -13 -8 0
-17 -6 -20 -12 -4 -7 -4 -3 -2 10 2 12 0 22 -4 22 -5 0 -7 8 -5 18 4 26 -12
39 -43 34 -21 -3 -28 -10 -30 -28 -1 -20 3 -24 28 -24 17 0 30 -6 31 -12 1 -7
3 -32 5 -55 3 -40 2 -43 -20 -43 -13 0 -24 6 -23 13 0 6 -1 23 -2 37 -3 23 -4
23 -12 -7 -7 -23 -16 -33 -30 -33 -11 0 -17 -4 -14 -10 4 -6 -7 -10 -24 -10
-18 0 -31 5 -31 13 0 9 -2 9 -9 -1 -5 -9 -24 -12 -59 -9 -37 3 -52 0 -56 -9
-3 -8 -11 -14 -17 -14 -8 0 -8 4 1 15 11 13 10 14 -3 9 -8 -3 -18 -11 -20 -19
-3 -8 -15 -11 -31 -8 -14 3 -34 -1 -43 -8 -12 -10 -14 -10 -9 -1 4 6 2 12 -3
12 -33 0 14 -50 122 -130 11 -8 32 -26 46 -40 54 -53 121 -101 131 -95 6 4 9
1 8 -6 -2 -7 13 -22 32 -35 39 -26 180 -137 217 -172 14 -13 27 -21 29 -19 8
7 14 190 8 223 -4 20 -11 31 -21 30 -9 0 -18 5 -20 12 -3 6 0 12 7 12 6 0 8
-5 4 -12 -5 -8 -2 -9 10 -5 10 4 19 7 20 7 2 0 1 20 -1 44 -4 34 -1 45 13 50
14 5 15 4 5 -8 -7 -9 -8 -15 -2 -18 6 -1 11 -23 12 -48 1 -25 8 -52 16 -61 12
-14 12 -19 -2 -33 -10 -10 -17 -36 -18 -73 -2 -54 -1 -58 21 -57 12 0 21 -4
19 -10 -2 -6 -14 -10 -25 -8 -25 4 -23 36 -23 -320 l-1 -197 35 -30 c19 -17
40 -31 45 -31 6 0 27 -13 45 -30 19 -16 39 -30 44 -30 5 0 20 -11 33 -25 13
-14 47 -37 75 -50 28 -14 66 -40 85 -58 44 -40 122 -92 135 -89 6 1 11 -7 11
-18 0 -15 -7 -20 -26 -21 -14 0 -50 -2 -80 -4 -30 -2 -108 -5 -173 -6 -65 -2
-120 -6 -122 -9 -2 -4 -29 -5 -60 -2 -42 3 -55 1 -56 -9 0 -8 -2 -23 -4 -34
-2 -11 -2 -29 1 -41 4 -16 11 -19 35 -16 16 2 26 8 23 13 -3 5 6 13 21 19 30
11 101 -1 98 -18 -2 -7 87 -10 299 -9 l302 2 2 40 c2 40 6 658 5 683 -1 9 -14
12 -43 10 -33 -2 -43 1 -46 13 -2 13 4 16 34 12 21 -2 40 1 44 7 4 6 19 3 44
-9 22 -12 33 -14 26 -6 -8 10 -8 15 1 21 8 5 9 3 4 -6 -6 -10 -4 -12 7 -7 12
4 15 -1 14 -23 -1 -26 -4 -28 -25 -23 -17 4 -22 2 -17 -6 5 -8 49 -10 159 -5
84 3 163 6 177 6 14 0 29 5 33 11 6 9 10 9 14 0 2 -7 14 -13 26 -12 16 0 18 2
7 7 -8 4 -16 16 -18 27 -8 49 -6 79 6 82 8 3 13 -9 14 -39 1 -43 1 -43 5 -6 4
35 6 37 49 44 24 3 53 4 64 1 27 -7 35 10 11 24 -10 7 -17 18 -15 24 3 6 -2
25 -11 41 -8 16 -15 36 -15 44 0 9 -7 25 -15 37 -9 12 -40 82 -71 155 -49 120
-55 140 -56 211 0 43 2 81 6 85 4 3 26 8 49 9 23 2 58 5 77 7 51 5 90 -12 91
-37 2 -50 11 -85 34 -128 14 -26 36 -76 49 -110 55 -145 73 -179 99 -179 15 0
27 7 30 18 15 49 81 213 101 252 12 25 29 65 36 90 28 97 44 118 84 111 5 -1
3 6 -5 15 -13 16 -12 16 10 5 15 -8 21 -9 17 -2 -4 6 -1 11 6 11 9 0 9 3 -2
10 -22 14 3 12 37 -2 15 -7 32 -17 36 -23 6 -7 10 -6 13 2 4 9 11 7 26 -7 18
-17 20 -26 14 -97 -9 -115 -10 -122 -18 -117 -8 5 -16 -26 -16 -64 -1 -12 3
-20 8 -17 6 3 7 -1 3 -11 -5 -15 -7 -15 -15 0 -5 9 -16 16 -25 16 -15 0 -14
-2 2 -13 14 -11 15 -16 5 -22 -9 -5 -11 -4 -6 3 4 7 2 12 -3 12 -6 0 -11 -11
-11 -25 0 -19 4 -23 18 -19 13 5 14 4 3 -4 -8 -6 -10 -15 -5 -23 6 -11 5 -12
-7 -2 -12 10 -14 5 -13 -33 1 -24 -2 -47 -7 -50 -5 -3 -7 -10 -4 -15 4 -5 1
-9 -4 -9 -6 0 -11 -11 -11 -25 0 -14 -5 -25 -11 -25 -5 0 -7 -4 -4 -10 3 -5 2
-10 -2 -10 -5 0 -9 -8 -10 -17 -3 -45 -11 -75 -20 -81 -10 -7 -28 -60 -25 -74
1 -5 -4 -8 -11 -8 -8 0 -7 -4 3 -10 13 -9 13 -12 -3 -21 -9 -6 -15 -14 -12
-20 11 -16 -7 -10 -21 9 -11 15 -13 9 -9 -41 2 -31 7 -62 11 -69 4 -6 3 -8 -2
-5 -5 3 -10 -3 -10 -13 0 -10 3 -17 7 -14 9 5 16 -88 9 -118 -8 -31 -17 -12
-26 50 -3 29 -10 52 -15 52 -5 0 -9 11 -9 23 0 14 -6 24 -15 24 -19 0 -19 0 5
-39 11 -18 20 -43 20 -54 0 -12 9 -49 20 -83 11 -36 18 -78 15 -98 -3 -26 0
-40 13 -50 9 -8 11 -11 3 -7 -11 5 -12 1 -7 -20 3 -14 2 -26 -3 -26 -5 0 -11
-16 -13 -35 -2 -19 0 -35 5 -35 5 0 6 -10 3 -22 -13 -46 -15 -79 -4 -72 7 4 8
-1 3 -16 -7 -21 -5 -22 44 -19 43 3 49 2 34 -8 -11 -8 -12 -13 -4 -13 7 0 25
10 39 22 20 15 22 19 7 14 -11 -4 -16 -4 -12 0 4 4 1 14 -6 23 -10 14 -10 14
5 3 20 -16 35 2 18 23 -9 11 -7 12 11 8 20 -6 21 -4 14 23 -4 16 -8 37 -9 46
0 9 -4 15 -8 12 -4 -2 -6 5 -5 16 1 14 6 19 17 15 9 -3 7 1 -5 11 -20 16 -20
16 3 9 12 -3 22 -2 22 4 0 5 7 11 16 13 23 4 32 108 10 108 -22 0 -29 17 -16
37 11 17 11 17 6 0 -4 -12 -2 -17 6 -15 17 6 23 48 7 48 -9 0 -8 4 1 15 7 8
17 12 22 9 6 -4 5 3 -2 15 -9 17 -9 26 0 37 7 7 10 21 6 29 -3 9 -2 14 3 11
11 -7 25 23 22 49 -3 19 -2 19 16 -2 14 -16 23 -19 31 -11 8 8 7 14 -2 24 -14
14 -10 64 6 64 5 0 6 5 3 10 -3 6 -1 10 6 10 7 0 9 8 6 21 -5 17 -3 18 11 7 9
-7 13 -8 9 -2 -4 7 0 15 9 18 8 3 12 11 8 17 -3 6 -1 15 7 19 15 10 29 4 29
-11 0 -6 -3 -8 -7 -6 -5 3 -8 -11 -9 -30 l-1 -35 18 33 c16 32 16 35 -3 74
-14 27 -16 36 -6 28 11 -10 17 -10 26 -1 9 9 12 9 12 0 0 -7 7 -12 16 -12 10
0 15 8 14 23 -1 12 -2 31 -1 42 1 17 3 18 11 5 9 -13 11 -13 21 0 8 11 9 5 6
-25 l-5 -40 14 33 c14 31 16 32 72 32 l59 0 1 56 c1 76 12 82 13 8 1 -32 1
-62 1 -65 -1 -3 -3 -133 -6 -290 -4 -156 -9 -342 -12 -413 l-5 -129 173 7 c95
4 175 11 176 17 2 5 9 6 14 3 6 -4 8 -3 5 3 -3 5 -8 22 -11 37 -3 16 -7 30
-10 33 -4 4 -102 6 -121 3 -24 -5 -55 1 -55 11 0 5 4 7 10 4 5 -3 7 0 4 8 -3
8 9 21 31 32 l35 20 1 200 c1 110 3 300 4 423 l3 222 -24 0 c-22 0 -24 4 -24
54 0 30 5 58 10 61 6 3 10 15 10 26 0 14 -4 18 -12 13 -10 -6 -10 -4 0 8 7 9
15 29 18 44 4 22 2 25 -8 16 -11 -9 -12 -1 -7 46 9 74 23 128 32 125 4 -2 6 0
5 5 -2 4 -5 6 -8 5 -3 -1 -6 16 -7 38 0 21 3 39 8 39 4 0 6 8 2 18 -3 9 -3 14
2 10 4 -4 14 -3 22 4 19 16 27 3 8 -15 -20 -20 -19 -30 3 -44 15 -9 19 -8 19
3 0 7 -4 11 -9 8 -4 -3 -8 -1 -8 4 0 6 7 13 16 16 8 3 13 10 10 15 -3 5 3 7
14 4 24 -6 27 -25 3 -21 -13 2 -17 -5 -18 -34 -1 -32 3 -39 27 -49 16 -6 31
-9 35 -5 3 3 -2 6 -11 6 -10 0 -16 6 -13 13 2 6 9 12 15 12 7 0 11 5 10 10 -2
6 -7 9 -12 7 -5 -2 -4 4 3 12 7 8 30 17 52 21 21 4 37 11 33 16 -3 5 -10 6
-16 3 -7 -4 -8 -2 -4 4 5 9 13 9 26 2 26 -14 30 -13 23 6 -8 20 -68 15 -67 -6
1 -9 -8 -15 -23 -15 -12 0 -23 6 -23 13 0 7 5 10 10 7 6 -3 15 -3 21 1 8 4 7
9 -2 15 -28 18 72 9 111 -10 29 -14 37 -15 33 -5 -4 10 0 12 13 7 12 -4 15 -3
10 6 -5 7 -17 10 -28 8 -11 -3 -17 -3 -13 1 4 4 23 7 43 7 21 0 48 4 61 9 18
6 22 5 15 -5 -6 -11 -5 -12 7 -2 9 7 28 10 45 7 71 -14 121 -5 121 23 0 14 -2
13 -13 -2 -11 -14 -19 -15 -57 -7 -25 5 -60 8 -79 7 -18 -2 -36 2 -40 8 -6 9
-8 9 -8 0 0 -8 -14 -13 -36 -13 -19 0 -33 4 -30 9 3 5 14 7 24 5 21 -5 50 12
38 23 -5 4 -11 3 -13 -4 -2 -7 -11 -9 -19 -6 -13 5 -13 7 -2 15 9 6 8 8 -7 6
-11 -1 -26 1 -32 5 -9 6 -13 2 -13 -10 -1 -17 -1 -17 -14 0 -13 16 -14 16 -19
-4 -3 -11 -9 -19 -14 -16 -4 3 -21 -1 -38 -8 -29 -13 -30 -13 -5 -15 17 -1 9
-6 -25 -15 -57 -15 -65 -13 -41 14 10 11 13 21 7 25 -5 3 -11 -2 -13 -11 -3
-16 -13 -18 -72 -15 -38 2 -71 0 -75 -6 -3 -5 -32 -7 -66 -4 -46 4 -54 7 -35
13 16 4 0 7 -42 6 -60 0 -66 -2 -50 -14 15 -13 15 -13 -5 -4 -12 6 -23 7 -25
2 -2 -5 -74 -12 -160 -16 -87 -4 -169 -8 -182 -9 -25 -3 -48 25 -26 32 7 3 7
8 1 15 -5 7 -11 17 -13 22 -4 13 -111 14 -121 0 -5 -6 -11 -4 -18 8 -6 9 -14
15 -19 12 -5 -3 -15 3 -22 15 -16 26 -31 26 -23 0 4 -12 2 -20 -5 -20 -6 0 -9
3 -7 8 3 4 0 12 -7 18 -8 7 -12 -1 -13 -33 -1 -30 3 -46 13 -50 24 -9 16 -31
-10 -26 -17 4 -26 14 -31 36 -4 18 -7 36 -6 40 1 4 -7 3 -18 -3 -23 -12 -52
-14 -36 -2 25 18 49 92 25 77 -5 -3 -10 -1 -10 6 0 7 -3 9 -6 6 -4 -3 -15 -2
-25 3 -14 8 -22 5 -35 -12 -12 -17 -15 -18 -10 -5 5 17 4 17 -16 2 -28 -19
-39 -19 -32 0 4 8 12 15 19 15 7 0 16 8 19 17 5 11 10 13 17 6 14 -14 47 -5
52 16 4 12 5 11 6 -4 1 -17 3 -18 11 -5 8 12 10 10 10 -10 0 -19 3 -21 9 -11
6 8 6 24 0 38 -5 12 -6 23 -3 23 4 0 0 7 -7 16 -11 14 -10 18 9 32 23 18 48
82 31 82 -5 0 -9 -7 -9 -15 0 -12 -52 -75 -63 -75 -2 0 -8 41 -10 78 0 6 -1
12 -1 12 -1 0 -10 -7 -20 -15z m-833 -614 c-2 -6 2 -11 8 -11 6 0 9 -7 6 -14
-4 -11 -1 -13 11 -10 14 5 13 3 -2 -10 -11 -9 -23 -16 -28 -16 -4 0 -6 -10 -4
-22 2 -14 -4 -28 -15 -36 -25 -17 -24 -32 0 -27 28 5 46 -19 26 -35 -13 -11
-14 -10 -9 6 4 10 4 16 -1 12 -12 -11 -45 10 -46 30 0 10 -3 12 -6 4 -2 -6 -8
-10 -13 -7 -11 7 -7 -22 5 -32 4 -4 5 -2 0 6 -5 9 -4 12 3 7 14 -8 16 -36 4
-36 -11 0 -37 30 -45 53 -4 9 -11 17 -17 17 -6 0 -9 -4 -6 -9 3 -5 0 -14 -8
-20 -10 -9 -15 -8 -20 4 -3 9 -10 13 -16 10 -7 -4 -7 -12 0 -24 7 -14 6 -18
-8 -16 -25 2 -52 16 -48 24 3 4 -4 7 -14 7 -10 0 -17 -3 -14 -7 2 -4 -7 -9
-21 -11 -13 -3 -22 -2 -19 3 2 4 -4 12 -13 18 -17 9 -17 11 0 28 17 17 19 17
48 1 26 -15 31 -15 35 -3 4 8 11 12 18 8 6 -4 25 -8 43 -9 23 -1 30 2 26 12
-3 8 0 14 7 14 6 0 8 -5 4 -11 -4 -8 0 -9 15 -4 13 4 21 2 21 -5 0 -8 6 -7 21
1 17 8 23 8 29 -1 14 -22 27 21 25 78 -2 36 1 52 9 49 6 -3 10 -10 9 -16z
m-556 -255 c2 -11 9 -26 16 -35 10 -12 9 -13 -3 -6 -12 7 -13 6 -4 -6 14 -17
16 -79 3 -79 -5 0 -9 -4 -9 -10 0 -5 6 -7 14 -4 7 3 21 -3 31 -12 16 -16 16
-18 1 -24 -14 -5 -14 -8 -1 -34 19 -37 13 -44 -14 -17 -12 12 -25 21 -31 21
-16 0 0 -28 20 -33 10 -3 20 -15 22 -28 2 -13 9 -23 16 -21 9 2 12 -6 10 -20
-2 -15 -10 -23 -24 -24 -12 -1 -32 -4 -45 -7 -49 -12 -52 -1 -44 144 4 74 8
168 8 209 l0 75 15 -35 c9 -19 17 -44 19 -54z m321 -560 c3 -3 -2 -6 -11 -6
-20 0 -39 -33 -31 -54 4 -11 2 -15 -8 -11 -20 8 -44 -20 -27 -31 8 -4 9 -3 5
4 -11 18 29 15 44 -3 9 -10 9 -15 1 -15 -6 0 -10 -3 -8 -7 5 -18 -10 -16 -40
6 -18 13 -30 28 -27 33 3 5 2 8 -3 7 -19 -3 -31 2 -59 27 -16 14 -37 30 -47
35 -16 9 -17 8 -5 -10 7 -12 18 -21 25 -21 6 0 14 -4 17 -9 3 -4 -12 -7 -34
-5 -38 3 -55 -9 -27 -19 6 -2 10 -7 7 -10 -8 -9 -50 4 -50 15 0 5 5 6 10 3 6
-3 10 -1 10 4 0 13 -10 14 -29 2 -8 -5 -11 -16 -8 -24 11 -29 -36 -31 -72 -3
-8 6 -30 11 -49 11 -21 0 -37 6 -40 14 -3 10 1 12 17 8 24 -6 26 1 8 23 -14
17 -47 25 -47 12 0 -5 -11 -7 -25 -4 -14 2 -25 9 -25 14 0 6 11 8 25 6 14 -3
25 -2 25 2 0 4 11 7 25 6 14 0 25 -5 25 -10 0 -5 7 -3 15 4 11 10 19 8 39 -8
14 -11 23 -22 21 -26 -3 -3 -2 -4 2 -1 6 5 32 -24 33 -37 0 -5 -7 -8 -16 -8
-8 0 -13 4 -9 9 9 15 -15 25 -28 12 -9 -9 -8 -11 3 -8 8 2 12 2 7 0 -13 -8 4
-23 26 -23 14 0 26 10 34 26 11 23 10 26 -6 21 -10 -2 -23 3 -29 14 -16 25
-15 28 6 28 35 0 237 13 240 15 4 5 84 -2 90 -8z"/>
<path d="M3594 5288 c-3 -5 -10 -6 -15 -3 -5 4 -9 1 -9 -4 0 -6 5 -11 10 -11
6 0 10 -5 10 -11 0 -6 -7 -9 -15 -5 -18 7 -39 -29 -32 -56 5 -16 2 -19 -14
-15 -12 3 -19 0 -19 -9 0 -11 9 -14 32 -11 32 3 53 27 24 27 -9 0 -16 6 -16
13 0 26 14 28 31 5 15 -19 19 -20 33 -9 20 17 21 32 1 25 -17 -7 -22 31 -5 41
6 4 9 1 8 -7 -2 -7 7 -14 20 -16 16 -2 22 -8 18 -19 -3 -8 -9 -25 -12 -38 -4
-17 -11 -22 -22 -17 -15 5 -15 4 -3 -11 19 -24 44 -22 36 3 -3 11 -2 27 3 37
9 15 12 13 25 -17 9 -24 10 -36 3 -39 -6 -2 -14 -8 -17 -13 -3 -5 -16 -10 -27
-11 -34 -2 -23 -25 21 -40 15 -6 17 -3 12 12 -9 30 12 35 50 12 19 -11 35 -16
35 -11 0 6 -5 10 -11 10 -6 0 -9 7 -5 15 3 8 2 14 -2 14 -20 -3 -33 2 -27 11
4 7 12 7 24 0 10 -5 22 -6 26 -2 5 4 5 1 1 -6 -4 -7 -4 -22 0 -35 7 -21 7 -21
14 -2 10 28 -8 75 -28 75 -15 0 -15 -2 -2 -10 13 -8 12 -10 -4 -10 -14 0 -17
5 -13 21 3 13 1 19 -6 16 -7 -3 -11 -10 -9 -16 1 -6 -2 -11 -8 -11 -5 0 -10 7
-10 15 0 8 5 15 10 15 6 0 10 9 10 20 0 11 -3 19 -7 19 -20 -3 -26 2 -13 11
11 7 11 10 2 10 -7 0 -10 5 -7 10 3 6 1 10 -5 10 -6 0 -8 5 -4 12 4 7 3 8 -5
4 -6 -4 -9 -13 -5 -19 3 -7 -2 -3 -11 8 -16 20 -62 28 -71 13z"/>
<path d="M4371 5241 c-9 -6 -10 -14 -3 -27 5 -11 8 -38 7 -61 -1 -24 -3 -58
-3 -76 -2 -24 -9 -37 -24 -46 -17 -9 -18 -10 -3 -5 11 4 28 7 37 8 9 0 14 4
12 8 -3 4 2 8 11 8 10 0 13 -5 9 -12 -6 -10 -5 -10 7 -1 8 6 34 14 58 17 58 7
64 15 11 14 -41 0 -60 12 -60 40 0 17 46 33 78 27 15 -3 21 -2 14 1 -6 3 -9
10 -6 15 5 9 -12 7 -71 -8 -19 -5 -19 -4 -2 9 10 7 30 13 45 12 74 -3 75 -3
63 -18 -9 -11 -7 -15 9 -19 11 -3 18 -1 14 4 -3 5 0 9 5 9 6 0 11 5 11 11 0 5
-5 7 -11 3 -7 -4 -10 -1 -7 6 8 25 24 20 26 -7 1 -16 7 -30 12 -31 6 -2 8 -7
5 -12 -3 -4 3 -14 13 -21 15 -12 16 -12 5 2 -7 9 -10 18 -8 21 3 3 1 17 -4 30
-7 18 -6 29 2 38 9 10 8 12 -5 7 -9 -3 -18 -1 -20 5 -2 6 -10 4 -20 -6 -17
-16 -33 -22 -24 -8 2 4 -19 7 -48 7 -36 0 -58 -5 -70 -17 -30 -31 -42 -20 -37
34 1 9 -3 19 -9 23 -6 3 -8 11 -5 16 8 11 4 11 -14 0z"/>
<path d="M5266 5205 c5 -11 2 -14 -12 -8 -16 6 -17 5 -4 -9 8 -9 18 -14 22
-12 4 2 9 0 13 -6 3 -5 1 -10 -5 -10 -7 0 -10 -7 -6 -15 3 -8 1 -15 -4 -15 -6
0 -10 8 -11 18 0 9 -8 0 -17 -20 -15 -35 -38 -55 -49 -44 -3 3 2 15 11 28 24
34 20 47 -11 42 -14 -3 -33 -9 -42 -13 -9 -4 -46 -7 -83 -5 -53 2 -68 0 -68
-11 0 -23 -22 -29 -37 -10 -12 18 -13 18 -13 -1 0 -14 12 -26 38 -37 43 -19
56 -21 48 -8 -9 14 21 21 87 20 58 -1 60 -2 22 -9 -22 -4 -46 -5 -55 -3 -13 4
-13 4 0 -6 22 -15 4 -26 -46 -27 -52 -2 -75 -17 -56 -36 9 -9 12 -9 12 0 0 7
5 12 10 12 6 0 10 -7 10 -15 0 -8 -4 -15 -9 -15 -5 0 -11 -6 -14 -13 -3 -7 3
-13 13 -13 10 0 16 6 13 13 -3 7 0 13 7 13 6 0 8 5 5 10 -4 7 3 9 22 5 19 -5
24 -4 15 3 -15 10 46 8 98 -3 28 -6 43 -25 20 -25 -18 0 -11 -18 10 -23 25 -6
56 16 45 33 -6 10 -4 12 8 7 10 -3 17 -3 17 1 0 4 11 8 26 8 23 2 24 1 7 -12
-17 -13 -17 -13 4 -14 12 0 24 -6 26 -12 4 -10 6 -10 6 0 1 15 61 16 61 0 0
-6 3 -8 7 -5 3 4 12 2 19 -4 8 -6 20 -9 28 -6 8 3 18 -4 24 -19 10 -20 9 -23
-6 -22 -52 4 -123 -3 -117 -12 6 -9 -14 -14 -42 -11 -7 1 -13 -3 -13 -10 0 -6
8 -9 20 -6 11 3 20 1 20 -3 0 -10 82 -25 118 -23 12 1 22 -2 22 -6 0 -5 9 -11
20 -14 28 -7 16 -32 -15 -32 -14 0 -25 4 -25 8 0 5 -4 6 -10 2 -5 -3 -7 -12
-4 -19 3 -8 1 -17 -5 -20 -15 -10 -151 -37 -178 -37 -14 1 -20 -4 -18 -12 6
-14 167 -15 244 -2 l44 7 -6 142 c-4 77 -8 186 -9 241 -1 82 -2 91 -8 50 -4
-27 -8 -45 -8 -38 -1 6 -12 10 -23 8 -12 -3 -19 -1 -15 2 3 4 -4 17 -16 31
-13 13 -22 27 -20 30 2 4 -1 8 -7 10 -14 5 -14 -21 0 -35 7 -7 3 -9 -15 -6
-30 6 -35 -11 -8 -26 13 -7 23 -6 32 2 9 9 9 6 -1 -10 -8 -13 -16 -18 -20 -12
-5 9 -24 16 -54 18 -5 1 -3 6 5 11 8 5 11 10 6 10 -6 0 -1 7 10 16 13 11 15
17 6 20 -6 3 -9 11 -5 17 3 7 -4 3 -16 -8 -18 -15 -24 -16 -30 -6 -6 9 -11 9
-15 3 -3 -6 -2 -13 4 -17 12 -8 13 -25 1 -25 -5 0 -12 11 -15 25 -3 13 -15 29
-26 35 -16 9 -18 8 -14 -5z"/>
<path d="M2630 4052 c0 -6 4 -12 9 -14 4 -1 12 -14 16 -27 4 -14 3 -21 -2 -18
-10 6 -11 -21 -2 -38 3 -6 4 -16 3 -22 -1 -7 -3 -32 -4 -55 -2 -26 -4 -34 -7
-20 -2 12 -9 22 -14 22 -6 0 -8 -8 -5 -17 12 -38 11 -212 -1 -224 -10 -10 -15
-7 -22 12 -7 18 -10 20 -10 6 -1 -10 5 -25 13 -33 8 -7 13 -26 11 -41 -7 -47
4 -81 28 -87 l22 -5 -22 -22 c-21 -21 -21 -23 -5 -37 13 -10 13 -13 2 -9 -8 2
-24 1 -35 -4 -11 -4 54 -8 147 -8 145 -1 167 1 162 14 -4 8 -1 22 6 30 9 10 9
15 1 15 -6 0 -11 -4 -11 -10 0 -21 -18 -9 -22 15 -3 13 -1 23 5 22 18 -3 18
90 1 108 -8 8 -11 15 -5 15 6 0 10 5 9 11 -2 6 3 14 10 16 11 4 12 1 3 -16
-10 -17 -9 -21 5 -21 13 0 15 8 12 40 -2 26 1 41 9 44 16 6 17 36 2 36 -6 0
-9 7 -5 15 3 10 -28 48 -92 112 -144 145 -212 207 -212 195z"/>
<path d="M4270 2660 c0 -6 -137 -10 -372 -11 -205 -1 -400 -3 -433 -3 -33 0
-79 3 -102 7 -27 5 -43 4 -43 -2 0 -6 -106 -8 -292 -5 -207 4 -289 2 -278 -5
12 -9 10 -11 -10 -12 -17 -1 -12 -4 15 -9 38 -7 37 -7 -16 -7 -31 0 -63 -4
-70 -8 -9 -6 -11 -4 -6 8 4 12 1 17 -10 17 -9 0 -13 3 -10 7 4 3 18 0 31 -7
21 -11 27 -10 40 2 13 14 5 15 -72 16 -67 0 -78 -2 -47 -8 23 -4 -70 -8 -213
-9 -234 -1 -252 -2 -244 -18 7 -12 5 -24 -5 -40 -9 -13 -13 -26 -9 -30 3 -3 6
-1 6 5 0 7 5 12 10 12 6 0 10 -11 10 -25 0 -14 4 -25 10 -25 5 0 7 -6 4 -14
-3 -8 -1 -22 4 -32 8 -14 14 -11 47 25 21 22 44 41 52 41 7 0 13 5 13 11 0 5
6 7 13 3 8 -5 8 -3 -2 9 -7 9 -17 15 -21 12 -4 -2 -5 6 -3 20 5 22 6 23 23 7
10 -9 19 -26 22 -37 2 -13 13 -21 31 -23 31 -4 35 9 10 29 -16 13 -17 12 -5
-3 12 -15 11 -17 -5 -15 -11 0 -20 8 -20 17 -1 13 7 16 32 16 18 -1 37 -4 41
-8 14 -14 26 -8 20 9 -6 14 -3 14 16 -3 13 -10 25 -21 28 -24 3 -3 14 -10 25
-16 18 -10 21 -9 22 7 1 11 -4 19 -10 18 -24 -3 -35 1 -40 15 -4 11 2 13 28
10 23 -3 35 1 39 11 3 9 17 15 33 14 l28 -1 -25 -7 c-21 -6 -25 -13 -26 -44
-1 -40 6 -46 26 -22 10 12 10 18 0 30 -7 9 -10 18 -6 22 12 12 35 -31 24 -44
-8 -10 -6 -13 6 -13 22 0 33 30 15 40 -7 5 -11 11 -8 14 3 3 15 -3 27 -14 21
-20 32 -14 13 5 -6 6 -1 11 14 11 15 1 25 -5 28 -17 3 -11 10 -19 17 -19 6 0
8 5 5 10 -3 6 -1 10 4 10 15 0 14 -13 -1 -29 -8 -9 -8 -11 -2 -8 15 9 21 -9
18 -50 -1 -19 2 -30 8 -27 12 7 8 -73 -4 -98 -4 -9 -4 -19 1 -22 5 -3 11 -23
14 -43 11 -73 20 -108 30 -121 7 -9 7 -16 -1 -24 -24 -24 -11 -31 13 -8 l25
24 -20 21 c-23 25 -27 43 -5 25 25 -21 30 -2 6 21 -17 16 -22 30 -19 51 4 23
1 28 -11 23 -11 -3 -10 0 3 10 20 15 29 65 12 65 -5 0 -2 8 7 18 20 22 22 36
5 26 -9 -5 -9 -2 1 9 11 14 11 17 0 17 -8 0 -4 9 9 23 18 19 19 26 9 37 -10
12 -9 12 4 2 12 -9 18 -9 27 0 19 19 44 19 38 0 -5 -15 -4 -15 8 1 18 23 29
22 16 -2 -8 -16 -7 -20 7 -19 10 0 26 -3 37 -7 17 -8 18 -7 2 16 -15 24 -15
25 7 26 13 1 17 -1 9 -6 -8 -5 -1 -17 26 -42 34 -31 35 -31 9 -3 -23 26 -25
32 -13 37 8 3 18 1 22 -5 5 -7 2 -8 -7 -3 -12 8 -12 6 0 -8 14 -18 26 -23 16
-8 -3 5 -1 12 5 16 6 4 7 12 3 18 -3 7 3 4 14 -5 24 -22 33 -23 33 -3 0 20 17
19 29 -2 10 -17 10 -17 11 0 0 10 8 17 20 17 13 0 18 -5 14 -15 -6 -15 -22
-20 -56 -17 -22 2 -23 -11 -3 -28 13 -10 19 -10 35 5 19 17 20 17 20 -1 0 -15
7 -11 35 18 44 45 131 67 95 23 -7 -9 -10 -18 -6 -22 3 -3 6 -1 6 5 0 7 5 12
11 12 5 0 7 -5 3 -12 -4 -6 -3 -8 4 -4 6 3 13 2 17 -4 3 -5 11 -10 17 -10 6 0
3 9 -7 20 -18 20 -18 21 -1 14 17 -7 18 -6 2 18 -15 24 -13 38 6 38 5 0 6 -9
3 -20 -8 -25 2 -26 28 -2 19 16 19 16 13 -4 -7 -24 17 -53 29 -34 5 8 10 8 20
0 15 -13 30 3 19 21 -4 8 -1 8 12 2 11 -6 30 -7 43 -4 l24 6 -26 12 c-14 6
-28 9 -31 5 -4 -3 -13 -7 -20 -8 -7 -1 -24 -5 -37 -9 -23 -7 -23 -7 -7 12 17
19 79 25 95 10 3 -4 12 -2 18 3 9 8 12 2 9 -22 -5 -37 -20 -50 -51 -43 -26 6
-30 -7 -8 -25 13 -11 22 -7 55 25 21 20 36 43 34 50 -3 7 -1 16 4 19 19 11 3
-47 -19 -70 -12 -13 -19 -27 -15 -31 4 -4 12 0 17 10 6 9 20 26 32 38 12 11
22 27 22 36 0 11 10 16 33 17 22 1 31 -3 27 -11 -2 -7 0 -13 4 -13 5 0 11 5
13 11 2 7 10 4 18 -7 13 -16 13 -17 0 -9 -9 5 -8 0 4 -13 21 -24 36 -31 17 -8
-9 11 -8 15 5 20 18 7 34 0 34 -16 0 -6 -7 -5 -17 3 -10 7 -7 1 6 -14 25 -28
43 -38 21 -12 -10 12 -10 15 4 15 9 0 16 5 16 11 0 5 5 7 11 3 6 -4 7 -9 2
-13 -19 -13 -9 -47 14 -49 26 -2 31 15 8 24 -12 5 -13 10 -4 20 6 7 7 19 3 25
-5 8 -3 9 5 5 7 -5 10 -15 7 -23 -9 -23 13 -46 30 -32 8 6 14 16 14 21 0 6 -7
5 -15 -2 -13 -11 -15 -8 -16 16 -1 32 1 67 6 72 1 2 14 5 28 7 18 4 24 1 23
-11 -2 -26 19 -27 32 -2 8 18 11 19 11 6 1 -22 31 -24 31 -3 0 8 5 15 11 15 5
0 7 -4 4 -10 -3 -5 -1 -10 4 -10 6 0 11 5 11 10 0 6 7 10 16 10 8 0 12 -4 9
-10 -3 -5 -1 -10 4 -10 6 0 11 6 11 13 0 10 13 13 48 12 78 -4 79 -4 63 -14
-8 -5 -9 -11 -3 -15 5 -3 15 1 22 9 7 8 17 15 23 15 6 0 -2 -13 -18 -30 -23
-24 -26 -32 -15 -45 17 -20 30 -19 28 3 -3 36 2 52 17 52 9 0 28 8 43 17 26
17 26 17 13 0 -20 -25 -8 -30 17 -7 11 11 23 16 26 11 6 -9 -56 -51 -75 -51
-6 0 -8 -14 -5 -30 4 -28 2 -30 -17 -24 -22 7 -22 6 -3 -15 19 -21 19 -21 33
-2 7 11 11 26 8 33 -3 8 3 22 14 33 17 15 23 16 36 5 9 -7 18 -10 22 -7 3 4
13 1 22 -6 14 -10 14 -10 5 3 -16 22 -25 52 -14 45 6 -3 10 3 10 14 0 18 -6
21 -50 21 -30 0 -50 4 -50 11 0 7 18 10 50 7 42 -2 50 0 50 15 0 11 -8 17 -25
17 -14 0 -25 -4 -25 -10z"/>
<path d="M5148 2400 c-9 -10 -25 -31 -35 -47 -9 -15 -20 -30 -23 -33 -3 -3
-18 -24 -34 -47 -18 -26 -36 -43 -49 -43 -10 0 -48 -22 -83 -50 -35 -27 -67
-50 -72 -50 -5 0 -19 -12 -33 -27 -13 -16 -17 -22 -9 -15 23 20 35 14 15 -8
-11 -12 -13 -20 -6 -20 7 0 9 -5 6 -10 -4 -6 -12 -4 -21 5 -9 8 -18 15 -21 15
-4 0 -4 -3 -1 -6 3 -3 -3 -30 -13 -59 -10 -30 -18 -67 -18 -82 1 -21 3 -23 6
-8 7 27 23 46 34 39 5 -3 9 -1 9 4 0 5 12 8 28 6 27 -4 27 -4 2 5 -14 4 -33 7
-43 5 -10 -2 -15 1 -12 7 8 11 55 12 74 0 9 -6 19 -4 28 4 18 18 16 25 -4 22
-10 -1 -18 3 -18 8 0 6 8 9 18 8 9 -2 17 2 17 7 0 5 8 9 18 7 9 -1 18 3 20 8
2 6 -15 10 -40 10 -42 0 -43 1 -45 33 -1 27 1 31 13 21 7 -6 11 -16 8 -23 -4
-6 5 3 20 19 22 26 25 27 26 10 0 -18 1 -18 16 4 13 18 18 20 25 10 6 -11 9
-10 14 2 4 10 16 15 31 13 13 -1 24 2 24 7 0 6 6 9 13 8 25 -3 47 1 47 10 0 5
-8 7 -19 4 -10 -3 -22 0 -26 7 -5 8 39 11 170 8 97 -1 179 -6 182 -10 2 -5 -1
-7 -9 -6 -7 2 -12 -1 -11 -7 11 -75 14 -145 5 -145 -6 0 -13 8 -16 18 -8 27
-10 117 -3 129 5 7 0 9 -11 6 -16 -4 -17 -12 -10 -75 4 -39 5 -74 3 -78 -3 -4
-16 -5 -31 -2 -20 4 -25 1 -22 -9 3 -8 16 -13 29 -12 13 1 35 -1 49 -4 l25 -6
-25 -7 c-14 -5 -42 -8 -62 -9 -21 -1 -38 -5 -38 -10 0 -5 12 -8 26 -6 16 1 24
-2 21 -10 -3 -6 1 -12 9 -12 8 0 14 6 14 13 0 7 8 13 18 13 9 0 31 2 49 3 20
3 34 -1 37 -9 7 -18 26 -16 26 3 0 11 6 14 20 9 11 -4 20 -2 20 4 0 11 -11 14
-45 12 -17 -2 -17 0 -5 8 8 6 33 11 55 11 36 -1 38 -2 22 -14 -16 -13 -14 -14
27 -14 26 1 49 -1 52 -5 3 -3 7 -24 8 -46 4 -73 14 -55 13 23 -1 42 -4 76 -8
76 -4 0 -16 16 -28 35 -11 19 -27 35 -35 35 -9 0 -20 9 -26 20 -6 11 -15 20
-21 20 -18 0 -79 52 -73 61 3 5 2 8 -3 7 -14 -4 -53 22 -53 36 0 9 -8 12 -24
9 -26 -5 -47 21 -97 117 -24 46 -31 52 -69 56 -16 2 -32 -4 -42 -16z"/>
<path d="M1315 2360 c4 -6 11 -7 17 -4 6 4 -6 -19 -27 -51 -20 -32 -41 -68
-46 -81 -4 -13 -16 -24 -25 -24 -13 0 -14 3 -4 15 11 13 6 15 -39 15 -28 0
-51 -4 -51 -9 0 -5 16 -8 35 -6 19 2 35 1 35 -1 0 -3 -12 -16 -27 -30 -16 -14
-21 -22 -13 -18 8 4 11 3 7 -1 -4 -5 -14 -10 -22 -11 -15 -2 -73 -43 -115 -80
-14 -12 -38 -24 -55 -27 l-30 -4 33 -2 33 -1 -7 -52 c-5 -37 -4 -49 5 -44 14
9 14 7 -4 -44 -8 -23 -17 -83 -20 -134 -2 -50 -7 -134 -10 -186 -3 -52 -8
-147 -11 -210 -4 -99 -17 -250 -27 -315 -2 -11 -12 -33 -22 -48 -16 -25 -19
-27 -28 -12 -9 17 8 39 24 30 3 -3 4 6 2 19 -3 13 0 27 6 30 6 4 11 25 11 47
0 22 -4 38 -9 34 -5 -3 -12 -1 -16 5 -4 6 -9 8 -13 6 -4 -2 -8 24 -10 58 -2
51 1 63 13 63 8 0 15 -4 15 -9 0 -4 -6 -8 -12 -8 -9 0 -8 -3 2 -9 8 -6 18 -7
22 -5 4 3 8 1 8 -5 0 -5 -5 -11 -11 -13 -8 -3 -9 -15 -4 -36 8 -39 30 -43 22
-4 -2 15 -2 51 2 79 5 33 3 57 -3 64 -8 9 -8 10 2 5 8 -5 12 2 12 23 0 39 -5
39 -25 2 -10 -21 -12 -32 -4 -36 6 -5 2 -13 -11 -22 -12 -8 -24 -12 -28 -8 -3
3 0 10 7 14 9 6 5 9 -13 9 -14 0 -26 -3 -27 -7 -5 -41 -3 -64 8 -68 13 -5 13
-79 0 -100 -5 -7 -5 -17 -2 -23 3 -5 1 -18 -5 -27 -9 -16 -10 -15 -5 5 7 25
-7 29 -25 7 -10 -12 -10 -18 0 -30 7 -9 18 -14 25 -12 6 3 10 -6 10 -22 -1
-14 5 -42 12 -61 11 -28 12 -85 3 -85 -1 0 -4 -12 -6 -27 -2 -16 -6 -40 -8
-55 -2 -16 -5 -31 -5 -35 -1 -10 -30 1 -70 28 -19 13 -38 21 -43 18 -4 -3 -8
0 -8 5 0 6 9 11 21 11 17 0 19 4 13 23 -4 12 -19 37 -35 56 -15 19 -25 39 -21
45 4 7 8 4 10 -6 4 -22 1 -22 48 -1 28 12 34 18 22 21 -10 2 -18 7 -18 10 1
14 29 57 30 45 0 -7 6 -13 14 -13 8 0 17 -6 20 -12 3 -7 3 0 1 16 -2 16 -11
36 -20 46 -8 9 -15 24 -15 32 0 9 -12 26 -27 38 -16 12 -23 19 -18 16 6 -2 17
-1 25 4 12 8 12 10 -2 15 -9 4 -27 5 -40 3 -15 -2 -31 7 -50 27 -14 16 -30 26
-34 22 -13 -12 10 -40 49 -61 36 -19 36 -20 16 -34 -18 -12 -20 -22 -17 -83 3
-50 1 -70 -9 -73 -16 -6 -16 -1 -3 25 8 15 7 19 -5 19 -8 0 -15 7 -15 17 0 9
-3 13 -7 10 -3 -4 -12 -2 -18 3 -8 7 -17 4 -29 -9 -11 -12 -14 -21 -7 -26 6
-3 11 -1 11 4 0 14 27 14 36 0 9 -15 -15 -29 -35 -21 -13 5 -13 3 2 -12 21
-21 23 -61 3 -53 -8 3 -22 -3 -32 -14 -21 -24 -38 -25 -30 -2 4 10 4 14 0 10
-4 -4 -14 -1 -22 5 -20 17 -45 19 -54 5 -4 -7 -6 3 -4 21 4 40 -2 41 -16 1 -7
-22 -14 -27 -21 -20 -19 19 -27 12 -17 -13 5 -13 6 -27 3 -30 -4 -3 26 -6 66
-6 68 0 72 -1 70 -23 -4 -42 1 -77 10 -77 6 0 9 8 8 18 -2 29 23 79 39 79 7 0
14 -4 14 -9 0 -4 -4 -8 -8 -8 -4 0 -8 -16 -9 -36 0 -19 -2 -37 -4 -39 -11 -11
-166 -45 -193 -43 -26 2 -32 -1 -34 -19 -3 -21 -9 -23 -61 -23 -32 0 -100 -3
-151 -7 -89 -6 -92 -7 -102 -33 -7 -22 -14 -26 -36 -22 -15 3 -24 1 -20 -3 5
-5 -1 -14 -12 -22 -26 -18 -28 -98 -3 -125 9 -10 11 -18 5 -18 -6 0 -13 6 -15
13 -3 6 -6 -12 -6 -41 -1 -50 0 -53 20 -47 14 5 25 2 30 -6 5 -9 9 -10 9 -2 0
6 9 9 20 6 18 -5 20 0 20 36 0 26 -4 40 -10 36 -13 -8 -50 4 -50 16 0 5 15 7
33 5 27 -4 35 0 49 24 13 23 27 30 75 40 32 6 140 32 240 56 100 24 204 44
233 44 28 0 81 4 118 9 76 11 217 26 372 41 58 6 141 17 186 26 77 16 81 17
76 41 -5 28 10 43 44 43 18 0 23 9 30 52 8 46 12 53 34 56 45 5 50 10 41 34
-6 16 -3 31 7 48 14 23 13 23 -11 -3 l-26 -28 -12 23 c-8 14 -14 18 -17 10 -2
-6 -11 -12 -19 -12 -10 0 -13 6 -8 17 5 15 4 16 -7 5 -11 -11 -10 -15 3 -25
20 -15 22 -64 3 -64 -7 0 -11 4 -8 9 3 4 0 8 -5 8 -6 0 -11 -7 -11 -15 0 -8
-7 -15 -15 -15 -18 0 -18 1 -5 36 9 24 9 25 -5 14 -8 -7 -15 -20 -15 -28 0
-15 -1 -15 -16 0 -13 13 -14 24 -6 62 7 35 7 46 -2 43 -6 -2 -13 -23 -16 -48
-3 -24 -8 -39 -12 -33 -10 15 -1 194 18 362 4 39 9 52 19 48 15 -5 39 17 29
27 -3 3 -13 3 -21 0 -11 -5 -14 3 -11 38 l3 44 69 1 c89 1 116 -5 116 -24 0
-16 14 -8 16 9 3 20 4 21 17 11 7 -6 31 -7 59 -3 41 7 48 5 57 -13 8 -18 10
-18 10 -3 1 10 9 17 21 17 11 0 23 7 27 16 6 17 -15 36 -30 27 -5 -3 -35 -6
-66 -7 -31 -1 -61 -5 -68 -9 -6 -4 -14 -4 -17 1 -2 4 -49 9 -102 10 -54 1 -99
4 -102 6 -2 3 0 61 5 129 9 123 18 150 51 153 36 3 42 5 42 14 0 6 -18 10 -40
10 -39 0 -40 1 -40 35 0 20 7 51 15 71 8 19 10 32 5 29 -6 -3 -10 -2 -10 2 0
11 57 33 64 25 14 -13 4 -44 -15 -49 -12 -4 -18 -11 -15 -20 3 -8 6 -22 7 -31
0 -11 2 -12 6 -4 2 6 11 12 19 12 8 0 11 6 8 15 -4 8 -1 15 6 15 6 0 9 3 7 8
-3 4 9 7 26 8 30 1 30 1 9 -9 -12 -6 -25 -21 -28 -34 -9 -32 3 -42 15 -12 8
21 10 22 16 7 10 -24 25 -23 25 2 0 11 5 20 10 20 6 0 10 -9 10 -19 0 -11 5
-23 10 -26 15 -9 12 61 -3 74 -8 6 -17 8 -20 4 -4 -3 -7 -1 -7 5 0 20 19 23
29 5 6 -10 11 -12 11 -5 0 6 3 12 8 12 4 0 8 -21 10 -47 2 -26 8 -51 15 -55 7
-4 7 -8 2 -8 -6 0 -11 -9 -12 -19 -1 -13 7 -21 24 -26 20 -5 22 -9 13 -20 -14
-17 -23 -132 -9 -118 5 5 11 30 14 56 3 26 7 61 10 77 4 25 2 30 -15 30 -15 0
-19 5 -16 23 3 12 5 34 5 50 1 15 4 27 9 27 4 0 5 -21 3 -46 -2 -36 0 -45 10
-42 9 3 13 16 12 34 -3 29 -3 29 8 4 5 -13 8 -34 4 -47 -3 -12 -1 -25 5 -28 5
-3 10 -1 10 6 0 8 3 10 10 3 6 -6 6 -38 1 -84 -5 -41 -7 -77 -5 -79 9 -10 15
10 20 62 9 109 23 106 16 -3 -9 -150 -9 -183 5 -187 6 -2 10 4 8 14 -3 25 6
38 16 22 4 -7 11 -10 15 -6 4 4 0 15 -9 24 -22 26 -17 136 9 165 17 19 17 21
2 15 -22 -8 -23 1 -1 25 9 10 13 21 8 26 -4 4 -10 1 -12 -5 -3 -7 -9 -13 -14
-13 -6 0 -8 4 -5 9 3 5 -3 19 -13 32 -10 13 -21 31 -24 39 -3 8 -6 2 -6 -14
-1 -22 -4 -27 -12 -19 -8 8 -6 20 6 43 14 27 15 34 3 41 -9 6 -12 29 -11 79 2
52 -1 70 -10 67 -7 -2 -12 -10 -12 -17 0 -7 -5 -15 -12 -17 -7 -3 -9 3 -6 16
4 14 -1 23 -13 28 -11 4 -48 31 -83 60 -36 29 -69 53 -73 53 -15 0 -8 19 10
23 15 4 15 5 -2 6 -11 0 -28 8 -38 18 -10 9 -18 11 -18 5 0 -6 6 -13 13 -15 8
-4 7 -6 -3 -6 -17 -1 -40 17 -40 32 0 4 5 5 10 2 16 -10 11 11 -6 26 -8 7 -22
25 -30 41 -13 26 -19 28 -70 28 -35 0 -53 -4 -49 -10z m-48 -400 c9 0 13 6 9
15 -3 8 -1 15 3 15 5 0 12 -7 15 -16 4 -10 14 -14 26 -11 11 3 23 1 26 -4 3
-5 1 -9 -3 -9 -5 0 -10 -19 -10 -42 l-1 -43 7 35 c9 45 18 60 38 60 10 0 13 6
9 18 -7 16 -6 16 9 1 10 -9 18 -32 19 -52 l1 -35 -27 20 -28 19 1 -28 c0 -20
2 -23 7 -11 5 12 11 15 22 8 14 -9 16 -65 6 -265 -5 -114 -3 -108 -31 -101
-16 4 -25 2 -25 -5 0 -8 -4 -8 -15 1 -8 6 -23 9 -35 5 -11 -3 -20 -2 -20 3 0
5 -13 7 -30 4 -16 -2 -28 -8 -25 -12 3 -5 1 -12 -5 -15 -6 -4 -9 -1 -8 6 2 6
-3 14 -11 17 -8 3 -11 0 -7 -7 11 -18 -5 -13 -21 7 -14 16 -14 16 -9 0 6 -21
-9 -25 -17 -5 -7 18 3 66 16 74 6 4 8 -3 3 -21 -4 -15 -2 -26 4 -26 5 0 9 3 8
8 -1 4 2 32 5 62 4 30 9 78 11 106 7 90 18 144 28 144 6 0 8 -9 5 -20 -3 -11
-1 -20 4 -20 5 0 10 12 11 28 1 15 2 34 4 42 1 8 3 31 4 50 1 19 4 27 7 18 2
-10 11 -18 20 -18z m-110 -485 c10 17 22 20 95 20 46 0 86 -4 90 -9 4 -6 13
-5 22 3 14 12 16 10 16 -15 0 -33 -38 -376 -42 -380 -7 -6 -118 -7 -125 -1 -3
4 -16 1 -28 -7 -20 -13 -25 -13 -44 0 -11 8 -21 11 -21 5 0 -6 -7 -8 -15 -5
-8 4 -15 15 -15 26 0 17 3 18 14 9 21 -17 28 0 33 80 3 46 1 69 -6 69 -6 0
-12 -15 -13 -32 0 -18 -2 -37 -3 -43 -2 -5 -3 -20 -4 -33 0 -13 -5 -20 -11
-17 -6 4 -8 10 -5 15 9 15 13 162 4 153 -4 -4 -9 -33 -10 -63 -1 -31 -6 -65
-10 -75 -14 -33 1 223 18 295 5 23 6 24 13 5 7 -19 8 -18 15 5 l9 25 6 -25 c6
-24 6 -24 17 -5z m90 -599 c-1 -7 18 -11 46 -12 57 -1 66 -8 44 -32 -23 -25
-21 -35 3 -22 11 6 25 8 30 5 6 -3 10 -1 10 4 0 6 8 11 17 11 15 0 15 -2 -2
-14 -11 -8 -26 -11 -34 -8 -9 3 -12 1 -7 -6 5 -8 -3 -12 -23 -12 -17 0 -31 -5
-31 -10 0 -7 -6 -7 -19 -1 -10 6 -22 7 -26 3 -5 -4 -5 1 -2 11 4 11 1 17 -8
17 -8 0 -15 -5 -15 -11 0 -7 -13 -10 -34 -7 -19 2 -32 0 -30 -4 8 -13 -10 -9
-32 7 -12 8 -25 11 -29 7 -5 -4 -5 -1 -1 6 6 10 1 11 -17 7 -25 -7 -57 15 -57
38 0 7 9 1 20 -13 10 -14 22 -21 26 -17 4 4 2 7 -5 7 -7 0 -9 5 -6 10 5 8 11
7 21 -1 12 -10 17 -9 27 1 10 10 9 11 -3 5 -13 -8 -13 -7 -1 8 7 9 10 17 5 17
-5 0 -4 4 3 8 19 12 132 10 130 -2z"/>
<path d="M130 1961 c0 -5 -10 -7 -22 -3 -16 4 -19 2 -13 -9 7 -11 5 -11 -10 1
-17 14 -18 13 -10 -5 4 -11 9 -33 11 -50 1 -16 5 -39 8 -50 5 -15 4 -15 -5 3
-17 30 -26 28 -35 -10 -10 -42 -9 -40 -18 -60 -5 -10 -15 -18 -23 -18 -13 0
-13 -3 -2 -16 10 -12 10 -22 0 -49 -18 -50 -12 -134 10 -146 27 -14 35 -11 13
6 -19 14 -19 14 2 15 12 0 28 7 35 16 12 15 11 16 -11 10 -14 -4 -20 -4 -15 1
14 10 17 53 4 53 -5 0 -9 -7 -9 -15 0 -8 -6 -15 -13 -15 -7 0 -12 11 -12 24 2
28 22 56 39 55 7 0 6 -2 -1 -6 -7 -2 -13 -11 -13 -19 0 -13 11 -18 36 -15 6 1
17 -12 24 -29 17 -42 53 -36 54 9 1 39 -9 48 -32 28 -14 -13 -20 -13 -36 -2
-10 8 -15 18 -12 23 9 15 -4 42 -19 42 -8 0 -17 4 -20 10 -3 6 1 7 9 4 9 -3
16 -1 16 5 0 6 8 8 18 4 15 -5 16 -4 1 8 -11 10 -14 21 -9 39 5 14 8 20 9 14
2 -22 27 -23 28 -1 2 22 23 50 23 30 0 -6 8 -9 18 -6 12 3 18 -2 19 -16 1 -14
-3 -18 -13 -14 -8 3 -24 -4 -35 -16 -17 -18 -17 -21 -4 -21 15 0 15 -1 0 -16
-9 -9 -13 -19 -10 -22 3 -3 11 0 17 6 18 18 28 14 29 -10 1 -19 2 -19 6 -5 3
10 -3 27 -12 37 -9 10 -14 23 -11 28 7 12 46 4 46 -9 0 -5 5 -9 11 -9 8 0 7 5
-1 15 -11 13 -11 20 0 40 7 14 18 25 24 25 6 0 17 9 23 19 10 15 9 22 -2 31
-8 7 -15 19 -15 28 0 8 -3 12 -6 9 -4 -4 -19 2 -34 13 -30 21 -50 26 -50 11z"/>
<path d="M3770 1802 l-25 -20 25 -28 c14 -16 18 -23 8 -16 -24 19 -31 -2 -7
-24 18 -16 20 -26 14 -78 -6 -63 -15 -88 -15 -43 0 14 -4 28 -8 31 -13 8 -35
-11 -28 -23 4 -6 5 -11 1 -11 -3 0 -10 12 -15 26 -15 38 -35 25 -32 -20 3 -26
0 -36 -7 -31 -6 3 -8 11 -5 17 4 6 2 8 -3 5 -6 -4 -14 0 -17 9 -3 8 -10 12
-16 9 -26 -16 -50 -13 -50 5 0 23 -16 35 -26 19 -8 -14 -7 -75 2 -90 9 -15 34
10 27 27 -9 24 63 12 91 -15 l24 -22 10 28 c6 15 11 21 11 12 1 -20 28 -33 36
-18 4 5 11 7 16 3 6 -4 2 -15 -10 -28 -12 -12 -18 -26 -14 -29 3 -4 -1 -7 -10
-7 -16 0 -22 -22 -18 -57 1 -9 -11 -12 -38 -11 -35 1 -39 3 -28 16 10 13 9 14
-10 4 -14 -8 -24 -9 -28 -2 -4 6 -12 5 -21 -4 -8 -9 -22 -12 -31 -9 -10 4 -14
2 -10 -4 3 -5 58 -11 121 -12 108 -2 115 -1 109 16 -6 16 -5 16 10 4 28 -22
33 -3 6 25 -17 18 -19 23 -6 18 18 -7 24 10 7 21 -17 10 -12 151 5 165 8 7 15
17 15 22 0 6 -7 5 -15 -2 -23 -19 -18 1 8 28 l22 25 -24 -6 c-21 -5 -23 -3
-19 21 3 15 2 38 -1 51 l-6 23 -25 -20z"/>
<path d="M5695 1694 l7 -83 -29 -8 c-32 -8 -37 -8 -118 -13 -35 -2 -48 -5 -32
-7 20 -3 27 -9 23 -19 -4 -11 -2 -12 13 -5 10 6 20 9 22 7 11 -9 59 -15 59 -7
0 5 -8 11 -17 13 -10 3 1 6 25 9 23 2 42 1 42 -3 0 -5 -7 -8 -15 -8 -8 0 -12
-6 -9 -14 3 -8 11 -13 18 -10 10 4 15 -40 20 -201 4 -114 5 -209 2 -212 -3 -3
-12 0 -21 7 -13 11 -15 7 -15 -33 0 -52 -3 -54 -87 -52 -35 0 -63 -3 -63 -7 0
-4 -6 -5 -12 -3 -7 2 -107 6 -221 8 -156 3 -211 7 -217 16 -6 11 -9 11 -13 0
-3 -8 -6 4 -7 26 -1 22 -5 53 -9 68 -6 26 -7 27 -18 8 -8 -13 -9 -22 -3 -26
15 -9 12 -55 -5 -72 -12 -12 -39 -15 -127 -14 -115 2 -133 5 -122 23 4 7 2 8
-5 4 -6 -4 -9 -12 -6 -17 7 -10 -10 -11 -42 -3 -17 5 -22 12 -18 28 3 11 1 37
-4 56 -8 32 -9 29 -10 -29 -1 -54 -3 -62 -17 -57 -12 5 -15 2 -10 -10 3 -8 6
-23 6 -32 0 -15 2 -15 10 -2 8 13 10 12 10 -3 0 -17 1 -17 16 -3 25 26 52 20
57 -11 4 -26 4 -25 6 5 0 18 5 31 10 28 5 -4 29 -7 53 -7 55 -2 68 -12 59 -47
-4 -15 -4 -43 -1 -64 4 -20 4 -42 -1 -49 -4 -7 -5 -19 -2 -28 4 -11 0 -9 -10
4 -19 23 -22 39 -6 29 8 -5 9 6 4 36 -11 68 -12 100 -1 100 5 0 7 2 4 5 -8 8
-38 -6 -38 -17 0 -5 5 -6 10 -3 6 3 10 2 10 -4 0 -5 -6 -11 -12 -14 -10 -3
-10 -7 0 -19 9 -11 10 -18 2 -23 -5 -3 -10 -14 -9 -23 0 -14 2 -14 8 2 6 16 9
17 13 5 4 -9 -2 -20 -13 -27 -18 -11 -19 -9 -19 40 -1 42 -3 49 -11 35 -6 -10
-8 -29 -5 -43 4 -14 2 -24 -4 -24 -6 0 -10 -6 -9 -12 3 -27 -1 -49 -10 -44 -4
3 -6 17 -3 32 3 16 -1 29 -9 35 -11 7 -12 12 -1 29 11 17 10 20 -7 20 -10 0
-18 -6 -17 -12 0 -7 -3 -15 -9 -18 -5 -3 -10 2 -11 10 -1 8 -2 26 -3 40 -3 47
-18 0 -18 -56 0 -81 -13 -79 -15 2 l-2 69 -6 -70 c-4 -38 -7 -58 -8 -42 -1 15
-6 27 -12 27 -8 0 -3 -58 6 -69 2 -2 -1 -11 -5 -20 -8 -14 -1 -16 52 -16 34
-1 132 -4 217 -7 85 -4 182 -7 215 -8 33 -1 52 -4 43 -7 -19 -5 -23 -15 -10
-27 4 -4 8 -16 8 -27 4 -50 3 -49 30 -38 15 5 29 7 33 4 7 -8 -21 -25 -30 -19
-4 2 -20 -1 -35 -7 -23 -8 -25 -12 -14 -19 11 -7 7 -10 -15 -10 -16 0 -41 -3
-55 -6 -21 -6 -23 -4 -12 7 6 7 11 22 11 34 -1 16 -2 17 -6 3 -2 -10 -11 -18
-19 -18 -9 0 -12 -5 -8 -11 4 -8 -1 -9 -16 -4 -12 4 -50 8 -85 10 -34 1 -69 6
-76 11 -12 6 -12 5 0 -9 8 -10 11 -20 7 -24 -3 -3 -6 -2 -6 4 0 12 -21 22 -60
30 -13 2 -26 6 -29 8 -2 2 -13 0 -24 -6 -12 -7 -17 -7 -13 -1 3 6 -8 13 -26
17 -53 11 -76 30 -71 58 7 34 -10 41 -33 15 -19 -21 -19 -21 4 -16 28 8 28 1
0 -29 -17 -19 -18 -23 -6 -23 9 0 19 6 21 13 3 6 6 0 6 -15 1 -31 -23 -39 -33
-12 -6 15 -10 14 -31 -6 -32 -30 -32 -19 0 16 25 27 32 44 17 44 -4 0 -22 -15
-40 -34 -23 -25 -39 -33 -62 -32 -18 0 -30 6 -30 14 0 8 6 12 14 9 10 -4 13
-1 10 7 -3 8 -15 12 -27 10 -22 -5 -22 -4 1 7 12 7 22 16 22 21 0 5 -10 13
-22 18 l-23 9 23 0 c26 1 39 25 24 44 -6 7 -9 22 -6 34 4 15 0 22 -15 26 -14
3 -21 13 -21 30 0 20 4 24 19 20 34 -9 34 17 -1 32 -26 11 -28 14 -12 15 35 0
38 28 4 35 -16 4 -34 4 -40 0 -5 -3 -22 6 -36 20 -20 20 -23 29 -14 40 6 8 19
11 28 8 10 -4 6 4 -10 22 -32 34 -28 47 4 19 21 -17 20 -16 -1 9 -22 24 -26
25 -34 12 -6 -11 -3 -23 10 -38 14 -17 12 -17 -10 3 -16 13 -23 26 -18 28 6 2
9 8 5 13 -10 17 6 30 26 19 31 -16 34 17 4 45 -20 19 -23 28 -16 41 14 25 3
125 -17 148 -12 13 -17 42 -18 108 -2 95 -7 112 -24 88 -9 -13 -10 -12 -6 2 3
9 -1 22 -8 28 -12 10 -17 7 -26 -16 -11 -29 -11 -29 -20 -6 -11 30 -29 28 -29
-3 0 -16 6 -25 15 -25 8 0 15 -8 15 -17 0 -10 7 -31 15 -47 8 -15 12 -32 9
-37 -3 -5 1 -6 9 -3 8 3 20 -2 27 -11 11 -13 10 -14 -5 -8 -14 5 -17 3 -13 -8
4 -10 -2 -14 -20 -16 -18 -1 -21 1 -11 8 12 7 12 10 0 21 -12 11 -12 10 -6 -2
7 -12 6 -13 -6 -3 -15 12 -67 12 -86 0 -6 -4 -15 -2 -18 3 -5 8 -12 7 -23 -3
-24 -20 -89 -11 -97 14 -8 24 -75 28 -75 4 0 -8 7 -15 15 -15 18 0 20 -16 3
-26 -7 -4 -8 -3 -4 4 9 14 -4 15 -24 2 -13 -8 -13 -10 3 -11 26 -2 31 -4 46
-13 10 -7 12 -6 6 4 -7 11 2 12 46 6 82 -12 139 -16 195 -16 50 0 52 -1 58
-31 3 -17 5 -86 4 -153 -1 -66 -3 -96 -5 -66 -2 30 -7 58 -11 62 -4 4 -4 -30
-1 -75 6 -75 1 -143 -18 -237 l-7 -35 -6 40 c-7 40 -7 40 -9 -12 -1 -58 -12
-68 -27 -25 -10 25 -11 22 -18 -33 -3 -33 -11 -73 -17 -90 -6 -16 -13 -64 -15
-105 -2 -41 -6 -89 -9 -106 -7 -41 4 -44 126 -33 52 5 168 8 259 8 398 0 428
1 433 14 3 9 -16 12 -73 14 -43 0 -87 6 -98 12 -15 8 -23 7 -31 -2 -6 -8 -29
-12 -63 -10 -29 1 -75 4 -101 5 -45 2 -48 4 -42 26 4 15 2 21 -5 17 -5 -3 -10
-1 -10 4 0 14 11 14 47 0 15 -5 25 -7 21 -3 -8 7 16 34 30 34 6 0 12 -6 15
-12 3 -10 11 -10 38 -1 48 17 142 20 147 5 2 -7 13 -12 25 -11 22 0 22 0 0 9
-38 15 -26 21 40 19 34 -1 145 -1 247 0 171 1 183 3 165 17 -19 15 -17 16 35
11 70 -6 85 -1 64 20 -12 13 -20 13 -41 4 -21 -10 -30 -9 -51 5 -25 16 -25 18
-7 24 17 6 14 10 -22 33 -29 18 -41 32 -37 42 4 8 12 15 20 15 20 0 17 -18 -3
-23 -13 -4 -12 -5 5 -6 12 0 25 5 28 13 5 12 32 14 157 10 140 -5 184 -8 244
-18 l22 -4 -6 196 c-5 180 -4 195 11 183 10 -8 16 -9 16 -3 0 6 -7 15 -17 20
-14 8 -17 36 -20 203 -2 107 -8 198 -13 203 -5 5 -5 16 -1 25 5 9 9 47 9 84 0
49 4 73 16 86 15 17 14 18 -15 18 l-31 0 7 -83z m-60 -664 c3 -5 -1 -10 -11
-10 -14 0 -14 -3 -4 -15 11 -13 15 -13 21 -3 21 34 42 -54 24 -97 -8 -19 -8
-19 8 -3 11 11 17 33 17 62 0 25 5 46 10 46 6 0 10 -28 10 -65 0 -54 -3 -65
-17 -65 -15 0 -14 -2 3 -16 10 -8 14 -13 7 -10 -6 4 -16 -2 -22 -11 -6 -10
-11 -12 -11 -5 0 6 -7 12 -16 12 -8 0 -12 -5 -8 -11 4 -8 1 -8 -12 -1 -11 6
-22 12 -26 14 -4 1 -14 -7 -23 -19 -15 -21 -55 -22 -55 -1 0 6 7 8 15 4 12 -4
13 -2 3 14 -9 14 -15 16 -26 8 -7 -6 -10 -18 -7 -26 4 -12 -3 -14 -41 -8 -26
3 -87 6 -137 6 -84 0 -89 1 -84 20 3 11 1 20 -4 20 -8 0 -13 -15 -10 -32 0 -5
-5 -8 -12 -8 -9 0 -12 22 -12 85 1 47 -2 85 -6 85 -4 0 -8 -36 -8 -81 0 -44
-3 -84 -5 -88 -7 -10 -66 -1 -66 10 0 4 5 11 12 15 7 5 8 3 3 -6 -5 -8 -3 -11
6 -8 20 7 24 48 5 48 -9 0 -16 -6 -17 -12 0 -7 -4 -3 -9 10 -11 27 -34 30 -25
3 3 -10 1 -29 -4 -42 l-9 -24 -12 30 c-12 29 -12 30 -21 8 -4 -13 -10 -23 -11
-23 -2 0 -2 40 0 89 l3 90 47 1 c125 2 132 1 132 -26 0 -13 6 -24 13 -24 7 0
8 -3 2 -8 -11 -8 -14 -82 -4 -82 13 0 17 26 13 83 -4 58 1 67 25 45 10 -9 12
-10 7 -1 -5 9 3 11 26 9 47 -5 70 -17 64 -32 -3 -8 -1 -14 5 -14 7 0 9 10 5
25 -7 28 -4 30 24 15 10 -6 21 -6 24 -2 3 5 39 8 81 6 68 -2 95 6 63 19 -7 3
1 6 19 6 17 1 35 -3 38 -9z"/>
<path d="M2752 1729 c-31 -31 -47 -88 -19 -74 6 4 4 0 -5 -8 -10 -8 -19 -27
-19 -43 -1 -24 -2 -25 -6 -6 -2 12 -9 20 -14 17 -5 -4 -9 -1 -9 6 0 7 -2 10
-5 7 -3 -3 2 -21 10 -41 8 -20 16 -53 17 -74 1 -35 2 -34 8 12 4 30 8 38 8 22
1 -16 7 -38 13 -49 14 -25 -1 -43 -29 -34 -13 4 -18 13 -15 24 3 12 -4 22 -22
30 -14 7 -28 19 -31 27 -7 17 -34 21 -34 5 0 -6 12 -23 26 -37 19 -19 28 -23
34 -14 10 18 19 -33 9 -52 -5 -9 -18 -13 -34 -10 -14 3 -22 10 -18 16 4 6 0 8
-10 4 -9 -3 -21 1 -29 11 -11 13 -11 14 1 7 8 -5 0 8 -19 27 -26 27 -38 34
-47 26 -7 -6 -13 -17 -13 -25 0 -12 3 -13 13 -5 8 7 18 7 27 2 17 -11 19 -11
-40 -14 -68 -5 -85 -13 -86 -40 l-2 -25 214 0 c118 0 214 3 214 7 0 5 -6 14
-12 21 -11 12 -10 13 6 7 16 -5 17 -4 6 9 -8 10 -9 15 -1 15 18 0 13 23 -12
52 -15 19 -26 25 -35 19 -10 -6 -8 -15 12 -38 26 -31 23 -48 -7 -48 -27 0 -56
40 -49 67 3 11 1 19 -4 16 -5 -4 -9 4 -9 17 0 18 3 21 13 13 9 -8 12 -6 9 8
-1 11 -6 25 -11 32 -5 8 -1 21 11 34 10 12 13 18 7 15 -7 -4 -15 1 -19 11 -4
11 2 24 20 40 15 12 25 27 23 33 -2 5 -18 -4 -36 -22z"/>
<path d="M204 1325 c-4 -10 -20 -15 -49 -15 -37 0 -42 -3 -38 -19 4 -14 -3
-20 -27 -25 -62 -12 -73 -9 -66 19 4 14 2 25 -3 25 -5 0 -11 -10 -15 -22 -8
-30 -7 -38 2 -36 4 0 15 -2 25 -7 16 -7 15 -9 -7 -30 -21 -19 -23 -25 -11 -35
7 -6 12 -20 10 -31 -2 -10 1 -19 7 -19 6 0 8 -3 5 -6 -4 -4 2 -14 12 -23 26
-22 17 -69 -15 -81 -27 -11 -33 -32 -6 -24 10 3 8 0 -4 -7 -16 -8 -22 -21 -22
-51 -1 -33 1 -38 14 -27 8 6 17 9 21 5 3 -3 1 -6 -6 -6 -7 0 -9 -4 -6 -10 3
-5 13 -10 21 -10 8 0 12 5 9 10 -3 6 3 10 14 10 12 0 21 -4 21 -10 0 -14 37
-12 43 3 3 10 9 10 26 0 34 -21 58 -16 65 14 5 16 3 29 -5 33 -7 5 -7 9 -1 11
15 6 25 199 11 199 -8 0 -8 5 1 15 10 12 10 15 0 15 -9 0 -7 7 5 20 16 18 16
20 2 20 -26 0 -20 26 11 50 15 12 21 19 15 15 -8 -4 -13 0 -13 10 0 9 -4 13
-10 10 -5 -3 -15 -3 -21 1 -8 4 -7 9 2 15 11 7 11 9 1 9 -7 0 -15 -7 -18 -15z"/>
<path d="M6216 1291 c-4 -6 -16 -11 -27 -11 -12 0 -17 -4 -14 -11 4 -6 -3 -5
-15 3 -17 10 -24 10 -27 1 -2 -7 -11 -9 -19 -6 -16 6 -16 2 -14 -102 1 -38 6
-71 11 -73 5 -2 9 -8 9 -13 0 -6 -4 -8 -9 -5 -5 3 -8 -6 -8 -19 0 -14 3 -25 7
-25 4 0 6 -11 5 -24 -2 -17 3 -26 17 -30 16 -4 18 -2 9 7 -17 17 -13 25 13 23
18 -1 22 -4 14 -13 -8 -10 2 -13 46 -13 52 0 73 11 44 23 -7 3 -2 6 11 6 17 1
22 -3 17 -14 -4 -12 6 -15 57 -15 44 0 58 3 47 10 -10 6 -11 10 -2 10 9 0 12
29 12 110 0 93 -2 109 -15 104 -8 -4 -15 -1 -15 4 0 6 -12 10 -27 9 -18 -1
-27 3 -25 11 2 12 -15 16 -50 13 -9 -1 -19 3 -23 9 -3 5 -1 10 4 10 6 0 11 5
11 11 0 5 -5 7 -11 3 -6 -3 -15 -1 -19 6 -5 9 -9 9 -14 1z"/>
<path d="M5950 541 c0 -6 5 -11 11 -11 5 0 7 -5 3 -12 -5 -8 -2 -9 9 -5 9 3
19 3 21 -2 3 -4 -51 -9 -119 -9 -73 -1 -126 2 -130 8 -3 6 -11 10 -16 10 -6 0
-8 -4 -5 -8 6 -10 -75 -9 -91 1 -6 4 -14 3 -18 -2 -3 -7 -15 -7 -29 -1 -27 10
-37 5 -29 -16 3 -9 -2 -14 -16 -14 -15 0 -21 -6 -21 -22 0 -18 2 -20 10 -8 7
12 12 12 22 2 6 -6 18 -12 26 -12 10 0 10 3 -2 16 -9 8 -14 19 -11 24 5 7 131
6 579 -4 117 -3 175 -1 169 5 -6 6 -55 12 -109 14 -118 4 -113 3 -94 15 9 6
10 10 3 10 -7 0 -16 -7 -21 -15 -7 -14 -11 -13 -32 5 -13 11 -35 19 -51 18
-15 -1 -34 4 -43 11 -11 9 -16 10 -16 2z"/>
<path d="M785 512 c11 -4 21 -12 22 -19 2 -9 -4 -10 -23 -3 -38 15 -71 12 -78
-6 -3 -9 -6 -41 -6 -73 0 -32 -5 -63 -12 -70 -20 -19 18 -44 45 -30 13 7 17 8
13 1 -4 -7 30 -11 101 -11 60 0 158 -2 218 -5 l110 -5 -55 20 c-45 16 -60 17
-82 8 -39 -16 -74 -5 -82 27 -5 20 -10 24 -19 15 -15 -15 -32 -14 -19 2 18 22
24 74 10 83 -21 13 -42 14 -50 1 -6 -9 -8 -9 -8 0 0 6 5 15 10 18 20 12 -9 46
-35 41 -14 -3 -27 0 -30 5 -4 5 -16 9 -28 8 -21 -1 -21 -1 -2 -7z"/>
<path d="M5425 500 c-11 -5 -14 -9 -8 -9 8 -1 11 -11 9 -23 -2 -16 -11 -24
-27 -26 -23 -3 -23 -2 -5 13 19 15 19 15 -1 15 -12 0 -23 3 -26 8 -2 4 -2 1
-1 -6 6 -21 -37 -35 -69 -23 -15 6 -27 15 -27 21 0 5 -5 10 -11 10 -6 0 -8 -7
-4 -17 4 -13 3 -15 -5 -7 -18 18 -61 4 -70 -22 -5 -13 -12 -24 -15 -24 -4 0
-4 4 -1 9 3 5 -1 14 -10 21 -12 10 -17 11 -27 1 -9 -10 -8 -11 6 -6 11 5 17 2
17 -8 0 -22 -15 -28 -42 -18 -15 7 -18 10 -6 10 10 1 15 8 14 19 -3 15 -18 17
-147 19 -79 0 -165 5 -190 11 -25 5 -55 8 -65 6 -37 -5 -64 -16 -58 -25 3 -5
-2 -9 -10 -9 -9 0 -16 -7 -16 -15 0 -9 -9 -15 -22 -14 -17 1 -19 2 -5 6 9 2
17 8 17 13 0 20 -114 38 -126 19 -3 -6 -10 -6 -17 -1 -15 12 -177 22 -177 11
0 -5 -12 -3 -26 3 -21 10 -27 9 -35 -3 -5 -8 -9 -9 -9 -3 0 6 -13 11 -29 11
-20 0 -28 -4 -24 -14 3 -9 0 -11 -10 -7 -12 4 -15 -1 -13 -28 l3 -33 146 -1
c81 -1 147 2 147 5 0 3 80 5 178 4 97 -1 257 -2 355 -2 114 0 177 -4 177 -11
0 -5 -4 -10 -10 -10 -5 0 -10 -7 -10 -15 0 -10 -11 -15 -35 -15 -38 0 -40 -2
-25 -31 7 -13 8 -25 1 -37 -9 -14 -10 -13 -11 11 0 16 -5 27 -11 25 -6 -2 -10
-7 -9 -12 1 -5 -4 -13 -12 -17 -10 -7 -10 -9 0 -9 7 0 10 -5 7 -10 -8 -13 -27
-2 -22 13 2 7 0 22 -4 35 -7 17 -5 22 7 22 8 0 13 3 11 8 -3 4 -30 5 -60 4
-43 -3 -54 -7 -50 -18 3 -8 0 -14 -6 -14 -6 0 -11 9 -11 20 0 15 -7 20 -29 20
-35 0 -44 -18 -23 -43 15 -16 14 -17 -2 -11 -14 5 -17 3 -14 -7 2 -8 14 -15
26 -17 12 -2 20 -8 16 -13 -3 -5 -21 -7 -39 -3 -33 6 -33 5 -29 -25 3 -19 1
-31 -6 -31 -7 0 -10 6 -7 13 2 6 -3 17 -11 23 -12 9 -12 13 2 27 20 19 7 30
-31 25 -16 -2 -28 2 -31 11 -3 9 0 12 10 9 8 -4 21 -2 29 2 9 6 20 3 31 -7 19
-17 17 -19 33 32 4 13 -15 15 -133 15 -92 0 -132 -3 -122 -10 12 -8 9 -10 -13
-10 -16 0 -26 4 -22 10 4 6 -11 10 -37 11 -24 1 -62 3 -85 5 -47 4 -64 -9 -34
-25 25 -14 44 -14 36 -1 -4 6 7 10 27 10 25 0 29 -3 18 -10 -12 -8 -12 -10 5
-10 35 -2 79 -7 115 -14 23 -5 30 -4 21 2 -15 11 -7 32 12 31 7 0 7 -3 -2 -6
-9 -4 0 -12 25 -24 37 -16 40 -16 58 -1 11 9 16 12 13 5 -11 -18 3 -43 24 -43
12 0 16 -5 12 -15 -3 -9 1 -23 9 -33 14 -15 21 -52 11 -52 -9 0 -33 29 -33 39
0 6 -9 11 -19 11 -11 0 -23 5 -26 10 -3 6 -11 10 -16 10 -6 0 -3 -7 5 -16 21
-20 20 -21 -9 -21 -15 0 -25 5 -25 13 0 21 -37 17 -43 -5 -3 -15 -1 -18 11
-14 11 5 14 2 9 -10 -8 -20 28 -34 47 -18 10 8 17 7 26 -4 10 -12 10 -15 -2
-15 -8 0 -23 -9 -33 -20 -18 -19 -17 -20 5 -20 18 0 20 -3 11 -14 -9 -10 -8
-16 4 -26 17 -14 10 -34 -10 -26 -8 3 -16 0 -19 -7 -3 -7 -4 -1 -2 13 2 14 0
34 -5 45 -4 11 -8 14 -8 7 -1 -7 -13 -1 -27 15 -24 26 -26 26 -20 6 6 -18 4
-22 -7 -17 -20 7 -30 -25 -15 -44 11 -13 10 -15 -4 -9 -12 4 -15 2 -11 -9 3
-8 -1 -14 -10 -14 -8 0 -20 12 -25 28 -9 24 -10 25 -11 5 -1 -25 -21 -32 -21
-8 0 8 -4 15 -9 15 -6 0 -8 -9 -6 -19 3 -16 -2 -19 -25 -19 -17 1 -27 5 -23
11 3 6 1 7 -6 3 -15 -10 -53 3 -45 15 3 5 10 7 15 4 13 -8 11 9 -2 22 -8 8 -8
13 0 17 6 4 11 11 11 17 0 5 -8 1 -18 -8 -14 -14 -16 -21 -8 -32 9 -12 7 -13
-7 -8 -10 4 -16 3 -13 -2 7 -10 -17 -21 -44 -21 -10 0 -21 -6 -24 -12 -5 -10
-7 -10 -12 0 -4 9 -10 10 -19 2 -17 -14 -62 3 -68 27 -2 11 -4 9 -3 -6 1 -20
-4 -24 -39 -26 -22 -1 -43 3 -47 9 -5 8 -11 7 -20 -2 -16 -16 -58 -16 -58 1 0
9 -2 9 -8 0 -4 -7 -32 -11 -70 -10 -62 2 -62 2 -58 29 3 17 0 26 -6 22 -5 -3
-7 -8 -4 -11 3 -3 1 -14 -5 -24 -8 -16 -21 -18 -94 -16 -81 1 -112 11 -62 19
19 3 17 6 -17 21 -34 15 -37 19 -25 35 13 15 12 16 -3 4 -9 -8 -15 -19 -12
-26 3 -8 -2 -16 -10 -19 -24 -9 -19 -26 6 -19 14 3 19 2 14 -6 -4 -7 -30 -12
-57 -12 -34 0 -48 4 -43 11 4 8 0 7 -15 -1 -25 -13 -108 -7 -124 9 -15 15 -27
13 -21 -3 4 -11 -7 -14 -55 -14 -34 0 -63 4 -66 9 -3 4 -12 6 -20 2 -8 -3 -15
-1 -15 5 0 6 6 12 13 15 6 3 1 4 -12 4 -13 -1 -26 -9 -28 -18 -4 -15 -7 -15
-26 4 -12 12 -20 27 -18 32 2 6 3 18 3 28 0 9 4 15 9 11 6 -3 8 -17 5 -29 -8
-31 12 -43 22 -14 6 15 11 19 16 11 4 -7 12 -10 17 -6 14 8 1 24 -20 24 -17 0
-51 29 -51 43 0 3 7 13 16 21 14 15 11 16 -33 15 -47 -2 -47 -2 -13 -9 19 -4
29 -8 22 -9 -10 -1 -10 -6 -2 -21 8 -16 8 -20 -3 -20 -8 0 -17 -9 -20 -21 -4
-13 -10 -18 -18 -13 -9 5 -11 1 -7 -13 4 -15 1 -20 -10 -19 -9 2 -18 9 -20 16
-3 7 -10 -1 -18 -19 l-13 -31 -114 0 c-83 0 -116 3 -119 12 -7 19 17 70 28 61
5 -5 -2 4 -15 19 -17 20 -20 28 -10 28 10 0 11 2 2 8 -14 9 -5 26 17 35 9 3 3
6 -13 6 -16 1 -26 -3 -23 -7 6 -11 -40 -53 -48 -45 -3 4 -6 1 -6 -5 0 -7 4
-12 10 -12 5 0 7 -7 4 -15 -4 -8 -17 -15 -31 -15 -14 0 -22 4 -18 10 4 6 11 7
17 4 6 -4 6 1 -1 14 -6 12 -16 24 -23 28 -7 5 -8 3 -3 -6 6 -10 1 -11 -21 -6
-36 9 -33 7 -36 39 -2 27 -2 27 -88 27 -52 0 -80 -4 -71 -9 7 -5 18 -15 23
-22 8 -11 9 -10 4 4 -5 15 0 17 29 15 31 -2 36 -6 41 -35 8 -45 24 -55 57 -38
15 7 29 10 32 5 6 -10 -20 -32 -29 -23 -4 4 -11 1 -17 -7 -6 -11 -11 -12 -16
-4 -5 6 -19 10 -33 8 -38 -4 -38 -5 0 -16 42 -11 48 -11 80 -3 17 5 21 4 12
-3 -11 -7 -11 -10 2 -15 8 -3 17 -1 19 6 3 8 9 7 18 -4 18 -21 47 -31 54 -19
4 6 1 11 -4 11 -6 1 -15 2 -20 3 -5 0 -13 5 -18 10 -4 5 4 7 20 4 19 -4 26 -1
25 8 -2 7 0 13 5 13 30 3 33 -1 29 -34 l-4 -36 -194 1 c-141 1 -194 5 -194 13
0 7 -4 6 -10 -3 -7 -12 -16 -12 -47 -4 -22 6 -50 7 -64 4 -13 -4 -49 -6 -79
-5 -48 1 -55 4 -52 21 2 18 2 18 -15 -1 -22 -24 -50 -30 -69 -14 -10 8 -18 8
-27 1 -7 -6 -45 -10 -84 -9 -56 2 -69 5 -61 15 6 7 8 15 4 19 -3 3 -6 2 -6 -4
0 -6 -7 -13 -14 -16 -10 -4 -13 -1 -9 9 7 19 -2 18 -22 -3 -9 -9 -38 -18 -63
-21 -47 -4 -51 10 -7 21 16 4 14 5 -6 6 -15 0 -29 -5 -32 -14 -5 -12 -35 -14
-164 -14 -87 0 -160 4 -163 9 -4 6 -18 6 -39 0 -29 -8 -32 -7 -26 8 5 14 4 15
-6 5 -21 -21 -30 -15 -23 14 6 25 5 26 -8 15 -13 -11 -17 -9 -22 13 -4 14 -12
25 -19 26 -6 0 -20 2 -29 4 -17 3 -24 -9 -33 -56 -2 -12 -6 -24 -9 -26 -8 -9
-96 -11 -101 -3 -3 5 -14 6 -25 3 -11 -3 -20 0 -20 6 0 6 5 11 10 11 6 0 10 4
10 10 0 5 -7 7 -15 4 -8 -4 -15 -15 -15 -25 0 -19 -16 -24 -44 -13 -9 3 -13
10 -10 15 8 13 -10 11 -23 -2 -6 -6 -30 -10 -52 -7 -23 2 -41 0 -41 -4 0 -5
-7 -8 -16 -8 -9 0 -14 6 -11 13 3 7 -1 21 -9 31 -14 20 -15 20 -29 -30 -2 -6
-21 -11 -42 -10 -36 1 -38 3 -41 34 -3 28 -6 31 -18 21 -15 -13 -20 -34 -5
-24 6 3 9 -3 8 -14 -1 -16 -5 -18 -19 -10 -10 6 -24 6 -31 2 -6 -4 -97 -8
-200 -9 -171 0 -190 1 -201 18 -15 20 -28 14 -19 -9 5 -13 1 -15 -23 -8 -16 4
-46 8 -67 8 -26 1 -36 6 -32 14 7 20 -10 15 -30 -7 -13 -15 -22 -17 -29 -10
-8 8 -7 13 4 20 24 15 4 22 -39 15 -39 -6 -41 -9 -41 -41 l0 -34 3200 0 c3046
0 3200 1 3200 18 0 14 -7 17 -45 14 -26 -3 -52 1 -60 8 -11 9 -15 9 -15 1 0
-6 -5 -11 -11 -11 -5 0 -7 6 -3 13 6 9 4 9 -7 1 -8 -6 -42 -12 -77 -13 -48 -1
-64 2 -68 14 -3 8 -10 15 -15 15 -4 0 -6 -7 -2 -15 4 -13 -1 -15 -33 -11 -22
2 -42 5 -46 5 -5 1 -8 6 -8 12 0 7 13 10 34 7 25 -3 36 1 41 12 10 29 35 65
35 53 0 -7 7 -13 16 -13 20 0 -37 56 -67 65 -25 8 -25 25 1 25 13 0 20 7 20
19 0 23 -16 37 -23 19 -3 -10 -7 -10 -20 1 -13 10 -15 17 -6 27 18 22 -17 48
-68 49 -24 1 -39 -1 -35 -4 5 -3 9 -14 9 -24 0 -22 -34 -13 -57 15 -10 13 -24
18 -40 16 l-25 -5 25 -11 c14 -6 19 -11 13 -11 -7 -1 -13 -7 -13 -15 0 -8 6
-17 13 -20 6 -3 1 -4 -13 -3 -14 1 -25 7 -25 14 0 6 -3 15 -7 19 -5 4 -8 3 -8
-3 0 -12 -79 -9 -106 4 -21 10 -29 10 -61 -1 -13 -4 -20 -13 -17 -21 4 -10 0
-12 -15 -8 -11 3 -22 11 -25 19 -3 8 -12 11 -22 7 -12 -4 -15 -3 -10 6 4 7 13
10 19 8 14 -4 40 20 43 39 1 8 -2 14 -8 14 -6 0 -8 -6 -5 -13 4 -10 -2 -13
-19 -9 -14 2 -24 0 -24 -7 0 -6 -7 -11 -15 -11 -9 0 -12 6 -9 15 4 8 2 15 -4
15 -15 0 -22 -26 -10 -38 8 -8 5 -9 -9 -6 -12 3 -24 1 -27 -5 -11 -17 -29 -13
-22 5 5 12 -1 15 -26 12 -29 -3 -32 -6 -34 -46 -1 -23 1 -40 6 -37 5 3 12 0
15 -6 5 -7 0 -10 -11 -7 -15 2 -20 15 -25 58 -4 30 -10 64 -13 75 -4 11 0 8 9
-7 l15 -28 25 22 c18 16 22 24 13 29 -7 4 -9 11 -5 16 13 12 27 -20 15 -34 -8
-10 -5 -13 11 -13 11 0 21 -6 21 -12 0 -7 7 -3 15 9 21 30 11 64 -25 85 -27
16 -41 38 -22 38 14 -1 42 -27 35 -34 -4 -4 0 -4 9 -1 9 4 19 2 23 -4 9 -16
32 -13 32 3 0 8 -5 12 -11 10 -18 -6 -91 51 -90 69 1 9 1 17 0 16 0 0 -10 -4
-21 -9z m-477 -226 c5 -9 8 -26 5 -38 -3 -19 -3 -19 6 2 6 12 8 29 4 38 -5 15
-3 14 26 0 18 -10 29 -21 25 -28 -4 -7 -3 -8 4 -4 7 4 12 3 12 -1 0 -5 9 -9
19 -10 26 -2 62 -39 55 -57 -3 -8 -1 -17 5 -21 6 -3 11 -1 11 4 0 22 30 10 36
-14 4 -14 9 -24 11 -21 7 7 33 -20 33 -33 0 -6 5 -11 11 -11 6 0 9 9 6 19 -3
14 -1 18 9 14 9 -3 12 -13 9 -23 -4 -13 1 -19 20 -22 17 -4 25 -1 25 8 0 19
-36 54 -56 54 -8 0 -13 4 -10 8 3 5 -3 8 -12 8 -30 -2 -28 19 2 22 18 2 30 11
33 23 7 25 29 24 36 -1 3 -11 10 -20 17 -20 6 0 9 4 6 9 -3 4 5 13 19 19 20 9
26 7 41 -16 28 -43 25 -79 -4 -50 -19 19 -14 1 11 -37 12 -19 30 -35 40 -35 9
0 17 -6 17 -14 0 -17 -52 -19 -62 -2 -6 8 -8 7 -8 -1 0 -7 -7 -13 -16 -13 -14
0 -16 7 -11 40 3 22 2 42 -3 45 -11 7 -21 -40 -13 -61 4 -12 3 -15 -6 -10 -6
4 -18 2 -26 -4 -12 -10 -15 -10 -15 1 0 11 -2 11 -10 -1 -8 -12 -10 -12 -16 3
-8 22 -25 22 -18 -1 5 -16 5 -16 -6 1 -14 21 -30 22 -30 2 0 -8 -7 -15 -17
-15 -9 0 -14 3 -10 6 3 4 -3 14 -15 23 -17 15 -19 21 -9 39 8 14 8 22 1 22 -5
0 -10 -4 -10 -9 0 -5 -13 -14 -30 -20 -20 -7 -30 -17 -30 -30 0 -12 -4 -21
-10 -21 -5 0 -6 7 -3 17 4 10 2 14 -4 10 -12 -7 -22 21 -16 41 3 6 9 12 15 12
7 0 6 -5 -1 -14 -8 -10 -9 -16 -1 -21 11 -7 33 42 24 56 -3 5 -13 5 -25 -1
-13 -7 -19 -7 -19 0 0 5 5 10 11 10 13 0 39 25 39 39 0 11 -26 21 -70 26 -41
5 -38 -8 5 -24 36 -13 47 -28 20 -28 -8 0 -16 6 -19 13 -3 8 -20 12 -45 10
-23 -2 -41 1 -41 5 0 5 8 9 18 9 14 0 15 2 2 10 -11 7 -20 4 -33 -13 -14 -18
-16 -19 -10 -3 3 11 15 28 25 38 9 9 15 24 12 33 -7 18 -24 20 -24 3 0 -6 -3
-9 -6 -5 -9 9 5 27 21 27 8 0 18 -7 23 -16z m628 -13 c-3 -5 9 -16 27 -24 33
-16 60 -17 73 -4 11 11 26 8 19 -4 -4 -6 2 -13 14 -16 12 -3 21 -12 21 -20 0
-10 -5 -11 -18 -4 -14 7 -18 6 -18 -10 0 -10 4 -19 8 -19 4 0 8 -7 8 -15 0 -8
6 -15 14 -15 8 0 21 -3 30 -6 9 -3 16 -1 16 5 0 6 -9 11 -20 11 -19 0 -19 2
-5 23 8 13 13 26 10 29 -3 3 1 11 10 18 13 11 14 10 10 -3 -4 -10 1 -18 15
-22 26 -8 20 -30 -8 -29 -23 1 -20 -7 19 -47 9 -9 19 -23 22 -30 5 -12 7 -12
15 -1 7 11 10 9 14 -6 4 -15 13 -20 31 -18 16 2 28 -3 32 -12 4 -11 -1 -13
-22 -9 -16 3 -37 9 -47 13 -14 5 -17 4 -12 -4 11 -17 -10 -15 -28 4 -12 12
-16 12 -16 2 0 -17 -61 -23 -71 -7 -4 7 -14 9 -25 4 -11 -4 -38 -8 -61 -9 -47
-2 -58 15 -23 34 15 8 18 8 14 -3 -3 -9 6 -13 30 -14 26 -1 35 4 39 18 3 10 1
19 -4 19 -5 0 -9 -5 -9 -11 0 -25 -35 -2 -37 24 -2 28 -1 28 22 13 27 -18 60
-22 50 -6 -3 5 -13 6 -22 3 -12 -5 -15 -2 -11 9 4 9 2 20 -3 25 -6 6 -6 20 1
38 13 34 6 43 -16 21 -15 -16 -18 -15 -49 9 -19 14 -36 25 -39 25 -9 0 -2 -24
9 -32 6 -5 5 -8 -2 -8 -7 0 -13 -6 -13 -13 0 -8 -10 -13 -22 -12 -13 1 -22 6
-20 11 12 43 14 47 23 33 7 -11 9 -9 10 6 1 11 1 26 0 33 -1 6 3 12 9 12 6 0
9 -4 6 -9z"/>
<path d="M5833 447 c-2 -4 -8 -5 -13 -2 -4 3 -10 -2 -14 -10 -3 -8 0 -15 6
-15 6 0 8 -3 5 -6 -4 -4 -13 -1 -21 5 -10 8 -16 9 -21 1 -3 -5 -11 -10 -16
-10 -6 0 -3 7 5 16 22 21 20 24 -13 24 -25 0 -29 -3 -26 -22 4 -20 3 -21 -8
-7 -7 9 -18 14 -26 11 -8 -3 -11 0 -7 7 10 15 -37 14 -83 -1 -47 -16 -46 -15
-28 -33 20 -19 25 -19 23 3 0 10 6 16 16 16 10 -1 15 2 12 7 -3 5 0 9 5 9 6 0
11 -4 11 -10 0 -5 6 -7 14 -4 16 6 30 -23 15 -32 -6 -3 -15 -2 -21 4 -8 8 -15
6 -26 -4 -8 -8 -11 -18 -7 -22 4 -4 10 -1 12 6 3 6 8 10 11 8 4 -2 107 -7 229
-11 122 -4 232 -8 245 -10 52 -7 137 -15 209 -19 76 -5 77 -5 75 19 0 14 -5
20 -11 15 -10 -8 -111 -8 -117 0 -2 3 -12 19 -22 35 l-17 30 25 -30 c14 -16
26 -24 26 -16 0 8 7 11 20 8 13 -3 20 0 20 8 0 9 -10 12 -30 10 -19 -3 -33 1
-36 8 -3 9 -27 13 -73 12 -38 0 -64 -3 -59 -6 6 -4 1 -10 -11 -14 -11 -3 -21
-11 -21 -16 0 -6 -5 -7 -10 -4 -6 4 -8 10 -5 15 6 10 -23 22 -36 14 -5 -3 -9
0 -9 5 0 17 -37 13 -44 -5 -4 -11 -14 -15 -31 -12 -13 3 -26 2 -27 -1 -2 -4
-16 -4 -33 0 -27 6 -28 7 -5 8 53 3 53 19 0 22 -28 2 -54 1 -57 -4z"/>
<path d="M6366 315 c6 -15 -27 -15 -38 0 -5 6 -8 5 -8 -3 0 -10 -14 -11 -62
-6 -81 9 -159 9 -183 1 -16 -7 -15 -10 13 -34 18 -14 32 -34 32 -44 0 -11 5
-19 10 -19 6 0 10 -7 10 -15 0 -9 6 -15 13 -14 6 1 27 1 46 0 29 -1 33 -4 28
-22 -5 -19 -2 -21 22 -16 16 3 32 2 37 -2 15 -15 57 -25 50 -12 -4 6 -1 11 8
11 8 0 16 -5 18 -12 6 -16 38 -2 38 15 0 10 -12 14 -43 12 -24 -1 -49 -5 -55
-9 -7 -4 -12 -1 -12 9 0 15 34 34 61 33 43 -3 46 1 48 57 1 38 -3 55 -12 55
-8 0 -7 4 3 10 8 5 13 10 10 11 -3 0 -13 2 -22 4 -10 2 -15 -2 -12 -10z"/>
</g>
</svg>
